<svg fill="#000000" xmlns="http://www.w3.org/2000/svg"  viewBox="0 0 50 50" width="24" height="24"><path d="M46,11l-2.96-3.96c-1.22-1.22-3.08-1.52-4.62-0.75L37,7l-5-5H18l-5,5l-1.42-0.71c-1.54-0.77-3.4-0.47-4.62,0.75L4,11l2,3	l-2,4l5.77,17.47c0.79,2.28,2.38,4.19,4.47,5.38L25,47l10.76-6.15c2.09-1.19,3.68-3.1,4.47-5.38L46,18l-2-4L46,11z M25,40l-6-6	c0,0,5-3,6-3s6,3,6,3L25,40z M38.68,18.76L34,25l0.57,0.85c0.41,0.61,0.61,1.32,0.61,2.02c0,0.78-0.24,1.55-0.73,2.19	c-0.52,0.7-1.29,1.26-2.04,1.59C31.9,31.88,31.4,32,31,32c-0.9,0-2.617-1.621-5-3.331v-1.102l4.515-2.709	c0.369-0.221,0.555-0.654,0.462-1.074l-1.459-6.566c0.174-0.406,0.444-0.744,0.845-0.964L36,14l-3-1h-2l-0.014,0.014	c-0.1,0.002-0.202,0.004-0.303,0.038l-3,1c-0.486,0.162-0.771,0.666-0.66,1.166l1.844,8.296L25,25.834l-3.868-2.321l1.844-8.296	c0.111-0.5-0.174-1.003-0.66-1.166l-3-1c-0.101-0.034-0.202-0.036-0.303-0.038L19,13h-2l-3,1l5.638,2.253	c0.401,0.22,0.671,0.558,0.845,0.964l-1.459,6.566c-0.093,0.42,0.092,0.853,0.461,1.074L24,27.566v1.126	C21.553,30.436,19.884,32,19,32c-0.4,0-0.9-0.12-1.41-0.35c-0.75-0.33-1.52-0.89-2.04-1.59c-0.93-1.23-0.98-2.92-0.12-4.21L16,25	l-4.68-6.24c-0.79-1.05-0.8-2.48-0.04-3.55L15,9l2.73,0.55c0.38,0.08,0.77,0.11,1.16,0.11c1.08,0,2.16-0.29,3.1-0.85	c0.93-0.56,1.97-0.84,3.01-0.84s2.08,0.28,3.01,0.84c1.28,0.76,2.8,1.03,4.26,0.74L35,9l3.72,6.21	C39.48,16.28,39.47,17.71,38.68,18.76z"/></svg>