<?xml version="1.0" ?><svg height="24" width="24" id="Layer_1" style="enable-background:new 0 0 56.6934 56.6934;" version="1.1" viewBox="0 0 56.6934 56.6934"  xml:space="preserve" xmlns="http://www.w3.org/2000/svg" xmlns:xlink="http://www.w3.org/1999/xlink"><path d="M28.5557,4.0693c-13.5996,0-24.625,11.0234-24.625,24.623s11.0254,24.625,24.625,24.625  c13.5986,0,24.624-11.0254,24.624-24.625S42.1543,4.0693,28.5557,4.0693z M43.4155,36.009  c-0.0038,0.022-0.0077,0.0438-0.0117,0.0659c0.0711-0.1855,0.1165-0.3746,0.1296-0.5665c-0.0444,0.8295-0.2882,1.5796-0.6503,2.2516  c0.0009-0.0017,0.0021-0.0034,0.003-0.0052c-0.002,0.0038-0.0043,0.0077-0.0063,0.0116c-0.0008,0.0015-0.0016,0.0029-0.0024,0.0045  c-0.1798,0.3383-0.4149,0.7037-0.7242,1.0785c-0.0395,0.0488-0.0815,0.0947-0.1221,0.1425  c-0.0275,0.0323-0.0549,0.0648-0.0828,0.0966c-0.7336,0.8386-1.6058,1.5115-2.3366,2.0074  c-0.3236,0.2189-0.6377,0.4093-0.9518,0.571l-0.0002-0.0028l-0.0021,0.001c-0.001,0.0038-0.0021,0.0076-0.0031,0.0112  c0.0103-0.0054,0.015-0.0095,0.015-0.0095c-0.1428,0.5332-0.5805,1.1233-1.2563,1.6278c-2.7128,2.1417-7.6529,2.1036-8.6904,2.075  c-0.004-0.0035-0.0072-0.007-0.011-0.0104c-0.1461-0.0042-0.227-0.0087-0.227-0.0087s0.0639,0.1542,0.3335,0.2843  c0.0094,0.0004,0.0189,0.001,0.0283,0.0012c0.0874,0.0477,0.2098,0.0884,0.3582,0.1228c0.0172,0.0034,0.0332,0.0073,0.0511,0.0105  c-0.0013,0-0.0027,0-0.0042,0c0.0143,0.0032,0.0273,0.0066,0.0421,0.0095c-1.5609,0.057-3.5504-0.4475-4.4261-0.6949  c-0.0014-0.001-0.0026-0.0018-0.004-0.0028c-0.2959-0.0835-0.4719-0.1399-0.4719-0.1399s0.1641,0.1517,0.4561,0.3267  c0.0194,0.0054,0.0385,0.0107,0.0579,0.016c0.2189,0.1333,0.514,0.276,0.8567,0.3712c-0.0376-0.0084-0.0743-0.0173-0.1116-0.026  c0.0276,0.0087,0.0547,0.0177,0.0831,0.026c-7.5291-1.6941-10.5274-6.2251-11.6696-8.1763  c-1.4792-2.5343-1.9417-4.8633-2.0524-6.7751c-0.1057,0.4866-0.1791,0.9088-0.2267,1.2195  c0.0016,0.0343,0.0026,0.0671,0.0044,0.1017c-0.0382,0.2474-0.0573,0.4093-0.0573,0.4473  c-0.0087-0.0348-0.0092-0.0623-0.0093-0.0956c-0.0003,0.0024-0.0005,0.0048-0.0009,0.0071  c-0.0015,0.0476-0.0089,0.0811-0.0089,0.098c-0.0017-0.0249-0.0031-0.0492-0.0046-0.0739c-0.0023,0.02-0.0041,0.0364-0.005,0.0453  c-0.1872-2.8361,0.1227-4.7419,0.5132-5.9813c-0.3024,0.5503-0.5173,1.0587-0.6458,1.3928  c-0.0065,0.0354-0.0132,0.0695-0.0197,0.1053c-0.0667,0.1903-0.1048,0.295-0.1048,0.295c0.0095-0.0286,0.0095-0.0667,0.019-0.0952  c-0.0285,0.0667-0.038,0.1047-0.038,0.1047c0.0013-0.0074,0.0027-0.0146,0.004-0.0222c-0.0027,0.0083-0.004,0.0127-0.004,0.0127  c0.0049-0.0281,0.0101-0.0551,0.0151-0.0829c-0.016,0.0465-0.0246,0.0734-0.0246,0.0734c0.4092-2.3035,0.9138-3.7883,1.4088-4.7496  c0.1046-0.2377,0.3611-0.7125,0.7693-1.2731l-0.0003-0.001c-0.0026,0.0027-0.0048,0.0054-0.0076,0.0081  c-0.0353-0.0919-0.0601-0.5676-0.0237-1.2041c0.0176-0.6901,0.111-1.2631,0.2047-1.718c0.0952-0.4093,0.1998-0.771,0.3236-1.0851  c0.0032-0.0096,0.0063,0.0033,0.0092,0.0255c0.0032-0.0083,0.0063-0.0176,0.0095-0.0255c0.0096,0,0.0096,0,0.0096,0  c0.0049,0,0.0073,0.0052,0.0084,0.0128c0.0004-0.0011,0.0009-0.0022,0.0012-0.0034c0.0037-0.0186,0.006,0.014,0.0079,0.057  c0.0258-0.1151,0.067-0.1925,0.0969-0.3043c0.0476-0.1904,0.1999-0.3618,0.2475-0.4666c0.003-0.009,0.0021,0.0156-0.0001,0.0525  c0.0113-0.0187,0.0215-0.0366,0.0287-0.0525c0.0018-0.0052,0.0022,0.001,0.0018,0.0146c0.0024-0.0048,0.0056-0.01,0.0077-0.0146  c0.0049-0.0146-0.0004,0.0598-0.0054,0.1313c0.0209-0.0559,0.0448-0.1206,0.0719-0.2074c0.2666-0.8567,0.6853-1.0946,0.6853-1.0946  c0.0003,0.0059,0.0009,0.0122,0.0013,0.0181c0.0169-0.012,0.0273-0.0181,0.0273-0.0181c0.0001,0.0018,0.0003,0.0039,0.0004,0.0056  c0.0053-0.0034,0.0091-0.0056,0.0091-0.0056c0.0283,0.5466,0.234,1.3169,0.4876,1.7756c0.0126-0.0369,0.0215-0.0981,0.0453-0.0624  c0.0007,0.0011,0.0013,0.0021,0.0021,0.0033c0.0051-0.0112,0.0109-0.017,0.0184-0.0118c0.0049-0.0037,0.0106-0.002,0.0176,0.0085  c0.4075,0.6562,0.9395,1.1659,1.2994,1.4586c0.681-0.2139,1.442-0.3245,2.2897-0.282c0.465,0.0208,0.983,0.0884,1.5468,0.229  c0.0029-0.0029,0.004-0.0063,0.004-0.0063c0.1428-0.1904,0.3046-0.3713,0.4663-0.5234c0.0096,0.0762,0.0096,0.1143,0.0096,0.1903  c0.1428-0.3331,0.7234-0.7805,0.9614-0.9042c-0.0095,0.0667-0.0095,0.1046-0.0095,0.1522c0.5044-0.3522,1.1041-0.6853,1.6085-0.7994  c0.0745-0.0094-0.2231,0.1356-0.3256,0.24c0.0141-0.0059,0.0258-0.0105,0.0363-0.0146c0.2156-0.1089,0.318-0.1646,0.7558-0.2539  c0.4568-0.0952,0.9994,0.0475,0.9042,0.1046c-0.0762,0.0381-0.4854,0.2379-0.5521,0.295c-0.0571,0.0476,0.2285-0.0286,0.1713,0.019  c-0.9614,0.79-1.5801,1.761-1.8846,2.8745c0.0029,0.0078,0.0068,0.017,0.0101,0.0251c0.0031-0.0115,0.0059-0.0232,0.009-0.0347  c0.1713,0.3903,0.6663,1.3135,1.7228,1.304c0.7267-0.0054,1.2645,0.0083,1.6626,0.0374c0.4734-0.0037,0.7399,0.0515,1.0407,0.1245  c0.3807,0.1428,0.2474,0.8091,0.1332,1.0946c-0.1143,0.276-0.2285,0.4664-0.4854,0.6664c0.0031-0.0081,0.0067-0.0186,0.0101-0.0282  c-0.0391,0.0463-0.0864,0.0992-0.1437,0.1614c-0.4473,0.4757-2.4354,1.3986-2.9407,2.0079l-0.0001,0.0005  c-0.0021,0.0186-0.0066,0.0203-0.014,0.0104c-0.0103,0.002-0.0201-0.0106-0.032-0.0343c-0.0004,0.0016-0.0014,0.0034-0.0018,0.0049  c0.0381,0.0857,0.0762,0.1619,0.1047,0.2476c-0.1047-0.0857-0.1904-0.0476-0.1238,0.0571c0.0762,0.1238,0.0667,0.1998,0.1238,0.533  c0.0666,0.4664-0.038,0.7329-0.0952,0.99c-0.1713-0.1047-0.3331-0.1809-0.4854-0.238c0,0,0,0-0.0096,0  c0.2856,0.1714,0.3903,0.3523,0.4188,0.4188c0.0667,0.1428,0,0.1903,0,0.1903s-0.0952-0.1522-0.3903-0.2949  c-0.2094-0.1143-0.6376-0.2666-0.828-0.3333c-0.019,0.0095-0.0287,0.0095-0.0476,0.019c0.0665,0.0857,0.1713,0.2476,0.1713,0.2476  s-0.1428-0.0762-0.3712-0.1619c-0.0193,0.0107-0.0377,0.0226-0.0563,0.0344c-0.1577,0.1125-0.3973,0.3928-0.4862,0.708  c-0.1141,0.3997-0.3235,1.1802,0.5901,1.9893c0.0037,0.0033,0.0069,0.0067,0.0106,0.01c0.2016,0.1785,0.4587,0.3657,0.789,0.5613  c0.0286,0.0188-0.2476-0.0476-0.2189-0.0288c0.1523,0.1047,0.7424,0.3713,1.066,0.4951c0.1142,0.0665-0.3427-0.0571-0.238,0  c0.1048,0.0571,0.2094,0.1047,0.3142,0.1428c1.6943,0.6663,2.7128-0.2952,3.9215-0.5999c1.5706-0.3901,2.7318,0.3427,3.2077,0.8948  c0.4759,0.552,0.0666,1.1611-0.5425,1.0281c-0.064-0.0151-0.1292-0.0204-0.1954-0.02c-0.5511,0.0542-1.538,0.7521-2.2413,1.2383  c-0.1451,0.0996-0.304,0.1913-0.4744,0.2749c-1.1699,0.5846-2.8948,0.7925-4.5323,0.3914c0.4568,0.4282,1.2469,1.2849,1.8561,1.4753  c0.6948,0.219,1.6752,0.1333,2.075,0.571c-0.3998-0.2379-0.9328-0.114-1.285-0.0762c2.4272,1.2185,4.2452,0.8853,4.6735,0.8187  c1.047-0.162,1.5135-0.5045,1.6943-0.6378c-0.0381,0.2572-0.2093,0.5142-0.4093,0.5808c0.2189,0.1523,0.6473-0.3904,1.1136-0.8757  c0.1237-0.1334,0.257-0.2476,0.3712-0.3428c0.019-0.0094-0.219,0.3142-0.2,0.2952c0.1334-0.1047,0.2379-0.2094,0.3141-0.3237  c0.2-0.2759,0.5046-0.3806,0.5046-0.3806c0.0571,0.1427,0.0286,0.3523,0.0095,0.5615c0,0,0.0045,0.0032,0.0117,0.0077  c0.0024-0.0089,0.0052-0.0177,0.0074-0.0267c0.084,0.0613,0.1991,0.0791,0.3387,0.0388c0.383-0.1328,0.985-0.6948,1.5743-1.99  c0.9518-2.0941,1.009-3.5601,1.009-3.5601c0.0042,0.0096,0.0094,0.0212,0.0139,0.0312c0.0035-0.0322,0.0052-0.0503,0.0052-0.0503  s0.2299,0.4139,0.4041,1.157c0.1547-0.5935,0.3315-1.1635,0.4089-2.1458c0.0159-0.2123,0.0266-0.4246,0.0333-0.6361  c0.027-0.9435-0.0273-2.2151-0.2277-4.048c0.0074,0.0063,0.0151,0.0146,0.0226,0.0215c-0.0012-0.0134-0.0024-0.0271-0.0035-0.0405  c0,0,0.8624,0.6624,1.5002,2.2607c0.1965-4.6993-2.1633-7.8027-3.5753-8.8571c0.9614,0.0762,2.3702,0.9518,3.1982,1.799  c-0.7233-1.542-1.875-3.2743-4.9685-5.3113c1.8919,0.5205,3.4797,1.3815,4.7985,2.4326c-0.1038-0.8331-0.1725-1.2236-0.1725-1.2236  s0.0108,0.0068,0.0305,0.02c0.1748,0.0891,1.4346,0.7639,2.2748,2.1003c-0.0617-0.3386-0.097-0.5309-0.097-0.5309  s0.0177,0.015,0.0475,0.0419c-0.0097-0.0107-0.0186-0.0216-0.0284-0.0323l0.0027,0.0023c-0.0009-0.0007-0.0018-0.0017-0.0026-0.0023  c0.4053,0.2797,0.9201,0.8632,1.3881,1.6266c0.3611,0.5496,0.7318,1.2378,1.0294,2.0667c0.6275,1.7368,0.7632,3.6155,0.5691,5.4185  c0.3581-1.2085,0.6305-2.0305,0.6479-2.083c-0.0028-0.0109-0.0053-0.0217-0.0081-0.0327c0.0034,0.0096,0.006,0.0193,0.0094,0.0289  l0.0001-0.0001l-0.0001-0.0002l0.0001,0.0002l0.0001-0.0002c0,0,0.0258,0.0698,0.0637,0.1958  c0.0133,0.042,0.028,0.0835,0.0406,0.1255c0.9951,3.2969-0.1987,7.0525-1.2296,9.0017  C43.5781,34.8369,43.595,35.3896,43.4155,36.009z"/></svg>