<?xml version="1.0" ?><svg height="24" width="24" id="Layer_1" style="enable-background:new 0 0 56.6934 56.6934;" version="1.1" viewBox="0 0 56.6934 56.6934"  xml:space="preserve" xmlns="http://www.w3.org/2000/svg" xmlns:xlink="http://www.w3.org/1999/xlink"><path d="M28.5557,4.0693c-13.5996,0-24.625,11.0234-24.625,24.623s11.0254,24.625,24.625,24.625  c13.5986,0,24.624-11.0254,24.624-24.625S42.1543,4.0693,28.5557,4.0693z M27.6929,45.1398  c-8.7936-0.4125-15.6818-7.6365-15.6818-16.4459c0-9.0793,7.3849-16.4656,16.462-16.4656h0.0621  c2.7881,0.0112,5.5007,0.7261,7.9021,2.0542c-4.9557-1.4707-10.3372,0.2881-13.7534,4.7228  c-1.967,2.3256-3.1406,5.7084-3.2198,9.2906c0,3.7142,0.8867,7.33,3.2139,10.0708c0.0005,0.0007,0.0011,0.0012,0.0016,0.002  L22.678,38.37c3.3799,4.3887,8.7156,6.2318,13.7607,4.7367C33.7934,44.5688,30.7765,45.2864,27.6929,45.1398z M39.4902,40.9404  l-0.0016-0.0021c-3.8568,2.5609-8.742,2.7018-12.7844,0.1887c5.7883,1.7367,11.1454-4.4227,11.1454-12.4332  c0-8.0284-5.3705-14.1724-11.1543-12.4325c0.014-0.0087,0.0278-0.0175,0.0419-0.0261c4.043-2.4938,8.8947-2.3322,12.7325,0.2059  c3.4754,3.1193,5.4688,7.5825,5.4688,12.2527C44.9385,33.3706,42.9382,37.8455,39.4902,40.9404z"/></svg>