<?xml version="1.0" ?><svg enable-background="new 0 0 515.91 728.5" height="24" width="24" id="Layer_1" version="1.1" viewBox="0 0 512.00003 512"  xml:space="preserve" xmlns="http://www.w3.org/2000/svg" xmlns:cc="http://creativecommons.org/ns#" xmlns:dc="http://purl.org/dc/elements/1.1/" xmlns:inkscape="http://www.inkscape.org/namespaces/inkscape" xmlns:rdf="http://www.w3.org/1999/02/22-rdf-syntax-ns#" xmlns:sodipodi="http://sodipodi.sourceforge.net/DTD/sodipodi-0.dtd" xmlns:svg="http://www.w3.org/2000/svg"><defs id="defs7"/><g id="g4509" transform="translate(136.1786,108.25001)"><path d="m -733.62329,72.267944 c 0,203.804876 -165.21649,369.021366 -369.02141,369.021366 -203.8048,0 -369.0213,-165.21649 -369.0213,-369.021366 0,-203.804874 165.2165,-369.021364 369.0213,-369.021364 203.80492,0 369.02141,165.21649 369.02141,369.021364 z" id="path5024" style="fill:#000000;fill-opacity:1;fill-rule:nonzero;stroke:none" transform="matrix(0.69372682,0,0,0.69372682,884.75558,97.615782)"/><path d="m 218.27843,12.467972 c -23.6421,0.1281 -47.1416,6.4339 -72.1755,13.767 -43.59251,12.763 -82.368111,19.6712 -125.927111,2.2746 4.7455,8.2999 7.1276,12.4411 11.8756,20.7344 4.359,7.6292 8.7241,15.26341 13.0847,22.88941 4.7472,8.2983 7.1157,12.4377 11.8637,20.7344 34.6817,9.594998 63.407511,-2.8394 94.226811,-17.9212 37.0089,-18.10011 70.4383,-34.38321 112.7226,-24.94831 -35.7341,-17.5159 -68.1274,-13.1789 -105.4918,-3.2563 36.5814,-18.2291 71.0187,-32.4137 112.4592,-22.6977 -18.0528,-8.4812 -35.3859,-11.6698 -52.6382,-11.5763 z m -203.405911,16.6761 c -0.5022,8e-4 -1.1096,0.1486 -1.8316,0.5387 -2.4016,1.304 -1.1493,3.7112 -1.1493,3.7112 l 45.1321,93.412708 10.942,0 -51.0102,-96.357708 c 0,0 -0.5765,-1.3074 -2.083,-1.3049 z M 192.64763,118.69008 c -15.94,0 -25.499,8.4061 -25.499,20.5669 0.1076,10.6588 8.6766,17.1063 16.5923,20.9858 6.5978,3.2284 14.9523,8.4015 14.9523,17.1191 0,5.3797 -3.7419,10.87 -11.8756,10.87 -9.3465,0 -16.7049,-9.9077 -18.9028,-16.9036 -0.879,-1.1839 -3.4101,-1.074 -4.1781,0.3232 0,7.3203 1.4312,15.0745 3.5196,17.4424 2.3073,1.2893 8.5754,4.0822 18.6874,4.0822 16.5996,0 27.7018,-8.6078 27.7018,-21.8478 0,-11.8395 -8.6882,-18.0812 -15.503,-21.6323 l -7.2546,-3.7709 c -5.4976,-2.7994 -9.9961,-7.3176 -9.9961,-12.2707 0,-5.3781 3.9512,-10.0082 11.2052,-10.0082 7.9149,0 12.6514,7.8548 14.5212,13.3482 0.9884,1.072 3.7349,0.9653 4.2858,-0.3233 0,-7.2124 -1.1116,-13.0273 -1.9872,-15.3952 -1.3206,-0.2165 -2.3069,-0.4201 -3.7351,-0.85 -4.3999,-1.2934 -8.9072,-1.7358 -12.5341,-1.7358 z m -64.9807,1.4007 c -10.99591,0 -19.02281,0.4328 -27.37851,0.9697 -1.650301,0.1078 -1.432101,3.3402 -0.443001,3.8786 l 2.968901,0.431 c 4.6169,0.5418 4.8365,1.7259 4.8365,12.5939 l 0,37.9973 c 0,9.6873 -0.6568,10.4412 -5.6027,11.4087 l -3.184301,0.6464 c -0.8782,0.3228 -0.8782,3.1144 0,3.759 6.264701,-0.2132 11.646201,-0.3232 17.035301,-0.3232 3.1895,0 7.36831,0.431 11.32491,0.431 6.7071,0 14.9546,-0.3145 21.8837,-2.6816 6.9241,-2.3704 12.9683,-8.1849 12.8573,-18.0888 -0.111,-10.4391 -7.4768,-16.0302 -16.1614,-17.8612 -0.99,-0.2191 -1.5443,-0.5401 -1.5443,-0.862 0,-0.5377 1.1017,-0.9744 2.2028,-1.1852 3.4073,-0.8636 11.2171,-4.4124 11.2171,-13.4558 0,-6.3463 -2.8619,-10.8737 -7.5898,-13.6714 -4.834,-2.7993 -11.8706,-3.9864 -22.4225,-3.9864 z m 116.7331,0 c -11.6554,0 -20.2389,0.4328 -29.4735,0.9697 -1.319,0.1078 -1.3133,3.2324 -0.2156,3.7709 l 2.083,0.2155 c 5.0577,0.5385 5.2795,2.5852 5.2795,12.8094 l 0,38.105 c 0,9.9047 -0.656,10.6569 -5.6026,11.5164 l -3.4119,0.5387 c -0.879,0.5376 -0.879,3.1144 0,3.759 6.2638,-0.2132 11.8761,-0.3232 17.155,-0.3232 3.955,0 9.4526,0.6465 14.6171,0.6465 11.3231,0 20.3464,-1.3898 27.8215,-5.052 12.6412,-6.1329 19.66891,-17.7654 19.66891,-32.1911 0,-13.4516 -7.91121,-26.1516 -22.31461,-31.2094 -7.5877,-2.6865 -16.5926,-3.5554 -25.6068,-3.5554 z m -296.14832,0.012 c -1.0984,0.3211 -1.2005,2.8978 -0.431,3.759 l 3.0767,0.4309 c 3.8481,0.7518 5.4906,1.833 6.261,3.6633 0.769601,1.5075 0.778201,3.2288 0.778201,9.1461 l 0,27.3427 c 0,8.7183 -0.445001,16.7841 -1.544401,19.6929 -0.9891,2.2585 -3.0772,2.9092 -6.0455,3.5555 l -1.8675,0.3233 c -0.8798,0.8628 -0.6603,3.1192 0,3.7589 4.177,-0.2098 8.239,-0.3232 12.306601,-0.3232 4.397308,0 8.800108,0.1134 14.736708,0.3232 0.6595,-0.6396 0.8781,-2.8961 0,-3.7589 l -3.0766,-0.431 c -2.8581,-0.5352 -5.3909,-1.1893 -6.3808,-3.4478 -1.2103,-2.9088 -1.652,-10.9746 -1.652,-19.6929 l 0,-20.8901 c 0,-3.9833 0,-5.8091 0.5507,-6.8836 1.9791,1.6154 5.7187,6.0291 11.9833,13.7791 l 25.4032997,30.7785 c 5.1661,6.2449 8.7958003,11.7439 8.9067003,11.7439 2.6378,0 5.7087,-1.192 6.4765,-2.4781 -0.2194,-3.5559 -0.2154,-10.337 -0.2154,-17.3345 l 0,-25.7266 c 0,-8.72 0.445,-16.7882 1.652,-19.6929 0.9908,-2.2625 3.0806,-2.9076 5.9378,-3.5555 l 1.9753,-0.3232 c 0.878,-0.8629 0.6602,-3.1135 0,-3.759 -4.2881,0.214 -8.2526,0.3231 -12.3186,0.3231 -4.5076,0 -8.7865003,-0.1132 -14.72470032,-0.3231 -0.6586,0.6446 -0.8782,2.8978 0,3.759 l 2.96890002,0.4309 c 2.9682,0.5385 5.3788,1.191 6.3688,3.4478 1.2112003,2.9105 1.6520003,10.9763 1.6520003,19.6929 l 0,14.8565 c 0,1.9333 0.01,3.7699 -0.431,4.8485 -2.5302003,-2.479 -5.6105003,-6.2427 -10.55870032,-11.8398 l -9.24199998,-10.6545 c -9.8932997,-11.5193 -17.0355997,-19.6985 -18.1365997,-24.5413 -2.3089,0.214 -5.493,0.3231 -9.230008,0.3231 -4.5093,0 -10.011901,-0.1132 -15.179701,-0.3231 z m 179.84622,4.9442 c 7.5861,0 13.5277,4.6307 13.5277,13.9945 0,6.459 -3.5227,12.3784 -12.977,12.3784 -5.7163,0 -5.8181,-0.2158 -5.8181,-3.0168 l 0,-17.7535 c 0,-4.7343 0.102,-5.6026 5.2674,-5.6026 z m 116.1824,0 c 19.9001,0 30.3475,11.5115 30.3475,30.8862 0,14.6413 -6.4933,31.2214 -25.5111,31.2214 -3.9583,0 -7.1397,-0.9708 -9.1222,-3.1246 -1.9767,-2.2617 -2.2027,-6.1321 -2.2027,-12.0552 l 0,-39.2901 c 0,-3.3346 0.1179,-5.3783 0.7781,-6.2371 0.6586,-0.8645 2.7471,-1.4006 5.7104,-1.4006 z m -164.642611,12.3424 c -0.4896,0 -0.957,0.091 -1.245,0.2514 -3.4074,4.7432 -6.1503,6.994 -8.1286,8.392 -2.6394,1.72 -5.7148,3.6686 -9.1222,4.8484 -0.879,0.7558 -0.5519,2.9012 0.6584,3.34 l 3.3999,0 c 1.9792,0 2.095,0.2148 2.095,2.4781 l 0,23.9907 c 0,7.1077 3.1805,12.2826 12.3066,12.2826 6.8156,0 12.7605,-3.0216 15.8381,-6.249 0.2213,-1.2927 -0.4474,-2.4811 -1.5442,-2.8013 -1.3215,0.8603 -3.0698,1.6161 -4.609,1.6161 -7.6954,0 -7.6977,-6.6708 -7.6977,-12.7017 l 0,-16.1374 c 0,-2.3711 0.1041,-2.4781 1.5324,-2.4781 l 9.9003,0 c 1.0994,-0.6512 1.4246,-2.5871 1.4246,-3.771 0,-0.9674 -0.3246,-1.6181 -0.8739,-2.0471 l -9.7925,0 c -1.9784,0 -2.0832,-0.1113 -2.0832,-2.1548 l 0,-8.0687 c -0.3437,-0.5363 -1.2428,-0.7868 -2.059,-0.7902 z m -35.7825,9.5053 c -13.7415,0 -23.7392,10.5485 -23.7392,24.1104 0,11.7317 8.0236,21.9675 22.8653,21.9675 6.597,0 14.7297,-3.132 19.238,-12.2826 0,-1.8262 -1.6516,-2.6803 -2.8611,-2.4662 -2.9675,4.9533 -7.1442,5.5907 -10.2236,5.5907 -10.223,0 -15.5029,-7.8595 -15.5029,-15.934 0,-1.7223 0.225,-1.9273 2.7534,-1.9273 l 21.1056,0 c 3.4065,0 3.9505,-1.5112 3.9505,-3.5555 0,-8.291 -6.1534,-15.503 -17.586,-15.503 z m -0.7661,4.9562 c 3.7379,0 5.8181,2.3723 5.8181,5.9258 0,1.0679 -0.217,2.1368 -0.7662,2.4661 -1.2121,0.7493 -2.9595,0.9697 -4.5012,0.9697 l -4.0703,0 c -3.5193,0 -5.052,-0.1061 -5.052,-1.6161 0,-3.4424 3.953,-7.7455 8.5716,-7.7455 z m 85.786911,4.2977 c 10.5519,0 16.0537,6.5694 16.0537,15.9339 0,8.7199 -4.291,14.8565 -12.4264,14.8565 -8.5768,0 -9.6728,-5.2749 -9.6728,-13.6713 l 0,-12.7017 c 0,-4.3084 0,-4.4174 6.0455,-4.4174 z m -32.657911,51.8002 34.298011,70.99041 c 0,0 3.4534,6.6741 10.8701,2.9809 7.4141,-3.6932 3.6871,-9.4694 3.6871,-9.4694 l -0.012,0 -34.14251,-64.50191 -14.700801,0 z" id="path10-7" style="fill:#ffffff;fill-opacity:1;stroke:none"/></g></svg>