<?xml version="1.0" encoding="UTF-8" standalone="no"?>
<svg
   width="22"
   height="22"
   viewBox="0 0 252.800003 252.800003"
   version="1.1"
   id="svg9"
   sodipodi:docname="Riscos_logo_generic_cogwheel_richard_hallas_lg_cogwheel_x1_gray.svg"
   inkscape:version="1.2.2 (732a01da63, 2022-12-09)"
   xmlns:inkscape="http://www.inkscape.org/namespaces/inkscape"
   xmlns:sodipodi="http://sodipodi.sourceforge.net/DTD/sodipodi-0.dtd"
   xmlns="http://www.w3.org/2000/svg"
   xmlns:svg="http://www.w3.org/2000/svg">
  <defs
     id="defs13" />
  <sodipodi:namedview
     id="namedview11"
     pagecolor="#ffffff"
     bordercolor="#666666"
     borderopacity="1.0"
     inkscape:showpageshadow="2"
     inkscape:pageopacity="0.0"
     inkscape:pagecheckerboard="0"
     inkscape:deskcolor="#d1d1d1"
     inkscape:document-units="pt"
     showgrid="false"
     inkscape:zoom="2.4594541"
     inkscape:cx="168.33004"
     inkscape:cy="168.93993"
     inkscape:window-width="1920"
     inkscape:window-height="1010"
     inkscape:window-x="-6"
     inkscape:window-y="468"
     inkscape:window-maximized="1"
     inkscape:current-layer="svg9" />
  <g
     id="surface1"
     style="fill:#000000">
    <path
       style="stroke:none;fill-rule:nonzero;fill:#000000;fill-opacity:1"
       d="M 126.414062 183.738281 L 166.976562 166.945312 L 183.777344 126.363281 L 166.976562 85.796875 L 126.414062 69 L 85.847656 85.796875 L 69.050781 126.363281 L 85.847656 166.945312 Z M 126.398438 249.328125 C 122.164062 249.328125 117.972656 249.113281 113.835938 248.695312 L 112.664062 248.550781 L 104.730469 205.441406 L 102.027344 204.660156 C 96.894531 203.070312 91.980469 200.988281 87.339844 198.457031 L 85.835938 197.605469 L 49.738281 222.46875 L 48.207031 221.253906 C 42.132812 216.253906 36.550781 210.675781 31.539062 204.601562 L 30.308594 203.039062 L 55.175781 166.925781 L 54.332031 165.46875 C 51.820312 160.828125 49.722656 155.910156 48.132812 150.765625 L 47.351562 148.046875 L 4.242188 140.097656 L 4.097656 138.96875 C 3.679688 134.835938 3.460938 130.640625 3.460938 126.40625 C 3.460938 122.15625 3.679688 117.964844 4.097656 113.828125 L 4.257812 112.628906 L 47.382812 104.679688 L 48.132812 102.035156 C 49.722656 96.902344 51.820312 91.988281 54.332031 87.332031 L 55.199219 85.828125 L 30.335938 49.730469 L 31.539062 48.210938 C 36.550781 42.140625 42.132812 36.546875 48.207031 31.542969 L 49.78125 30.285156 L 85.894531 55.164062 L 87.339844 54.339844 C 91.980469 51.8125 96.894531 49.730469 102.027344 48.125 L 104.730469 47.359375 L 112.679688 4.25 L 113.820312 4.105469 C 117.957031 3.683594 122.148438 3.46875 126.398438 3.46875 C 130.636719 3.46875 134.828125 3.683594 138.960938 4.105469 L 140.160156 4.25 L 148.113281 47.371094 L 150.773438 48.125 C 155.90625 49.714844 160.820312 51.8125 165.460938 54.328125 L 166.921875 55.179688 L 203.035156 30.3125 L 204.59375 31.53125 C 210.667969 36.546875 216.246094 42.125 221.261719 48.199219 L 222.476562 49.757812 L 197.613281 85.855469 L 198.464844 87.332031 C 200.980469 91.972656 203.078125 96.886719 204.667969 102.019531 L 205.417969 104.679688 L 248.542969 112.628906 L 248.699219 113.816406 C 249.121094 117.949219 249.324219 122.140625 249.324219 126.394531 C 249.324219 130.628906 249.121094 134.820312 248.699219 138.953125 L 248.542969 140.125 L 205.433594 148.0625 L 204.667969 150.765625 C 203.078125 155.898438 200.992188 160.8125 198.464844 165.453125 L 197.625 166.914062 L 222.492188 203.027344 L 221.261719 204.585938 C 216.261719 210.660156 210.667969 216.238281 204.609375 221.253906 L 203.0625 222.46875 L 166.964844 197.605469 L 165.476562 198.457031 C 160.820312 200.972656 155.90625 203.070312 150.773438 204.660156 L 148.097656 205.425781 L 140.148438 248.550781 L 138.976562 248.695312 C 134.84375 249.113281 130.648438 249.328125 126.398438 249.328125 Z M 126.398438 249.328125 "
       id="path2" />
    <path
       style="stroke:none;fill-rule:nonzero;fill:#000000;fill-opacity:1"
       d="M 245.476562 114.667969 L 202.542969 106.558594 L 208.019531 101.859375 L 251.519531 110.085938 Z M 164.652344 88.15625 L 180.480469 126.40625 L 164.652344 164.644531 L 126.398438 180.488281 L 88.148438 164.644531 L 83.507812 169.285156 L 126.398438 187.039062 L 169.277344 169.285156 L 187.042969 126.40625 L 169.277344 83.515625 Z M 226.410156 49.457031 L 218.894531 50.496094 L 218.734375 50.28125 C 213.859375 44.378906 208.425781 38.945312 202.511719 34.058594 L 202.3125 33.898438 L 166.199219 58.535156 L 163.898438 57.21875 C 159.449219 54.789062 154.71875 52.78125 149.792969 51.246094 L 146.234375 50.25 L 150.933594 44.769531 L 151.742188 44.988281 C 155.746094 46.246094 159.621094 47.777344 163.351562 49.570312 L 166.777344 51.320312 L 203.335938 26.382812 L 206.675781 29 C 212.921875 34.144531 218.648438 39.886719 223.792969 46.113281 Z M 142.707031 1.273438 L 138.125 7.316406 L 132.558594 6.894531 C 130.519531 6.792969 128.46875 6.738281 126.398438 6.738281 C 124.332031 6.738281 122.277344 6.792969 120.242188 6.894531 L 114.675781 7.316406 L 106.550781 50.25 L 102.996094 51.246094 C 98.082031 52.78125 93.351562 54.789062 88.898438 57.21875 L 88.882812 57.21875 L 88.898438 57.21875 L 86.601562 58.535156 L 50.488281 33.898438 L 50.285156 34.058594 C 44.375 38.945312 38.9375 44.378906 34.066406 50.28125 L 33.90625 50.480469 L 58.542969 86.59375 L 57.210938 88.890625 C 54.796875 93.34375 52.789062 98.070312 51.253906 103 L 50.242188 106.558594 L 7.324219 114.667969 L 6.902344 120.234375 C 6.789062 122.273438 6.746094 124.324219 6.746094 126.394531 C 6.746094 128.460938 6.789062 130.511719 6.902344 132.550781 L 7.324219 138.128906 L 1.265625 142.714844 L 0.832031 139.300781 C 0.410156 135.050781 0.179688 130.757812 0.179688 126.394531 C 0.179688 122.039062 0.410156 117.734375 0.832031 113.496094 L 1.265625 110.085938 L 44.765625 101.859375 L 44.996094 101.050781 C 46.238281 97.046875 47.773438 93.171875 49.5625 89.441406 L 51.3125 86.015625 L 26.375 49.457031 L 29.007812 46.113281 C 34.152344 39.886719 39.878906 34.144531 46.109375 29 L 49.449219 26.382812 L 86.023438 51.320312 L 89.449219 49.570312 L 89.4375 49.570312 L 89.449219 49.570312 C 93.164062 47.777344 97.050781 46.246094 101.058594 44.988281 L 101.867188 44.769531 L 110.078125 1.273438 L 113.488281 0.839844 C 117.742188 0.40625 122.035156 0.1875 126.398438 0.1875 C 130.75 0.1875 135.058594 0.40625 139.308594 0.839844 Z M 50.242188 146.242188 L 51.253906 149.796875 C 52.789062 154.726562 54.796875 159.441406 57.210938 163.890625 L 57.210938 163.90625 L 57.210938 163.890625 L 58.527344 166.203125 L 33.90625 202.304688 L 26.375 203.34375 L 51.3125 166.769531 L 49.5625 163.355469 C 47.773438 159.628906 46.238281 155.753906 44.996094 151.75 L 44.765625 150.941406 Z M 106.566406 202.550781 L 114.675781 245.46875 L 110.078125 251.527344 L 101.867188 208.027344 Z M 106.566406 202.550781 "
       id="path4" />
    <path
       style="stroke:none;fill-rule:nonzero;fill:#000000;fill-opacity:1"
       d="M 202.542969 106.558594 L 208.019531 101.859375 L 207.804688 101.050781 C 206.558594 97.046875 205.027344 93.171875 203.222656 89.441406 L 201.472656 86.03125 L 226.410156 49.457031 L 218.894531 50.496094 L 194.257812 86.609375 L 195.589844 88.890625 C 198.003906 93.34375 200.011719 98.070312 201.546875 103 Z M 88.148438 164.644531 L 72.304688 126.394531 L 88.148438 88.140625 L 126.398438 72.308594 L 164.652344 88.15625 L 169.277344 83.515625 L 126.398438 65.75 L 83.507812 83.515625 L 65.753906 126.394531 L 83.507812 169.285156 Z M 7.324219 138.128906 L 50.242188 146.242188 L 44.765625 150.941406 L 1.265625 142.714844 Z M 33.90625 202.304688 L 34.066406 202.507812 C 38.9375 208.417969 44.375 213.855469 50.285156 218.726562 L 50.488281 218.886719 L 86.585938 194.265625 L 88.898438 195.582031 C 93.351562 198.007812 98.082031 200.003906 102.996094 201.539062 L 106.566406 202.550781 L 101.867188 208.027344 L 101.058594 207.796875 L 101.042969 207.796875 L 101.058594 207.796875 C 97.050781 206.554688 93.164062 205.019531 89.449219 203.230469 L 86.023438 201.480469 L 49.449219 226.414062 L 46.109375 223.785156 C 39.878906 218.640625 34.152344 212.914062 29.007812 206.683594 L 26.375 203.34375 Z M 114.675781 245.46875 L 120.242188 245.902344 C 122.277344 246.003906 124.332031 246.046875 126.398438 246.046875 C 128.46875 246.046875 130.519531 246.003906 132.558594 245.902344 L 138.125 245.46875 L 146.234375 202.550781 L 149.792969 201.539062 C 154.71875 200.003906 159.449219 198.007812 163.898438 195.582031 L 166.199219 194.265625 L 202.3125 218.886719 L 202.511719 218.726562 C 208.425781 213.855469 213.859375 208.417969 218.734375 202.507812 L 218.894531 202.304688 L 194.257812 166.203125 L 195.589844 163.890625 L 195.574219 163.90625 L 195.589844 163.890625 C 198.003906 159.441406 200.011719 154.726562 201.546875 149.796875 L 202.542969 146.242188 L 245.476562 138.128906 L 245.898438 132.550781 C 246 130.511719 246.054688 128.460938 246.054688 126.394531 C 246.054688 124.324219 246 122.273438 245.898438 120.234375 L 245.476562 114.667969 L 251.519531 110.085938 L 251.96875 113.496094 C 252.386719 117.734375 252.621094 122.039062 252.621094 126.394531 C 252.621094 130.757812 252.386719 135.050781 251.96875 139.300781 L 251.519531 142.714844 L 208.035156 150.941406 L 207.804688 151.75 C 206.558594 155.753906 205.027344 159.628906 203.222656 163.355469 L 201.472656 166.769531 L 226.410156 203.34375 L 223.792969 206.683594 C 218.648438 212.914062 212.921875 218.640625 206.675781 223.785156 L 203.335938 226.414062 L 166.777344 201.480469 L 163.351562 203.230469 C 159.621094 205.019531 155.746094 206.554688 151.742188 207.796875 L 150.933594 208.027344 L 142.707031 251.527344 L 139.308594 251.960938 C 135.058594 252.394531 130.75 252.613281 126.398438 252.613281 C 122.035156 252.613281 117.742188 252.394531 113.488281 251.960938 L 110.078125 251.527344 Z M 150.933594 44.769531 L 142.707031 1.273438 L 138.125 7.316406 L 146.234375 50.25 Z M 150.933594 44.769531 "
       id="path6" />
  </g>
</svg>
