<?xml version="1.0" ?><svg enable-background="new -822 823.1 56.7 56.7" height="24" width="24" id="Layer_1" version="1.1" viewBox="-822 823.1 56.7 56.7"  xml:space="preserve" xmlns="http://www.w3.org/2000/svg" xmlns:xlink="http://www.w3.org/1999/xlink"><g><path d="M-795.2,846.5L-795.2,846.5c-0.7-0.1-1.5-0.2-2.2,0c-1.7,0.5-2.9,2-3.4,4.2c-0.3,1.6-0.2,3.4,0.2,4.8   c0.7,2.2,2.3,3.5,4.3,3.4c1.9,0,3.5-1.2,4.3-3.4c0.5-1.4,0.6-3.2,0.2-4.8C-792.3,848.5-793.6,846.9-795.2,846.5z"/><path d="M-793.7,828.3c-13.6,0-24.6,11-24.6,24.6c0,13.6,11,24.6,24.6,24.6c13.6,0,24.6-11,24.6-24.6   C-769,839.3-780.1,828.3-793.7,828.3z M-806,861.4h-3.2V849h3.2V861.4z M-807.6,847.3c-0.9,0-1.7-0.8-1.7-1.7   c0-0.9,0.8-1.7,1.7-1.7s1.7,0.8,1.7,1.7C-805.9,846.5-806.7,847.3-807.6,847.3z M-792.8,860.7c-0.8,0.4-1.5,0.6-2.7,0.7   c-0.6,0.1-1.1,0-1.7,0c-1.2-0.1-1.9-0.3-2.7-0.7c-2.8-1.3-4.4-4.2-4.4-7.9c0-3.7,1.6-6.7,4.4-8.1c1.1-0.5,2.2-0.8,3.5-0.8   c1.3,0,2.4,0.3,3.5,0.8c2.8,1.4,4.4,4.4,4.4,8.1C-788.4,856.5-790,859.4-792.8,860.7z M-777,858.4c-0.8,1.7-2.5,2.8-4.9,3   c-0.5,0.1-1.6,0.1-1.9,0h0c-1.4-0.2-2.7-0.4-3.8-1c0,0,0.7-2.5,0.7-2.5c1.8,0.6,4.3,1.4,6,0.7c0.9-0.5,1.4-1.3,1.2-2.3   c-0.2-1.1-0.9-1.7-3-2.5c-2.3-0.9-3.7-1.9-4.3-3.3c-0.3-0.7-0.4-1.6-0.2-2.3c0.3-2.1,2-3.6,4.5-4.1c0.7-0.1,2.3-0.1,3.1,0   c1.1,0.2,2.4,0.6,2.4,0.8c0,0.1-0.7,2.4-0.7,2.4c-1.1-0.4-2.3-0.7-3.4-0.8c-1.5,0-3.1,0.9-2.8,2.4c0.2,1,0.8,1.4,3.1,2.4   c1.7,0.7,2.5,1.2,3.2,1.9c1,1,1.3,2.1,1.3,3.2C-776.5,857.2-776.6,857.6-777,858.4z"/></g></svg>