<?xml version="1.0" ?><svg enable-background="new 0 0 32 32" version="1.1" height="22" width="22" viewBox="0 0 32 32" xml:space="preserve" xmlns="http://www.w3.org/2000/svg" xmlns:xlink="http://www.w3.org/1999/xlink"><g id="OUTLINE_copy_2"><g><g><circle cx="14.26" cy="9.613" r="0.58"/></g><g><path d="M16,0C7.164,0,0,7.163,0,16s7.164,16,16,16s16-7.164,16-16S24.836,0,16,0z M10.78,17.734c0,0.64-0.52,1.16-1.16,1.16     c-0.64,0-1.16-0.52-1.16-1.16v-4.64c0-0.64,0.52-1.16,1.16-1.16c0.64,0,1.16,0.519,1.16,1.16V17.734z M20.64,21.214h-1.16v2.9     c0,0.64-0.52,1.16-1.16,1.16c-0.64,0-1.16-0.52-1.16-1.16v-2.9h-2.32v2.9c0,0.64-0.52,1.16-1.16,1.16     c-0.64,0-1.16-0.52-1.16-1.16v-2.9h-1.16v-8.701h9.281V21.214z M11.36,11.934c0-1.537,0.751-2.896,1.901-3.74l-0.596-1.032     c-0.079-0.139-0.032-0.316,0.106-0.396c0.14-0.08,0.316-0.032,0.397,0.106l0.581,1.007C14.416,7.506,15.183,7.293,16,7.293     c0.818,0,1.585,0.213,2.252,0.584l0.581-1.006c0.08-0.14,0.258-0.187,0.396-0.107c0.14,0.081,0.187,0.258,0.107,0.397     L18.74,8.193c1.15,0.844,1.901,2.203,1.901,3.74H11.36z M23.54,17.734c0,0.64-0.52,1.16-1.16,1.16c-0.64,0-1.16-0.52-1.16-1.16     v-4.64c0-0.64,0.52-1.16,1.16-1.16c0.64,0,1.16,0.519,1.16,1.16V17.734z"/></g><g><circle cx="17.74" cy="9.613" r="0.58"/></g></g></g></svg>