<?xml version="1.0" encoding="utf-8"?>
<svg xmlns="http://www.w3.org/2000/svg" fill="none" height="112" viewBox="0 0 112 112" width="112">
<g filter="url(#filter0_d_4097_6311)">
<rect fill="white" height="90" rx="21.7519" width="90" x="10.876" y="7.76854"/>
</g>
<path d="M71.6689 72.7834C71.6689 73.6288 71.1281 74.3888 70.3254 74.6479C64.339 76.5836 58.6629 76.8369 56.1408 76.8369C52.9327 76.8369 47.4901 76.5323 41.9876 74.8528C41.165 74.6023 40.6099 73.8366 40.6099 72.9769V67.4797H71.6689V72.7862V72.7834Z" fill="#4129A3"/>
<path d="M56.1453 83.8174C53.8132 83.8174 51.9226 81.9268 51.9226 79.5947C51.9226 77.2626 53.8132 75.3721 56.1453 75.3721C58.4774 75.3721 60.3679 77.2626 60.3679 79.5947C60.3679 81.9268 58.4774 83.8174 56.1453 83.8174Z" fill="#FFAC2E"/>
<path d="M56.1475 77.66C55.4215 77.66 54.8331 78.2485 54.833 78.9744C54.833 79.4809 55.1194 79.9199 55.5391 80.1395V81.0271C55.5391 81.3638 55.8119 81.6372 56.1484 81.6375C56.4852 81.6375 56.7588 81.3639 56.7588 81.0271V80.1375C57.1765 79.9173 57.4619 79.4794 57.4619 78.9744C57.4618 78.2486 56.8733 77.6601 56.1475 77.66Z" fill="#372580"/>
<path d="M78.8373 44.8929L64.1714 33.1188L73.2492 27.1656C75.0803 25.9842 77.5179 27.1398 77.7593 29.3043L78.8344 44.8929H78.8373Z" fill="#6D4AFF"/>
<path d="M32.9175 44.8929L47.5834 33.1188L38.5056 27.1656C36.6745 25.9842 34.2369 27.1398 33.9954 29.3043L32.9204 44.8929H32.9175Z" fill="#6D4AFF"/>
<path d="M39.693 33.8367L42.7199 35.7827L37.7843 39.0999L38.3822 34.4461C38.4627 33.8223 39.1641 33.4975 39.6901 33.8367H39.693Z" fill="#4A2DC5"/>
<path d="M72.0653 33.8367L69.0384 35.7827L73.974 39.0999L73.3761 34.4461C73.2956 33.8223 72.5942 33.4975 72.0682 33.8367H72.0653Z" fill="#4A2DC5"/>
<path d="M29.7752 55.6763C29.7752 67.6687 44.0069 71.9431 55.8786 71.9431C66.3131 71.9431 81.982 67.6687 81.982 55.6763C81.982 43.6838 70.2942 31.562 55.8786 31.562C41.4629 31.562 29.7752 43.6838 29.7752 55.6763Z" fill="#6D4AFF"/>
<path d="M59.2941 59.9835C58.3398 59.9835 57.5694 60.7568 57.5694 61.7082" stroke="white" stroke-linecap="round" stroke-miterlimit="10" stroke-width="0.718627"/>
<path d="M55.835 59.9832C56.7894 59.9832 57.5598 60.7564 57.5598 61.7079" stroke="white" stroke-linecap="round" stroke-miterlimit="10" stroke-width="0.718627"/>
<path d="M67.5997 46.3648C72.5986 44.5682 76.2291 47.4313 77.7095 48.9433C78.2183 49.4636 78.4827 50.1822 78.4224 50.9094C78.2556 52.9734 77.3042 57.3369 72.36 59.1939C67.3497 60.9933 63.7536 58.2395 62.2962 56.7879C61.7989 56.2934 61.5431 55.6064 61.5862 54.9079C61.7185 52.8153 62.5952 48.2447 67.5997 46.3648Z" fill="white"/>
<path d="M61.5456 54.8607C61.8733 52.8399 62.658 50.9513 63.9401 49.5198C66.4984 46.7057 70.8447 45.5558 74.3976 47.0276C75.2859 47.3955 76.1396 47.8928 76.9128 48.5109C77.7148 49.0944 78.3817 49.8648 78.4737 50.9054C78.6749 49.836 78.0713 48.8041 77.3383 48.0567C76.6225 47.2863 75.7774 46.6165 74.8231 46.1193C71.9313 44.5469 68.2519 44.9378 65.5211 46.6855C62.7673 48.3441 61.169 51.7533 61.5456 54.8607Z" fill="#372480"/>
<path d="M47.2251 46.3648C42.2263 44.5682 38.5958 47.4313 37.1154 48.9433C36.6066 49.4636 36.3421 50.1822 36.4025 50.9094C36.5692 52.9734 37.5207 57.3369 42.4649 59.1939C47.4752 60.9933 51.0713 58.2395 52.5287 56.7879C53.0259 56.2934 53.2818 55.6064 53.2387 54.9079C53.1064 52.8153 52.2297 48.2447 47.2251 46.3648Z" fill="white"/>
<path d="M53.2825 54.8604C53.6591 51.7559 52.0608 48.3438 49.307 46.6852C46.5791 44.9375 42.8968 44.5466 40.005 46.1189C39.0507 46.6162 38.2056 47.286 37.4898 48.0564C36.7568 48.8009 36.1532 49.8357 36.3544 50.9051C36.4464 49.8645 37.1104 49.097 37.9152 48.5106C38.6885 47.8954 39.5422 47.3952 40.4305 47.0273C43.9834 45.5555 48.3297 46.7054 50.888 49.5195C52.1701 50.951 52.9548 52.8396 53.2825 54.8604Z" fill="#372480"/>
<path d="M47.1383 57.8438C45.8333 57.8438 44.7754 55.8181 44.7754 53.3193C44.7754 50.8205 45.8333 48.7948 47.1383 48.7948C48.4433 48.7948 49.5012 50.8205 49.5012 53.3193C49.5012 55.8181 48.4433 57.8438 47.1383 57.8438Z" fill="#4129A3"/>
<path d="M45.3987 51.2445C44.805 51.2445 44.3237 50.7632 44.3237 50.1694C44.3237 49.5757 44.805 49.0944 45.3987 49.0944C45.9925 49.0944 46.4738 49.5757 46.4738 50.1694C46.4738 50.7632 45.9925 51.2445 45.3987 51.2445Z" fill="white" opacity="0.7"/>
<path d="M71.7047 57.8438C70.3997 57.8438 69.3418 55.8181 69.3418 53.3193C69.3418 50.8205 70.3997 48.7948 71.7047 48.7948C73.0097 48.7948 74.0676 50.8205 74.0676 53.3193C74.0676 55.8181 73.0097 57.8438 71.7047 57.8438Z" fill="#4129A3"/>
<path d="M69.9651 51.2445C69.3714 51.2445 68.8901 50.7632 68.8901 50.1694C68.8901 49.5757 69.3714 49.0944 69.9651 49.0944C70.5589 49.0944 71.0402 49.5757 71.0402 50.1694C71.0402 50.7632 70.5589 51.2445 69.9651 51.2445Z" fill="white" opacity="0.7"/>
<defs>
<filter color-interpolation-filters="sRGB" filterUnits="userSpaceOnUse" height="111.752" id="filter0_d_4097_6311" width="111.752" x="2.95639e-05" y="5.96046e-06">
<feFlood flood-opacity="0" result="BackgroundImageFix"/>
<feColorMatrix in="SourceAlpha" result="hardAlpha" type="matrix" values="0 0 0 0 0 0 0 0 0 0 0 0 0 0 0 0 0 0 127 0"/>
<feOffset dy="3.10741"/>
<feGaussianBlur stdDeviation="5.43797"/>
<feComposite in2="hardAlpha" operator="out"/>
<feColorMatrix type="matrix" values="0 0 0 0 0 0 0 0 0 0 0 0 0 0 0 0 0 0 0.1 0"/>
<feBlend in2="BackgroundImageFix" mode="normal" result="effect1_dropShadow_4097_6311"/>
<feBlend in="SourceGraphic" in2="effect1_dropShadow_4097_6311" mode="normal" result="shape"/>
</filter>
</defs>
</svg>