<svg height="18" viewBox="0 0 136 18" width="136" xmlns="http://www.w3.org/2000/svg"><path d="m1.54980469 8.53613281h4.57080078v3.11083989h-4.57080078zm0 4.53710939h4.57080078v11.9267578h-4.57080078zm7.19072264 0h4.25634767v1.9428711c.6363964-.7936238 1.2802702-1.3607568 1.9316406-1.701416.6513705-.3406593 1.4449823-.5109864 2.3808594-.5109864 1.2653058 0 2.2554489.376217 2.970459 1.1286621.7150101.7524452 1.0725097 1.9147871 1.0725097 3.4870606v7.5805664h-4.5932617v-6.5585938c0-.7487016-.1385077-1.2784001-.4155273-1.5891113s-.6663387-.4660644-1.1679688-.4660644c-.5540392 0-1.0032535.2096333-1.3476562.6289062-.3444028.4192729-.5166016 1.1717068-.5166016 2.2573242v5.7275391h-4.57080077zm20.12822267 0h2.1787109v3.3466797h-2.1787109v8.5800781h-4.5820313v-8.5800781h-1.7070312v-3.3466797h1.7070312v-.5390625c0-.4866561.0524084-1.0219697.1572266-1.605957s.3013495-1.06127749.5895996-1.43188481.692543-.67008349 1.2128906-.8984375c.5203477-.22835401 1.2821402-.3425293 2.2854004-.3425293.8011108 0 1.9653244.09358631 3.4926758.28076172l-.5053711 2.76269529c-.5465522-.0898442-.9882796-.1347656-1.3251953-.1347656-.4117859 0-.7075186.0692539-.887207.2077637s-.3069658.3575017-.381836.6569824c-.0374351.1647144-.0561523.5128554-.0561523 1.0444336zm2.6086914 5.9970703c0-1.819345.6139261-3.3185976 1.8417968-4.4978027 1.2278708-1.1792051 2.8862201-1.7687989 4.9750977-1.7687989 2.3883583 0 4.1927022.6925387 5.4130859 2.0776368.9807992 1.1155654 1.4711914 2.4894124 1.4711914 4.121582 0 1.8343191-.6083109 3.3373151-1.8249511 4.5090332s-2.899322 1.7575683-5.0480957 1.7575683c-1.9166763 0-3.4664655-.4866487-4.6494141-1.4599609-1.4524812-1.2054097-2.1787109-2.7851465-2.1787109-4.7392578zm4.5820312-.0112305c0 1.0631564.2152485 1.8492813.645752 2.3583985.4305034.5091171.9714323.7636718 1.6228027.7636718.6588575 0 1.1997863-.2508113 1.6228027-.7524414.4230165-.5016301.6345215-1.3064723.6345215-2.4145507 0-1.0332083-.2133767-1.8024878-.6401367-2.3078614-.4267599-.5053736-.9545867-.7580566-1.5834961-.7580566-.6663445 0-1.2166319.2564265-1.6508789.7692871s-.6513672 1.2933704-.6513672 2.3415527zm11.0540039-5.9858398h4.2675781v1.7407226c.6139354-.7262406 1.2334767-1.242837 1.8586426-1.5498046.6251659-.3069677 1.3794715-.4604493 2.2629395-.4604493.9508511 0 1.703285.1684554 2.2573242.5053711.5540392.3369158 1.0069969.8385384 1.3588867 1.5048828.7187536-.7786497 1.3738577-1.3083482 1.965332-1.5891113.5914744-.2807631 1.3214475-.4211426 2.1899414-.4211426 1.2802799 0 2.2797816.3799604 2.9985352 1.1398926s1.078125 1.9484783 1.078125 3.5656738v7.4907227h-4.5820312v-6.7944336c0-.5390652-.1048167-.9396146-.3144532-1.2016602-.3069677-.4117859-.6887998-.6176757-1.1455078-.6176757-.5390652 0-.9733056.1946595-1.3027344.5839843-.3294287.3893249-.4941406 1.0144814-.4941406 1.8754883v6.1542969h-4.5820312v-6.5698242c0-.5240912-.0299477-.8797191-.0898438-1.0668946-.0973312-.2994806-.2657865-.5409333-.5053711-.7243652-.2395845-.1834319-.5203434-.2751465-.8422851-.2751465-.5240912 0-.9545882.198403-1.2915039.5952149-.3369158.3968119-.5053711 1.0481725-.5053711 1.9541015v6.0869141h-4.5820313zm26.8328125 3.8632812-4.3686523-.4604492c.1647143-.7636757.4024235-1.3644997.7131347-1.8024902s.7580537-.8179509 1.342041-1.1398926c.419273-.2320975.9957646-.4117832 1.7294922-.5390625.7337277-.1272793 1.5273395-.190918 2.3808594-.190918 1.370124 0 2.470699.0767408 3.3017578.2302246.8310589.1534839 1.5235975.473549 2.0776367.9602051.3893249.3369158.696288.8142059.9208985 1.4318848s.336914 1.2072726.336914 1.7687988v5.2670899c0 .5615262.0355628 1.0013818.1066895 1.31958.0711266.3181982.2264799.7243628.4660644 1.2185059h-4.290039c-.1722014-.3069677-.284505-.5409334-.3369141-.7019043s-.1048174-.4136539-.1572265-.7580566c-.5989614.5765002-1.1941703.98828-1.7856446 1.2353515-.8085978.3294288-1.7482043.4941406-2.8188476.4941406-1.4225332 0-2.5025191-.3294237-3.2399903-.9882812-.7374711-.6588575-1.1062011-1.4711866-1.1062011-2.4370117 0-.905929.2657851-1.650876.7973632-2.2348633.5315782-.5839873 1.5123627-1.0182277 2.9423829-1.3027344 1.7145268-.3444027 2.826332-.5858554 3.3354492-.7243652.5091171-.1385098 1.0481742-.3200672 1.6171875-.5446777 0-.5615263-.116047-.9545888-.3481446-1.1791993-.2320975-.2246105-.6401338-.336914-1.2241211-.336914-.7487016 0-1.3102194.1197904-1.6845703.359375-.2919936.1871754-.5278311.5390599-.7075195 1.055664zm3.9643555 2.4033204c-.6289094.2246104-1.2840135.4230134-1.9653321.5952148-.92839.2470715-1.516112.4903959-1.7631836.7299805-.2545585.2470715-.3818359.5278304-.3818359.8422851 0 .3593768.1254057.6532378.3762207.8815918.2508151.228354.6195451.3425293 1.1062012.3425293.5091171 0 .9826638-.1235339 1.4206543-.3706055.4379905-.2470715.748697-.5484194.9321289-.9040527s.2751465-.8179496.2751465-1.3869629zm6.9099609-6.2666016h4.2563477v1.9428711c.6363964-.7936238 1.2802701-1.3607568 1.9316406-1.701416.6513704-.3406593 1.4449823-.5109864 2.3808594-.5109864 1.2653058 0 2.2554489.376217 2.9704589 1.1286621.7150101.7524452 1.0725098 1.9147871 1.0725098 3.4870606v7.5805664h-4.5932617v-6.5585938c0-.7487016-.1385077-1.2784001-.4155274-1.5891113-.2770196-.3107112-.6663386-.4660644-1.1679687-.4660644-.5540392 0-1.0032535.2096333-1.3476563.6289062-.3444027.4192729-.5166015 1.1717068-.5166015 2.2573242v5.7275391h-4.5708008zm15.2092776-4.53710939h4.570801v3.11083989h-4.570801zm0 4.53710939h4.570801v11.9267578h-4.570801zm11.357226 3.8632812-4.368652-.4604492c.164714-.7636757.402424-1.3644997.713135-1.8024902s.758053-.8179509 1.342041-1.1398926c.419273-.2320975.995764-.4117832 1.729492-.5390625s1.527339-.190918 2.380859-.190918c1.370124 0 2.470699.0767408 3.301758.2302246.831059.1534839 1.523598.473549 2.077637.9602051.389325.3369158.696288.8142059.920898 1.4318848.224611.6176789.336914 1.2072726.336914 1.7687988v5.2670899c0 .5615262.035563 1.0013818.10669 1.31958.071126.3181982.22648.7243628.466064 1.2185059h-4.290039c-.172201-.3069677-.284505-.5409334-.336914-.7019043s-.104817-.4136539-.157226-.7580566c-.598962.5765002-1.194171.98828-1.785645 1.2353515-.808598.3294288-1.748204.4941406-2.818848.4941406-1.422533 0-2.502519-.3294237-3.23999-.9882812s-1.106201-1.4711866-1.106201-2.4370117c0-.905929.265785-1.650876.797363-2.2348633s1.512363-1.0182277 2.942383-1.3027344c1.714527-.3444027 2.826332-.5858554 3.335449-.7243652s1.048174-.3200672 1.617188-.5446777c0-.5615263-.116047-.9545888-.348145-1.1791993-.232097-.2246105-.640134-.336914-1.224121-.336914-.748702 0-1.310219.1197904-1.68457.359375-.291994.1871754-.527831.5390599-.70752 1.055664zm3.964356 2.4033204c-.62891.2246104-1.284014.4230134-1.965332.5952148-.92839.2470715-1.516112.4903959-1.763184.7299805-.254558.2470715-.381836.5278304-.381836.8422851 0 .3593768.125406.6532378.376221.8815918s.619545.3425293 1.106201.3425293c.509117 0 .982664-.1235339 1.420654-.3706055.437991-.2470715.748697-.5484194.932129-.9040527s.275147-.8179496.275147-1.3869629zm6.909961-10.80371099h4.671875v8.49023439l3.414062-3.953125h5.626465l-4.278809 4.1777344 4.525879 7.7490234h-5.154785l-2.414551-4.7841797-1.718261 1.6845703v3.0996094h-4.671875z" fill="#0098ff" fill-rule="evenodd" transform="translate(-1 -8)"/></svg>