<svg width="110" height="12" viewBox="0 0 110 12" fill="none" xmlns="http://www.w3.org/2000/svg">
<path d="M2.37647 11.394H0V0H2.37647V11.394Z" fill="#21272A"/>
<path d="M17.5528 7.84562V0H19.913V11.394H17.4877L11.7581 3.53215V11.394H9.3817V0H11.807L17.5528 7.84562Z" fill="#21272A"/>
<path d="M26.0388 0H34.1938V2.09976H31.2963V11.394H28.9362V2.09976H26.0388V0Z" fill="#21272A"/>
<path d="M47.3044 0V2.09976H42.6817V4.54134H46.6696V6.6411H42.6817V9.2943H47.3044V11.394H40.3052V0H47.3044Z" fill="#21272A"/>
<path d="M63.1598 11.394H60.2788L57.0884 6.70621H56.3234V11.394H53.9469V0H58.537C59.709 0 60.6043 0.314693 61.2228 0.944079C61.8522 1.57346 62.1669 2.39818 62.1669 3.41821C62.1669 5.07849 61.3422 6.09311 59.6927 6.46206L63.1598 11.394ZM56.3234 4.76922H58.1952C58.7161 4.76922 59.1122 4.66614 59.3835 4.45996C59.6656 4.24293 59.8067 3.89568 59.8067 3.41821C59.8067 2.9516 59.6656 2.61521 59.3835 2.40903C59.1122 2.20285 58.7161 2.09976 58.1952 2.09976H56.3234V4.76922Z" fill="#21272A"/>
<path d="M77.4765 7.84562V0H79.8367V11.394H77.4114L71.6818 3.53215V11.394H69.3053V0H71.7306L77.4765 7.84562Z" fill="#21272A"/>
<path d="M92.4083 5.51797L96.3478 11.394H93.6126L91.1226 7.48752L88.648 11.394H85.93L89.8532 5.53425L86.1418 0H88.8435L91.1226 3.56471L93.4172 0H96.136L92.4083 5.51797Z" fill="#21272A"/>
<path d="M101.559 0H109.714V2.09976H106.817V11.394H104.456V2.09976H101.559V0Z" fill="#21272A"/>
</svg>
