<?xml version="1.0" encoding="UTF-8"?>
<svg xmlns="http://www.w3.org/2000/svg" version="1.1" viewBox="0 0 337.7 212.4" width="337.7" height="212.4">
<path fill="#76bb20" d="m 284.3,166.9 v 31 c 0,0.7 0.3,1 1,1 h 5.8 c 0.7,0 1,-0.3 1,-1 v -26.8 c 1.3,-0.5 3.5,-0.9 5.9,-0.9 1.8,0 3.8,0 5.5,0.3 0.7,0.1 1.1,-0.2 1.1,-0.8 v -4.8 c 0,-0.5 -0.3,-0.9 -0.9,-1 -2.6,-0.4 -4.8,-0.5 -6.9,-0.5 -4.1,0 -8.3,0.9 -11.8,2.6 -0.5,0 -0.7,0.4 -0.7,0.9 m -30.1,10.2 c 0,-4.4 2.6,-6.9 7.5,-6.9 4.8,0 7.5,2.4 7.5,6.9 v 9 c 0,4.3 -2.7,6.6 -7.5,6.6 -4.8,0 -7.5,-2.3 -7.5,-6.6 z m -7.9,0 v 9 c 0,8.3 6.1,13.6 15.4,13.6 9.3,0 15.4,-5.3 15.4,-13.6 v -9 c 0,-8.5 -6.1,-13.9 -15.4,-13.9 -9.3,0 -15.4,5.4 -15.4,13.9 M 233.4,192 v 5.8 c 0,0 0,1 1,1 h 5.8 c 0,0 1,0 1,-1 V 192 c 0,0 0,-1 -1,-1 h -5.8 c 0,0 -1,0 -1,1 m -36.6,5.7 c -0.4,0.7 -0.1,1.2 0.7,1.2 h 7.1 c 0.5,0 0.9,-0.2 1.2,-0.7 l 6.7,-11.4 6.7,11.4 c 0.3,0.5 0.7,0.7 1.2,0.7 h 7.1 c 0.7,0 1,-0.5 0.6,-1.2 l -10.7,-16.3 10.2,-16.2 c 0.4,-0.6 0.1,-1.1 -0.7,-1.1 h -6.8 c -0.5,0 -0.9,0.3 -1.2,0.7 l -6.4,11.2 -6.4,-11.2 c -0.3,-0.4 -0.7,-0.7 -1.2,-0.7 h -6.8 c -0.7,0 -1.1,0.5 -0.7,1.1 l 10.2,16.2 z m -87.9,-46 v 46.2 c 0,0.7 0.4,1 1,1 h 5.9 c 0.6,0 0.9,-0.3 0.9,-1 v -46.2 c 0,-0.6 -0.3,-0.9 -0.9,-0.9 h -5.9 c -0.6,-0.1 -1,0.3 -1,0.9 M 90.6,165 v 32.9 c 0,0.7 0.4,1 1,1 h 5.9 c 0.6,0 0.9,-0.3 0.9,-1 V 165 c 0,-0.6 -0.3,-0.9 -0.9,-0.9 h -5.9 c -0.6,-0.1 -1,0.2 -1,0.9 m 0,-13.3 v 5.8 c 0,0 0,1 1,1 h 5.8 c 0,0 1,0 1,-1 v -5.8 c 0,0 0,-1 -1,-1 h -5.8 c 0,0 -1,0 -1,1 m -29.5,36.7 c 0,-2.8 2,-4.4 7.1,-4.4 2.1,0 4.7,0.3 6.5,0.5 v 7.6 c -1.7,0.4 -4.2,0.8 -6.5,0.8 -4.1,0 -7.1,-1.4 -7.1,-4.5 m -7.9,0.1 c 0,8.4 7.2,11.2 15,11.2 5,0 10,-0.9 13.5,-2 0.5,-0.2 0.7,-0.6 0.7,-1.1 v -19.7 c 0,-9.5 -5.7,-13.7 -14,-13.7 -5.5,0 -10,1.3 -13.2,3.6 -0.3,0.3 -0.3,0.6 0,1.1 l 2.7,4.1 c 0.3,0.5 0.9,0.6 1.3,0.3 2.2,-1.3 5.3,-2.2 8.6,-2.2 5,0 6.7,2 6.7,6.8 v 1.3 c -2,-0.3 -4.5,-0.5 -6.7,-0.5 -8.5,0 -14.6,3.4 -14.6,10.8 M 0,167 v 30.8 c 0,0.7 0.3,1 1,1 h 5.8 c 0.7,0 1,-0.3 1,-1 v -26.9 c 1.3,-0.4 3.1,-0.7 5.4,-0.7 4.4,0 6.7,2.2 6.7,7.1 v 20.6 c 0,0.7 0.4,1 1,1 h 5.8 c 0.7,0 1,-0.3 1,-1 v -20.5 c 0,-2 -0.3,-3.8 -0.9,-5.5 1.8,-1.1 3.7,-1.7 5.9,-1.7 4.8,0 6.9,2.6 6.9,7 v 20.6 c 0,0.7 0.3,1 0.9,1 h 5.9 c 0.6,0 0.9,-0.3 0.9,-1 v -20.3 c 0,-9.4 -6.1,-14.3 -14.5,-14.3 -3.9,0 -6.8,1 -10.2,3.1 -2.5,-2 -5.8,-3.1 -9.8,-3.1 -4.2,0 -8.5,1 -12.2,2.6 C 0.2,166.1 0,166.5 0,167 M 87.3,73.3 141.7,36.1 V 0.1 H 13.2 c 0,0 -13.1,0 -13.1,13.1 v 0.4 z M 13.2,128 H 141.7 V 55.1 L 90.8,89.8 c -3.6,2.5 -7.2,0 -7.2,0 L 0.1,32.4 v 82.4 C 0,114.8 0,128 13.2,128 m 135.9,57 c 0,5.7 -2.9,7.7 -7.7,7.7 -2.3,0 -4.7,-0.3 -6.3,-0.9 v -19.9 c 1.7,-1.1 3.9,-1.8 6.5,-1.8 4.8,0 7.6,2.2 7.6,7.3 v 7.6 z m 7.9,-0.1 v -7.4 c 0,-8.8 -6.3,-14.3 -14.7,-14.3 -2.7,0 -5.2,0.6 -7.3,1.5 v -12.9 c 0,-0.7 -0.3,-1 -1,-1 h -5.8 c -0.7,0 -1,0.3 -1,1 v 44.4 c 0,0.6 0.2,0.9 0.8,1.1 4,1.5 9.2,2.4 13.5,2.4 8.9,0 15.5,-4.6 15.5,-14.8 m 21.5,-14.7 c 4.8,0 7.5,2.4 7.5,6.9 v 9 c 0,4.3 -2.7,6.6 -7.5,6.6 -4.8,0 -7.5,-2.3 -7.5,-6.6 v -9 c 0,-4.5 2.7,-6.9 7.5,-6.9 m 0,-7 c -9.3,0 -15.4,5.4 -15.4,13.9 v 9 c 0,8.3 6.1,13.6 15.4,13.6 9.3,0 15.4,-5.3 15.4,-13.6 v -9 c 0,-8.5 -6.1,-13.9 -15.4,-13.9 M 308.1,128 h 29.6 V 45.8 C 337.7,10.6 319.1,0 291.2,0 276.6,0 264.2,3.2 255,6.9 250.3,4 243,0 225.6,0 210.2,0 185.9,5.2 177.7,11.5 V 128 H 207 V 27.8 c 6.8,-1.7 11.5,-2.9 19,-2.9 11.8,0.1 16.7,5.2 17,21.7 V 128 h 29.2 L 272,44.8 c 0,-11.7 -2.3,-17 -2.3,-17 6,-2 11.8,-2.9 20.3,-2.9 13.3,0 17.6,5.5 18.1,22 z m 21.8,61.3 c -1.3,1.1 -4.1,1.7 -6.7,1.7 -4.1,0 -7.4,-1.8 -7.4,-7.1 v -6.3 c 0,-5.8 3.2,-7.4 7.8,-7.4 2,0 4.8,0.3 6.3,0.7 z m 7.8,7.4 V 167 c 0,-0.5 -0.2,-0.9 -0.7,-1.1 -3.6,-1.5 -8.5,-2.6 -13.5,-2.6 -8.6,0 -15.6,3.8 -15.6,14.4 v 6.3 c 0,9.5 6.6,13.9 14.5,13.9 2.4,0 5.3,-0.5 7.5,-1.5 0.2,6.8 -2.2,9 -7.3,9 -3.5,0 -6.6,-1.2 -9.1,-3 -0.5,-0.4 -1,-0.3 -1.3,0.3 l -2.8,4.2 c -0.3,0.6 -0.3,1 0.2,1.3 3.6,2.8 7.6,4.2 13.1,4.2 10.7,0 15,-5.8 15,-15.7" />
</svg>
