<svg width="166" height="38" viewBox="0 0 166 38" fill="none" xmlns="http://www.w3.org/2000/svg">
<g clip-path="url(#clip0_1_3820)">
<path d="M113.11 14.3505C113.11 15.0215 112.843 15.665 112.369 16.1395C111.894 16.6139 111.251 16.8805 110.58 16.8805C109.169 16.8805 108.05 16.7959 107.062 16.02C108.821 15.2487 109.183 11.8206 110.58 11.8206C111.251 11.8206 111.894 12.0871 112.369 12.5616C112.843 13.036 113.11 13.6795 113.11 14.3505Z" fill="url(#paint0_linear_1_3820)"/>
<path fill-rule="evenodd" clip-rule="evenodd" d="M90.6637 8.92837C88.1187 7.30615 85.1559 6.4613 82.138 6.49719H81.9123C78.8055 6.49719 76.3727 7.28095 74.614 8.84847C72.8552 10.416 71.9773 12.6308 71.9805 15.4931V30.5413H77.2991V17.0168C77.2991 13.1701 79.116 11.2452 82.7495 11.242C83.1759 11.2409 83.6018 11.2707 84.0239 11.3314C85.4967 11.6272 86.8945 12.2175 88.1338 13.0666L88.275 12.7281C88.8789 11.3503 89.6837 10.0697 90.6637 8.92837Z" fill="#231F20"/>
<path fill-rule="evenodd" clip-rule="evenodd" d="M98.2263 19.7583C98.89 20.003 99.5687 20.2057 100.258 20.365C102.219 20.7777 104.235 20.8683 106.225 20.633C109.475 20.0875 111.906 18.2112 112.658 16.7298C113.116 15.8514 113.243 14.8538 113.09 13.875L110.506 14.0918L107.867 15.0887C107.523 16.316 105.515 16.4994 103.061 16.2643C102.426 16.2077 101.798 16.1024 101.18 15.9493C100.569 15.7839 99.9702 15.5764 99.3879 15.3285C99.0154 15.7672 98.7211 16.2667 98.5179 16.8051C98.2773 17.4666 98.1562 18.1656 98.1604 18.8695C98.1575 19.1671 98.1796 19.4644 98.2263 19.7583Z" fill="url(#paint1_linear_1_3820)"/>
<path d="M165.815 30.4521C165.51 30.5086 165.011 30.5791 164.343 30.659C163.676 30.739 162.895 30.8189 161.992 30.8941C161.089 30.9694 160.078 31.0447 158.959 31.1058C157.84 31.1669 156.678 31.1951 155.46 31.1951C153.46 31.242 151.462 31.0302 149.516 30.565C148.206 30.2519 146.971 29.683 145.881 28.8909C145.056 28.2733 144.425 27.4308 144.066 26.4644C143.749 25.5576 143.59 24.6033 143.596 23.6428C143.572 22.4985 143.768 21.3602 144.174 20.2899C144.57 19.3165 145.234 18.4752 146.088 17.8634C147.134 17.1402 148.316 16.6392 149.563 16.3915C151.281 16.044 153.031 15.8863 154.783 15.9212C155.959 15.9212 157.078 15.9589 158.136 16.0435C159.194 16.1281 159.984 16.194 160.511 16.2552C160.543 15.3251 160.361 14.4 159.98 13.5512C159.651 12.8668 159.142 12.2847 158.507 11.8676C157.824 11.4424 157.063 11.1563 156.269 11.0259C155.314 10.8645 154.346 10.7874 153.377 10.7954C151.931 10.7464 150.487 10.9517 149.112 11.4021C148.36 11.6415 147.648 11.9885 146.996 12.432C146.711 12.1629 146.452 11.8668 146.225 11.5479C145.898 11.0855 145.733 10.5287 145.754 9.96314C145.759 9.51318 145.877 9.07163 146.098 8.67929C146.396 8.19548 146.827 7.80715 147.339 7.56009C148.078 7.18147 148.871 6.91977 149.69 6.78421C150.933 6.57899 152.192 6.48609 153.452 6.50672C155.137 6.49296 156.817 6.67284 158.461 7.04282C159.856 7.34908 161.178 7.92755 162.349 8.74514C163.447 9.53615 164.322 10.5971 164.889 11.8253C165.529 13.2786 165.839 14.8557 165.796 16.4432V30.4521H165.815ZM160.553 20.1065C160.243 20.0501 159.66 19.9513 158.804 19.8291C157.527 19.68 156.242 19.6172 154.957 19.641C152.85 19.641 151.303 19.9607 150.349 20.5815C149.394 21.2022 148.905 22.218 148.905 23.5864C148.897 24.1143 149 24.638 149.206 25.1242C149.43 25.616 149.797 26.0289 150.259 26.3091C150.881 26.6845 151.569 26.9383 152.286 27.0569C153.338 27.2425 154.406 27.3275 155.474 27.3108C156.612 27.3278 157.749 27.2728 158.879 27.1462C159.721 27.0381 160.29 26.9487 160.558 26.8876V20.1065H160.553Z" fill="#231F20"/>
<path d="M116.494 16.4667C116.466 15.0311 116.76 13.6075 117.355 12.3003C117.913 11.0987 118.727 10.0332 119.739 9.17775C120.794 8.29449 122.013 7.62809 123.327 7.21677C124.795 6.75189 126.329 6.52335 127.869 6.53963C129.416 6.52515 130.955 6.75363 132.431 7.21677C133.752 7.62583 134.98 8.2923 136.042 9.17775C137.049 10.0308 137.852 11.0975 138.394 12.3003C138.973 13.6115 139.261 15.0332 139.235 16.4667V30.5744H133.926V17.8022C133.926 15.6955 133.409 14.0778 132.388 12.9821C131.368 11.8864 129.859 11.3221 127.869 11.3221C125.88 11.3221 124.333 11.8817 123.327 12.9821C122.32 14.0825 121.808 15.6955 121.808 17.8022V30.5744H116.494V16.4667Z" fill="#231F20"/>
<path d="M0.471278 15.5449C0.439312 14.1976 0.710904 12.8604 1.26598 11.6323C1.77103 10.5418 2.51335 9.5778 3.43861 8.81081C4.39854 8.04319 5.4968 7.4669 6.67391 7.1132C7.98742 6.71304 9.35452 6.51639 10.7276 6.53009C12.5102 6.4974 14.2776 6.86374 15.9004 7.60228C17.3901 8.28961 18.6516 9.38955 19.5354 10.7718C20.4074 9.39701 21.6515 8.29792 23.1234 7.60228C24.7153 6.86597 26.4532 6.49941 28.2069 6.53009C29.5641 6.52107 30.9152 6.70955 32.2181 7.08966C33.3901 7.42908 34.4822 7.99995 35.43 8.7685C36.3415 9.52983 37.0752 10.4817 37.5792 11.5571C38.1279 12.7872 38.3992 14.123 38.3739 15.4696V30.5789H33.0553V17.2942C33.0553 15.1499 32.5756 13.6184 31.6163 12.6998C30.545 11.7427 29.1383 11.249 27.7038 11.3267C26.9705 11.3072 26.2406 11.4331 25.5562 11.697C24.8718 11.9609 24.2464 12.3576 23.7161 12.8644C22.6439 13.8927 22.1093 15.5543 22.1124 17.8491V30.5789H16.7938V17.8491C16.7938 15.5543 16.2625 13.8943 15.1856 12.8644C14.657 12.3579 14.0331 11.9613 13.3502 11.6973C12.6674 11.4334 11.9391 11.3074 11.2072 11.3267C9.76855 11.2659 8.36339 11.7725 7.29457 12.7374C6.29763 13.6779 5.80076 15.2173 5.8039 17.3554V30.5931H0.485284V15.5449H0.471278Z" fill="#231F20"/>
<path d="M43.7716 9.66193C43.7385 9.3116 43.789 8.95841 43.919 8.63141C44.0489 8.30442 44.2547 8.01295 44.5192 7.78091C45.1325 7.35502 45.8712 7.14797 46.6165 7.19309C47.1365 7.19054 47.6543 7.26177 48.1542 7.40468C48.6245 7.54576 48.9349 7.64452 49.0948 7.70565V19.9652C49.0948 22.0751 49.5933 23.6849 50.5903 24.7947C51.5872 25.9045 53.1092 26.4547 55.1564 26.4453C57.2067 26.4453 58.7271 25.8951 59.7177 24.7947C60.7194 23.6896 61.2132 22.0813 61.2132 19.9652V9.66193C61.1804 9.31205 61.2306 8.95935 61.3597 8.6325C61.4888 8.30566 61.6932 8.0139 61.9563 7.78091C62.5544 7.36053 63.2765 7.1535 64.0065 7.19309C64.5421 7.18806 65.0758 7.25929 65.5913 7.40468C66.0616 7.54576 66.3626 7.64452 66.5318 7.70565V21.1267C66.5587 22.5899 66.2799 24.0426 65.7135 25.3919C65.1916 26.6201 64.3954 27.7124 63.3859 28.585C62.3289 29.4832 61.1 30.1568 59.7742 30.5647C58.2799 31.0309 56.7217 31.2595 55.1564 31.2419C53.5943 31.2588 52.039 31.0302 50.5478 30.5647C49.2273 30.1609 48.0055 29.4867 46.9598 28.585C45.9507 27.7065 45.1479 26.6163 44.6085 25.3919C44.0328 24.0447 43.746 22.5917 43.7667 21.1267V9.66193H43.7716Z" fill="#231F20"/>
<path d="M95.5421 21.1034C95.3103 20.2654 95.2275 19.3931 95.2976 18.5264L90.4917 15.1453C90.1301 16.3672 89.9386 17.6331 89.9227 18.9073C89.8982 21.0168 90.4154 23.0974 91.4249 24.9499C92.4343 26.8024 93.902 28.365 95.6879 29.488L99.0408 25.9941C98.1568 25.4583 97.391 24.7485 96.7896 23.9078C96.1882 23.0671 95.7637 22.113 95.5421 21.1034Z" fill="url(#paint2_linear_1_3820)"/>
<path d="M109.402 24.9688C108.788 25.4199 108.133 25.812 107.445 26.1397C105.629 27.0004 103.588 27.2702 101.61 26.9109C100.7 26.7641 99.8271 26.4449 99.0374 25.9704L96.3098 26.9109L95.6797 29.4832C97.5932 30.6836 99.8069 31.3193 102.066 31.3172C108.062 31.3172 111.16 27.7668 111.16 27.7668L110.902 25.9845L109.402 24.9688Z" fill="url(#paint3_linear_1_3820)"/>
<path d="M114.13 22.5894C114.52 21.0846 113.542 20.5673 112.837 21.5595C111.497 23.3742 109.78 24.8774 107.805 25.9658L109.399 29.1683C112.296 27.4048 113.65 24.4422 114.13 22.5894Z" fill="url(#paint4_linear_1_3820)"/>
<path d="M102.323 11.2468C106.085 11.2468 108.187 13.8661 107.834 15.0888L113.092 13.8802C112.922 12.8544 112.504 11.8857 111.874 11.0587C109.955 8.39705 106.4 6.57715 101.778 6.57715C100.119 6.62393 98.4863 7.00208 96.9761 7.68935C95.4659 8.37663 94.1085 9.35915 92.9838 10.579C91.8201 11.8881 90.9694 13.4448 90.4961 15.1311C92.2595 17.252 95.2974 18.5122 95.2974 18.5122C95.3572 16.8258 95.9279 15.1974 96.9339 13.8426C97.5561 13.0073 98.3713 12.335 99.3097 11.883C100.248 11.4309 101.282 11.2127 102.323 11.2468Z" fill="url(#paint5_linear_1_3820)"/>
<path d="M97.4751 13.2124C98.1043 12.5686 98.8598 12.0617 99.6941 11.7234C100.528 11.3852 101.424 11.2229 102.323 11.2468C106.085 11.2468 108.188 13.8661 107.835 15.0887C107.745 15.3472 107.589 15.5778 107.383 15.7576C107.177 15.9374 106.928 16.0602 106.659 16.1139C107.342 15.9123 107.976 15.5719 108.522 15.1139C109.067 14.6559 109.512 14.0902 109.829 13.4522C110.891 11.0398 109.255 8.14778 105.126 6.93452C104.029 6.70098 102.91 6.58591 101.788 6.59124C98.8144 6.66947 95.9684 7.81448 93.7695 9.81718L97.4751 13.2124Z" fill="url(#paint6_linear_1_3820)"/>
</g>
<defs>
<linearGradient id="paint0_linear_1_3820" x1="114.248" y1="15.5826" x2="107.062" y2="13.49" gradientUnits="userSpaceOnUse">
<stop stop-color="#FF6E00"/>
<stop offset="1" stop-color="#F8432E"/>
</linearGradient>
<linearGradient id="paint1_linear_1_3820" x1="118.805" y1="0.576581" x2="95.3013" y2="29.1211" gradientUnits="userSpaceOnUse">
<stop stop-color="#FFDA00"/>
<stop offset="0.83" stop-color="#FF9B00"/>
<stop offset="1" stop-color="#FF5D69"/>
</linearGradient>
<linearGradient id="paint2_linear_1_3820" x1="114.281" y1="-3.14765" x2="90.778" y2="25.4011" gradientUnits="userSpaceOnUse">
<stop stop-color="#FFDA00"/>
<stop offset="0.83" stop-color="#FF9B00"/>
<stop offset="1" stop-color="#FF5D69"/>
</linearGradient>
<linearGradient id="paint3_linear_1_3820" x1="122.954" y1="3.99068" x2="99.4558" y2="32.5398" gradientUnits="userSpaceOnUse">
<stop stop-color="#FFDA00"/>
<stop offset="0.83" stop-color="#FF9B00"/>
<stop offset="1" stop-color="#FF5D69"/>
</linearGradient>
<linearGradient id="paint4_linear_1_3820" x1="126.178" y1="6.64772" x2="102.674" y2="35.1925" gradientUnits="userSpaceOnUse">
<stop stop-color="#FFDA00"/>
<stop offset="0.83" stop-color="#FF9B00"/>
<stop offset="1" stop-color="#FF5D69"/>
</linearGradient>
<linearGradient id="paint5_linear_1_3820" x1="115.123" y1="-2.45645" x2="91.6199" y2="26.0926" gradientUnits="userSpaceOnUse">
<stop stop-color="#FFDA00"/>
<stop offset="0.83" stop-color="#FF9B00"/>
<stop offset="1" stop-color="#FF5D69"/>
</linearGradient>
<linearGradient id="paint6_linear_1_3820" x1="96.2149" y1="8.82025" x2="109.626" y2="12.5682" gradientUnits="userSpaceOnUse">
<stop stop-color="#FFDA00" stop-opacity="0"/>
<stop offset="0.83" stop-color="#FF9B00"/>
<stop offset="1" stop-color="#FF5D69"/>
</linearGradient>
<clipPath id="clip0_1_3820">
<rect width="166" height="25" fill="white" transform="translate(0 6.5)"/>
</clipPath>
</defs>
</svg>
