<svg width="176" height="32" viewBox="0 0 176 32" fill="none" xmlns="http://www.w3.org/2000/svg"><path fill-rule="evenodd" clip-rule="evenodd" d="M4.001 31.82c-6.019-8.303-4.8-19.81 2.822-26.669 7.624-6.859 19.194-6.859 26.818 0 7.623 6.86 8.84 18.366 2.822 26.669L26.84 16.152l-.929 1.573.944 4.374-6.622-11.342-4.09 6.925.962 4.417-3.479-5.938L4.001 31.82z" fill="#8277F6"/><path fill-rule="evenodd" clip-rule="evenodd" d="M60.458 24.325l-7.044-10.55v10.55h-3.128v-15.3h3.609l6.66 9.982V9.026h3.127v15.3h-3.224zm5.087-5.197c0-3.109 2.557-5.471 5.724-5.471 3.166 0 5.666 2.304 5.666 5.41 0 3.148-2.56 5.491-5.705 5.491s-5.685-2.285-5.685-5.43zm3.127-.041c0 1.583 1.153 2.678 2.58 2.678 1.426 0 2.557-1.095 2.557-2.678a2.557 2.557 0 00-2.577-2.647c-1.426 0-2.56 1.095-2.56 2.647zM84.41 13.89v2.99a5.402 5.402 0 00-.977-.079c-1.465 0-2.483 1.018-2.483 2.95v4.571h-2.995V13.89h2.887v1.525h.038c.566-1.203 1.622-1.64 2.698-1.64.276.008.552.047.82.115h.012zm8.799 10.435v-1.33h-.038c-.977 1.426-2.539 1.525-3.244 1.525-3.027 0-4.961-2.618-4.961-5.433 0-2.647 2.011-5.392 5-5.392a4.047 4.047 0 013.128 1.388h.038V8.421h3.03v15.904h-2.953zm0-5.238a2.58 2.58 0 10-5.156 0c0 1.583 1.152 2.678 2.58 2.678 1.426 0 2.576-1.095 2.576-2.678z" fill="#fff"/><path d="M99.164 8.217h3.31v12.94h6.891v3.168H99.164V8.217zm17.379 4.874c3.313 0 5.964 2.428 5.964 5.7 0 3.31-2.692 5.774-6.015 5.774-3.323 0-5.986-2.406-5.986-5.719.009-3.265 2.704-5.755 6.037-5.755zm-.022 8.54c1.504 0 2.697-1.153 2.697-2.82a2.696 2.696 0 00-2.716-2.799c-1.502 0-2.695 1.152-2.695 2.798 0 1.646 1.213 2.82 2.714 2.82zm7.608-2.78c0-3.248 2.613-5.76 5.986-5.76 2.286 0 4.773 1.234 5.329 3.746l-2.921.883c-.24-.823-1.09-1.684-2.468-1.684-1.42 0-2.633 1.03-2.633 2.777 0 1.624 1.069 2.798 2.647 2.798a2.593 2.593 0 002.531-1.708l2.921.885c-.7 2.531-3.128 3.785-5.493 3.785-3.45-.003-5.899-2.438-5.899-5.722zm16.721.267v5.207h-3.207V7.56h3.207v10.105l3.807-4.33h4.09l-4.422 5.052 4.547 5.926h-4.052l-3.888-5.195h-.082zm11.496.612c.205 1.376 1.377 2.165 2.714 2.165.927 0 1.956-.556 2.327-1.46l2.632.904c-.722 2.12-2.757 3.25-4.918 3.25-3.332 0-6.015-2.343-6.015-5.76 0-3.166 2.647-5.738 5.823-5.738 3.27 0 5.471 2.243 5.471 5.493.007.385-.006.77-.041 1.152l-7.993-.007zm4.812-2.12c-.06-.802-.738-1.925-2.343-1.925a2.474 2.474 0 00-2.387 1.925h4.73zm12.281-1.124a5.807 5.807 0 00-1.03-.082c-1.542 0-2.613 1.07-2.613 3.106v4.812h-3.15V13.34h3.046v1.605h.041c.597-1.256 1.706-1.728 2.837-1.728.292.009.583.05.866.123l.003 3.147z" fill="#fff"/><path fill-rule="evenodd" clip-rule="evenodd" d="M173.303 10.686h-.336v.486h.343c.149 0 .311-.062.311-.243 0-.193-.162-.243-.318-.243zm-.336 1.57h-.405V10.3h.773c.38 0 .697.2.697.617a.566.566 0 01-.374.56l.406.78h-.443l-.355-.705h-.299v.705zm-1.128-.978c0 .78.617 1.402 1.384 1.402.76 0 1.389-.623 1.389-1.402 0-.779-.629-1.402-1.389-1.402-.767 0-1.384.623-1.384 1.402zm-.324 0c0-.94.76-1.714 1.708-1.714a1.713 1.713 0 110 3.427 1.707 1.707 0 01-1.708-1.713z" fill="#fff"/></svg>