<svg xmlns="http://www.w3.org/2000/svg" fill="none" viewBox="0 0 163 64" height="64" width="163">
<g clip-path="url(#clip0_212_5812)">
<path fill="black" d="M86.8706 50.1333C82.1711 50.1333 78.5525 49.1377 76.0147 47.1466C74.7419 46.1323 73.7175 44.8361 73.0208 43.3585C72.324 41.8808 71.9736 40.2613 71.9967 38.6251H78.8345C78.8663 39.4889 79.0797 40.336 79.4605 41.1104C79.8413 41.8848 80.3808 42.5687 81.0432 43.117C82.7081 44.1252 84.6399 44.5927 86.5769 44.4563C87.4329 44.4609 88.2872 44.3775 89.1264 44.2073C89.8717 44.0676 90.5898 43.8074 91.253 43.437C91.8435 43.0973 92.3466 42.6223 92.7216 42.0503C93.1015 41.4321 93.2934 40.7152 93.2738 39.9881C93.3019 39.2421 93.0919 38.5068 92.6746 37.8903C92.2181 37.3021 91.6304 36.8311 90.9592 36.5155C90.1067 36.0976 89.2128 35.7718 88.2923 35.5436C87.2466 35.271 86.0718 34.9866 84.7676 34.6903C83.2168 34.3348 81.7364 33.9318 80.3031 33.5051C78.9704 33.1109 77.7062 32.5112 76.5552 31.7273C75.4807 30.9876 74.5917 30.0057 73.9587 28.8592C73.2507 27.4815 72.9106 25.9416 72.9718 24.391C72.94 22.8281 73.2783 21.28 73.9587 19.8755C74.6039 18.59 75.5421 17.4771 76.6962 16.6281C77.9516 15.7138 79.3666 15.0464 80.867 14.6607C82.5923 14.2038 84.3703 13.9806 86.154 13.997C89.5081 13.82 92.8222 14.7979 95.553 16.7703C96.7485 17.7452 97.7189 18.9713 98.3967 20.3632C99.0744 21.755 99.4431 23.2793 99.4771 24.8296H92.7921C92.7434 24.057 92.5279 23.3045 92.1605 22.6248C91.7932 21.9451 91.2829 21.3546 90.6655 20.8948C89.331 19.9916 87.7483 19.5355 86.1422 19.5911C84.559 19.5096 82.9868 19.8969 81.619 20.7051C81.1041 21.005 80.6773 21.4372 80.3822 21.9577C80.087 22.4782 79.934 23.0684 79.9388 23.6681C79.9142 24.2896 80.0737 24.9044 80.3971 25.434C80.7529 25.9556 81.2285 26.3826 81.7834 26.6785C82.5281 27.0784 83.3168 27.3886 84.1332 27.6029C85.0613 27.8637 86.1775 28.1363 87.4581 28.4207C89.2204 28.8118 90.877 29.2385 92.4396 29.7126C93.8859 30.1318 95.2634 30.7627 96.5282 31.5851C97.6779 32.3302 98.6297 33.3474 99.3009 34.5481C100.025 35.9718 100.373 37.5597 100.311 39.1585C100.338 40.7768 99.9925 42.3794 99.3009 43.8399C98.6487 45.1942 97.6911 46.3754 96.5047 47.2888C95.2382 48.2556 93.8037 48.9751 92.2751 49.4103C90.5177 49.9133 88.6973 50.1568 86.8706 50.1333Z"></path>
<path fill="black" d="M111.191 37.9971L108.359 40.96V49.3512H101.851V14.6371H108.359V33.8608L117.112 24.3793H124.925L115.832 33.8608L126.041 49.2682H118.087L111.191 37.9971Z"></path>
<path fill="black" d="M126.617 14.6371H133.15V20.563H126.605L126.617 14.6371ZM126.617 24.4386H133.15V49.3274H126.605L126.617 24.4386Z"></path>
<path fill="black" d="M158.48 22.6015V19.6978H162.909V14.6845C161.454 14.5052 159.982 14.5052 158.527 14.6845C157.284 14.832 156.084 15.2354 155.002 15.8697C154.035 16.4658 153.243 17.313 152.711 18.323C152.15 19.5293 151.888 20.8554 151.948 22.1867V24.4148H144.581V19.6741H148.764V14.8504C147.359 14.6774 145.939 14.6774 144.534 14.8504C143.326 15.0061 142.163 15.4095 141.115 16.0356C140.152 16.63 139.368 17.4782 138.848 18.4889C138.272 19.6793 137.994 20.9934 138.037 22.317V24.3556H134.665V28.9304H138.037V49.2682H144.581V29.0134H151.948V49.3511H158.492V29.0134H162.921V24.4385H158.492L158.48 22.6015Z"></path>
<path fill="black" d="M40.7803 3.28293C43.5539 3.23112 46.3051 3.79348 48.84 4.93035C46.9416 3.71772 44.9164 2.72006 42.8011 1.95553C37.6014 0.0377093 31.997 -0.484505 26.537 0.440047C21.0771 1.3646 15.9489 3.70421 11.655 7.22962C11.3847 7.4311 10.6681 8.09479 10.3861 8.33183C10.1041 8.56887 9.45792 9.20887 9.2112 9.51702C8.96447 9.82516 8.41228 10.3585 8.03631 10.7022C7.66035 11.0459 7.20215 11.6859 6.95543 11.994L6.10951 13.1081C5.88628 13.4163 5.36934 14.1867 5.15786 14.4948C4.94638 14.803 4.80539 15.0755 4.7114 15.2178C4.61741 15.36 4.40593 15.7155 4.34719 15.8103C4.28844 15.9052 3.73625 16.9244 3.59526 17.1615C3.45428 17.3985 3.03133 18.3467 2.86684 18.6785L2.31465 19.9704C2.31465 20.1126 1.89169 21.1555 1.8212 21.2859C1.75071 21.4163 1.57446 22.0444 1.48047 22.3526C1.28074 22.9452 1.10452 23.6326 0.940037 24.237C0.846047 24.6044 0.658069 25.517 0.575827 25.8844V26.1689C-0.794738 33.7116 0.551095 41.5002 4.37069 48.1304C4.7584 48.7704 5.2871 49.6474 5.73356 50.2518C5.89804 50.5007 6.19176 50.9274 6.37975 51.1644L7.06116 52.0652L8.14207 53.3452L9.31695 54.5304C9.54018 54.7318 9.89263 55.1111 10.1276 55.3007L10.5506 55.6681L10.6563 55.7511L10.762 55.8341L10.9735 56.0118C11.2437 56.237 11.5845 56.4741 11.8664 56.6755L12.0897 56.8296L12.3246 56.9837C12.5714 57.1496 13.0061 57.4222 13.2763 57.5644C13.5465 57.7067 13.6288 57.7777 13.758 57.837L14.4982 58.2044C14.7331 58.323 15.0386 58.4533 15.2618 58.5481C15.814 58.7733 16.4367 58.9748 16.9537 59.1644C17.2591 59.2356 17.5881 59.3422 17.8936 59.4252L18.7042 59.603L19.5267 59.7452C20.4718 59.8869 21.4261 59.9582 22.3816 59.9585C24.7125 59.8904 27.0108 59.3881 29.1607 58.477C31.4304 57.4979 33.4831 56.0708 35.1982 54.2797C36.9132 52.4886 38.2558 50.3696 39.1472 48.0474L39.3469 47.5259C39.3469 47.3481 39.5467 46.8859 39.6054 46.72C39.7111 46.2933 39.8639 45.7837 39.9461 45.357C39.9461 45.2029 40.0401 44.9659 40.0636 44.8118C40.1992 43.9919 40.2895 43.1649 40.3338 42.3348C40.3338 42.1452 40.3338 41.6948 40.3338 41.4933V41.3629C39.7229 41.3629 39.1589 41.28 38.5245 41.2089C33.7577 40.6177 29.3938 38.2153 26.3221 34.491C23.2504 30.7668 21.702 26.0011 21.9927 21.1652C22.2833 16.3293 24.391 11.7872 27.8862 8.46453C31.3815 5.1419 36.0011 3.28881 40.8038 3.28293H40.7803ZM14.2632 51.5437C13.5385 50.931 12.8518 50.274 12.2071 49.5763C9.47054 46.6394 7.36651 43.1627 6.02758 39.3651C4.68866 35.5675 4.14386 31.5313 4.42752 27.5108C4.71117 23.4904 5.81714 19.5727 7.67573 16.0046C9.53432 12.4366 12.1053 9.29553 15.2266 6.77924C15.4616 6.57776 15.8375 6.31701 16.0725 6.13923C17.0115 5.43533 17.9924 4.79016 19.0097 4.20737C22.2754 2.37213 25.8693 1.208 29.5837 0.782206L30.9583 0.66368H32.3446H33.7192L32.3446 0.770342L30.9818 0.948113L29.6307 1.1733C25.5358 1.92874 21.6527 3.57333 18.2504 5.99307C14.8482 8.41281 12.0082 11.5499 9.92727 15.1868C7.84631 18.8238 6.57415 22.8737 6.19895 27.0559C5.82375 31.2382 6.35448 35.4526 7.75435 39.4074C8.89443 42.5997 10.5892 45.5615 12.7593 48.1541L12.9708 48.4148L13.0766 48.5452L13.194 48.6637C13.7776 49.3413 14.4014 49.9824 15.0621 50.5837C17.4438 52.6755 20.3721 54.0314 23.4971 54.4896C26.6222 54.9477 29.8119 54.4888 32.6853 53.1674C29.8071 54.7908 26.5117 55.5039 23.2266 55.2144C19.9416 54.9249 16.8187 53.646 14.2632 51.5437ZM18.2225 46.1155L18.0111 45.8904L17.8936 45.7837L17.1064 44.9778C14.7461 42.4576 12.9119 39.4845 11.7129 36.2352C10.514 32.9859 9.97466 29.5266 10.127 26.0629C10.2793 22.5992 11.1202 19.2017 12.5997 16.0723C14.0792 12.9429 16.1672 10.1453 18.7395 7.8459C19.5397 7.13726 20.3834 6.48016 21.2655 5.87849C21.7589 5.54664 22.3699 5.14369 22.8868 4.85925C23.4038 4.5748 24.0617 4.23109 24.5787 3.95849C24.7784 3.85183 24.9664 3.79257 25.1543 3.69775C25.3423 3.60294 25.8593 3.37774 26.0355 3.31848C28.0965 2.49354 30.2581 1.95144 32.4621 1.70665C32.7911 1.70665 33.3785 1.61184 33.7075 1.59999H34.6474C35.5888 1.58623 36.5301 1.62581 37.4671 1.71851C36.0142 1.73601 34.5647 1.86675 33.1318 2.10961C29.0065 2.79466 25.1092 4.48485 21.7781 7.03347C18.4471 9.5821 15.7828 12.9122 14.0165 16.7348C12.1782 20.8207 11.4436 25.3243 11.8872 29.7889C12.3309 34.2535 13.9369 38.5205 16.5425 42.157C16.7422 42.4059 17.0712 42.88 17.2826 43.1289C17.6351 43.5674 18.0816 44.1007 18.4575 44.5155C20.5553 46.9067 23.3846 48.5225 26.4965 49.1065C29.6084 49.6906 32.8244 49.2093 35.6343 47.7392C30.3826 51.4726 22.8398 50.4296 18.2225 46.1155ZM21.4065 37.5822C22.4012 39.0297 23.587 40.3336 24.9311 41.4578C26.5826 42.8056 28.5354 43.7262 30.6199 44.1393C32.7043 44.5524 34.8572 44.4456 36.8914 43.8281C35.2015 44.5683 33.3709 44.9244 31.5293 44.8712C29.6877 44.8179 27.8803 44.3566 26.2352 43.52C24.5514 42.685 23.0404 41.5347 21.7824 40.1304C19.6189 37.7749 17.9798 34.9799 16.9751 31.9329C15.9704 28.8859 15.6233 25.6574 15.9571 22.464C16.2909 19.2705 17.2979 16.1861 18.9106 13.4175C20.5232 10.6489 22.7041 8.26027 25.3071 6.41184C25.5655 6.22221 25.965 5.97333 26.247 5.79555C26.7639 5.45185 27.4219 5.11999 27.9271 4.82369C28.4323 4.5274 28.7965 4.39703 29.1842 4.2311C31.5578 3.21422 34.0921 2.63226 36.6682 2.51257C37.1969 2.51257 37.7726 2.51257 38.3013 2.51257H38.5715H38.8535L39.6641 2.58367C40.1106 2.58367 40.5571 2.70219 41.0035 2.76144C40.5571 2.76144 40.1106 2.76144 39.6524 2.76144H38.5833C36.5357 2.89229 34.5137 3.29068 32.5679 3.94663C29.3148 5.0125 26.3549 6.833 23.9256 9.26192C21.4964 11.6908 19.6656 14.6605 18.5802 17.9325C17.4949 21.2045 17.1852 24.6877 17.676 28.1023C18.1668 31.5169 19.4445 34.7678 21.4065 37.5941V37.5822Z"></path>
<path fill="black" d="M23.427 22.7556L22.769 22.6963V22.7556C23.2782 22.7556 23.7834 22.7911 24.2847 22.8622L23.427 22.7556Z"></path>
<path fill="black" d="M51.4244 56.7586C51.6829 56.5571 52.4113 55.8934 52.6932 55.6563L53.8681 54.4711L55.043 53.286C55.3132 52.966 55.8772 52.3141 56.1239 51.9941L56.9698 50.88C57.1931 50.5719 57.71 49.8015 57.9215 49.4934L58.3679 48.7704C58.4384 48.6756 58.6734 48.2726 58.7322 48.1778C58.7909 48.083 59.3431 47.0756 59.4723 46.8267C59.6016 46.5778 60.048 45.6415 60.2125 45.3097C60.377 44.9778 60.6002 44.3971 60.7647 44.0178C60.7647 43.8875 61.1876 42.8326 61.2464 42.7023C61.3051 42.5719 61.5049 41.9438 61.5989 41.6356C61.7986 41.043 61.9748 40.3556 62.1393 39.7512C62.2333 39.3838 62.4095 38.4711 62.5035 38.1037V37.8312C63.8762 30.2884 62.5302 22.4991 58.7087 15.8697C58.321 15.2178 57.7923 14.3526 57.3458 13.7363C57.1813 13.4874 56.8876 13.0608 56.6996 12.8238L56.0182 11.9349C55.7832 11.6623 55.1605 10.9038 54.9255 10.643C54.6906 10.3823 54.1501 9.80154 53.7507 9.45783C53.5392 9.25635 53.1749 8.87706 52.9517 8.68743L52.5288 8.33189L52.423 8.23709L52.3173 8.15412L52.0941 7.97635C51.8356 7.75116 51.4949 7.51413 51.2129 7.31265L50.9779 7.15857L50.7547 7.00449C50.4962 6.83856 50.0733 6.56598 49.803 6.42376C49.5328 6.28154 49.4506 6.21041 49.3213 6.15115L48.5812 5.78375L47.8175 5.44004C47.2653 5.21485 46.6426 5.01338 46.1257 4.82375L45.1858 4.57487L44.3751 4.38524L43.5527 4.24299C42.6075 4.10125 41.6533 4.02995 40.6977 4.02966C38.3668 4.09775 36.0685 4.60002 33.9187 5.51114C31.6489 6.49028 29.5962 7.91737 27.8812 9.70848C26.1662 11.4996 24.8235 13.6186 23.9322 15.9408L23.7324 16.4741C23.6737 16.64 23.5327 17.1023 23.4739 17.2682C23.3565 17.6949 23.2155 18.2045 23.1332 18.6312C23.1332 18.7852 23.0393 19.0223 23.0158 19.1763C22.8651 20.0067 22.767 20.8459 22.722 21.6889C22.722 21.8785 22.722 22.3408 22.722 22.5304V22.7201C25.2092 22.7488 27.6657 23.2774 29.9479 24.2749C32.2302 25.2724 34.2926 26.7189 36.0143 28.5297C37.7361 30.3405 39.0828 32.4793 39.9757 34.8212C40.8686 37.1631 41.2898 39.6609 41.2147 42.1689C41.0796 45.3285 40.1823 48.4072 38.6006 51.1378C37.0189 53.8683 34.8006 56.1683 32.1382 57.8382C29.4757 59.508 26.4496 60.4973 23.3223 60.7202C20.195 60.943 17.0611 60.3928 14.1924 59.1171C16.0931 60.3287 18.1177 61.33 20.2313 62.1037C25.4439 64.0172 31.0601 64.5306 36.5287 63.5935C41.9974 62.6564 47.1305 60.301 51.4244 56.7586ZM48.8396 12.4089C49.5693 13.0244 50.2636 13.6813 50.9192 14.3763C56.1627 20.0094 58.9825 27.5072 58.7623 35.2312C58.5422 42.9552 55.3 50.2773 49.7443 55.5971C49.4623 55.8578 49.0041 56.3082 48.6987 56.5452L48.1582 56.9956L47.8763 57.2326L47.747 57.3393L47.0421 57.8726C46.0948 58.5728 45.1061 59.214 44.0814 59.7926L42.836 60.4563C38.651 62.542 34.0118 63.5285 29.3483 63.3245C36.8968 62.9183 44.0016 59.6 49.1921 54.0564C53.8146 49.099 56.5448 42.6489 56.8976 35.8525C57.2504 29.056 55.2028 22.3536 51.1189 16.9363C50.8722 16.5808 50.5432 16.2134 50.273 15.8815L50.0615 15.6208L49.9558 15.4904L49.85 15.36C47.5469 12.5447 44.3876 10.5741 40.8617 9.75348C37.3359 8.93284 33.6401 9.30798 30.347 10.8208C33.2297 9.17694 36.5371 8.44907 39.8366 8.73243C43.1361 9.01578 46.2739 10.2972 48.8396 12.4089ZM44.1401 17.1497C44.5161 17.446 44.892 17.8015 45.2445 18.1215C48.2646 21.051 50.5255 24.6838 51.8285 28.7007C53.1315 32.7177 53.4368 36.996 52.7175 41.1598C51.9983 45.3237 50.2765 49.2456 47.7034 52.5812C45.1303 55.9168 41.7846 58.5641 37.9603 60.2904L37.3728 60.5393L37.2318 60.5986L37.0791 60.6578L36.7854 60.7763C36.4799 60.883 35.916 61.1082 35.6105 61.203C32.4027 62.2513 29.0138 62.6146 25.6592 62.2697C27.3159 62.2393 28.9668 62.0648 30.5937 61.7482C34.5892 60.9632 38.3428 59.2323 41.5456 56.6979C44.7484 54.1635 47.3087 50.8981 49.0159 47.1704C50.8869 43.0014 51.6071 38.4001 51.1005 33.8524C50.5938 29.3047 48.8791 24.9794 46.1374 21.3334C45.9259 21.0371 45.6087 20.6697 45.3855 20.3852C45.1623 20.1008 44.6923 19.603 44.3751 19.2001C42.256 16.9044 39.4487 15.3736 36.3841 14.8427C33.3194 14.3117 30.1667 14.8099 27.4098 16.2608C32.3796 12.7052 39.5111 13.4163 44.1519 17.1971L44.1401 17.1497ZM31.5689 59.5912L32.544 59.1763L33.4957 58.7141C33.8599 58.5363 34.2946 58.2756 34.6706 58.0741L35.7867 57.3749C36.1039 57.1497 36.5504 56.8415 36.8559 56.6045C41.2366 53.2864 44.2188 48.4264 45.2093 42.9913C46.1998 37.5562 45.126 31.9441 42.2016 27.2712L41.6259 26.3941L41.0032 25.5526L40.3453 24.723C39.6808 23.9184 38.9411 23.1802 38.1365 22.5186C36.4867 21.1763 34.5379 20.2592 32.4583 19.8462C30.3787 19.4333 28.2307 19.5369 26.1997 20.1482C28.2501 19.2556 30.496 18.9184 32.7152 19.17C34.9345 19.4215 37.0502 20.253 38.8531 21.5823C40.0713 22.4645 41.1728 23.5001 42.1311 24.6637C44.5048 27.4797 46.1517 30.844 46.9251 34.4573C47.6984 38.0705 47.5743 41.8205 46.5638 45.3737C45.5533 48.9268 43.6877 52.1728 41.1331 54.8229C38.5784 57.4729 35.414 59.4448 31.9213 60.563C28.7622 61.5472 25.4183 61.7705 22.1581 61.2148C25.3721 61.335 28.5771 60.7989 31.5806 59.6386L31.5689 59.5912Z"></path>
</g>
<defs>
<clipPath id="clip0_212_5812">
<rect fill="white" height="64" width="162.909"></rect>
</clipPath>
</defs>
</svg>
