<?xml version="1.0" encoding="utf-8"?>
<!-- Generator: Adobe Illustrator 24.0.1, SVG Export Plug-In . SVG Version: 6.00 Build 0)  -->
<svg version="1.1" id="Layer_1" xmlns="http://www.w3.org/2000/svg" xmlns:xlink="http://www.w3.org/1999/xlink" x="0px" y="0px"
	 viewBox="0 0 194 52" style="enable-background:new 0 0 194 52;" xml:space="preserve">
<style type="text/css">
	.st0{fill:#00ADEF;stroke:#5E5E5E;stroke-width:8;stroke-linecap:round;stroke-linejoin:round;stroke-miterlimit:10;}
	.st1{fill:#00ADEF;}
	.st2{fill:#2D2F30;}
</style>
<g>
	<g>
		<path class="st0" d="M44.84,51.9"/>
	</g>
	<path class="st1" d="M48.43,26.2c-0.05-2.85-1.18-5.52-3.2-7.53c-0.05-0.05-0.09-0.09-0.12-0.11c-1.79-1.73-4.11-2.8-6.58-3.04
		c-0.63-2.89-2.24-5.45-4.56-7.25c-2.23-1.73-4.89-2.64-7.69-2.64c-3.91,0-7.51,1.77-9.89,4.86c-1.15,1.49-1.96,3.22-2.36,5.04
		c-2.46,0.24-4.77,1.31-6.53,3.02c-0.04,0.04-0.09,0.08-0.13,0.12c-2,2.01-3.14,4.67-3.19,7.49c-0.01,0.08-0.01,0.15-0.01,0.23
		c0,0.08,0,0.15,0.01,0.21c0.05,2.75,1.13,5.37,3.03,7.34c0.05,0.06,0.11,0.12,0.16,0.18c1.8,1.8,4.16,2.91,6.68,3.14
		c0.62,2.91,2.24,5.48,4.59,7.28c2.21,1.71,4.85,2.62,7.64,2.62c3.91,0,7.52-1.78,9.91-4.88c1.14-1.47,1.95-3.2,2.34-5.01
		c2.53-0.23,4.9-1.34,6.7-3.14c0.05-0.05,0.11-0.11,0.14-0.15c1.92-1.99,3-4.6,3.05-7.34c0-0.08,0.01-0.15,0.01-0.23
		C48.43,26.31,48.43,26.23,48.43,26.2z M43.02,31.74c-1.28,1.28-3.01,2.1-4.94,2.2c-0.07-0.81-0.2-1.75-0.5-2.66
		c0.03,0,0.12,0,0.12,0c1.43,0,2.53-0.46,3.42-1.32h0c0.88-1.14,1.43-2.29,1.43-3.72c0-1.14-0.57-2.43-1.42-3.32v0
		c-0.85-0.88-2.09-1.48-3.43-1.49v0.06c-1.43,0-2.59,0.55-3.48,1.44l-0.02,0c-0.1,0.1-0.19,0.2-0.28,0.3l1.21,0.92l-5.29,1.78
		l0.39-5.58l1.38,1.11c1.77-2.72,1.18-6.41-1.43-8.45c-2.78-2.16-6.79-1.65-8.95,1.13c-2.13,2.82-1.65,6.78,1.12,8.94
		c1,0.68,2.08,1.2,3.2,1.65c2.34,0.93,4.77,1.31,6.71,3.04c3.67,3.16,4.29,8.67,1.26,12.57c-3.09,4.01-8.86,4.79-12.9,1.66
		c-2.67-2.04-3.92-5.26-3.54-8.38c-0.7,0.22-1.42,0.33-2.28,0.33v0.02h0.12h-0.12v-0.02c-2,0-3.92-0.88-5.29-2.25l0.06-0.04
		c-1.37-1.37-2.22-3.13-2.22-5.42c0-2,0.84-3.91,2.2-5.28l-0.01,0.07c1.26-1.25,2.94-2.07,4.82-2.19c0.07,0.78,0.19,1.67,0.47,2.54
		h0.08h-0.08c0.01,0.04,0.02,0.07,0.03,0.11c-0.01,0-0.08,0-0.08,0c-1.14,0-2.57,0.55-3.43,1.43v0c-0.86,0.89-1.34,2.17-1.34,3.32
		c0,1.43,0.55,2.57,1.43,3.72h0.01c0.89,0.86,2.19,1.31,3.34,1.32c1.43,0,2.63-0.54,3.52-1.43l0.06,0c0.09-0.09,0.19-0.19,0.28-0.29
		l-1.24-0.97l5.27-1.72l-0.35,5.56l-1.45-1.13c-1.75,2.76-1.16,6.45,1.5,8.47c2.76,2.12,6.76,1.61,8.92-1.17
		c2.12-2.76,1.61-6.76-1.17-8.92c-0.28-0.21-0.6-0.4-0.92-0.58l0,0c-2.76-1.43-6.04-1.87-8.58-3.74c-4.04-3.13-4.77-8.91-1.64-12.95
		c3.09-4.01,8.88-4.75,12.92-1.62c2.64,2.05,3.88,5.26,3.51,8.37c0.71-0.22,1.39-0.34,2.25-0.34v-0.01v0.01c2,0,3.96,0.81,5.33,2.18
		l-0.02-0.04c1.37,1.37,2.21,3.28,2.21,5.28c0,2.29-0.85,4.05-2.21,5.42L43.02,31.74z"/>
	<path class="st2" d="M128.44,33.19c-0.42,0-0.76,0.14-1.03,0.41c-0.27,0.27-0.41,0.63-0.41,1.07c0,0.44,0.13,0.8,0.41,1.07
		c0.27,0.27,0.61,0.41,1.03,0.41c0.39,0,0.73-0.14,1-0.41c0.27-0.27,0.41-0.63,0.41-1.07c0-0.44-0.14-0.8-0.41-1.07
		C129.16,33.33,128.83,33.19,128.44,33.19z"/>
	<path class="st2" d="M65.51,26.51c-0.94-0.44-2.23-0.84-3.88-1.18c-1.55-0.32-2.6-0.64-3.14-0.96c-0.54-0.32-0.81-0.79-0.81-1.4
		c0-0.64,0.26-1.14,0.79-1.51c0.53-0.37,1.25-0.55,2.16-0.55c0.76,0,1.4,0.09,1.92,0.28s1.13,0.46,1.85,0.83
		c0.39,0.22,0.72,0.39,0.98,0.5c0.26,0.11,0.52,0.17,0.79,0.17c0.39,0,0.73-0.17,1-0.5c0.27-0.33,0.41-0.74,0.41-1.24
		c0-0.81-0.39-1.46-1.18-1.96c-0.76-0.49-1.62-0.87-2.58-1.13c-0.96-0.26-1.96-0.39-2.99-0.39c-1.43,0-2.7,0.24-3.82,0.72
		c-1.12,0.48-2,1.16-2.64,2.03c-0.64,0.87-0.96,1.85-0.96,2.93c0,1.43,0.47,2.55,1.42,3.36c0.95,0.81,2.52,1.44,4.71,1.88
		c1.23,0.27,2.15,0.51,2.75,0.72c0.6,0.21,1.02,0.44,1.26,0.68c0.23,0.25,0.35,0.58,0.35,1c0,0.62-0.29,1.1-0.87,1.44
		c-0.58,0.34-1.38,0.52-2.42,0.52c-1.01,0-1.84-0.1-2.49-0.3c-0.65-0.2-1.37-0.48-2.16-0.85c-0.74-0.39-1.32-0.59-1.73-0.59
		c-0.39,0-0.73,0.15-1,0.46c-0.27,0.31-0.41,0.71-0.41,1.2c0,0.86,0.39,1.53,1.18,1.99c1.65,1.06,3.81,1.59,6.5,1.59
		c2.31,0,4.16-0.5,5.55-1.51c1.39-1.01,2.09-2.35,2.09-4.02c0-1.03-0.2-1.88-0.61-2.55C67.11,27.51,66.44,26.95,65.51,26.51z"/>
	<path class="st2" d="M86.67,18.15c-0.46-0.38-0.97-0.57-1.53-0.57c-0.39,0-0.76,0.1-1.09,0.31c-0.33,0.21-0.6,0.54-0.79,0.98
		l-5.13,11.37l-5.17-11.41c-0.2-0.44-0.47-0.77-0.81-0.98c-0.34-0.21-0.73-0.31-1.14-0.31c-0.62,0-1.16,0.2-1.64,0.59
		c-0.48,0.39-0.72,0.87-0.72,1.44c0,0.32,0.06,0.6,0.18,0.85l6.87,14.28l-2.51,5.28c-0.15,0.34-0.22,0.65-0.22,0.92
		c0,0.54,0.22,0.99,0.65,1.35c0.43,0.36,0.93,0.54,1.49,0.54c0.89,0,1.54-0.42,1.96-1.26l10.08-21.11c0.15-0.3,0.22-0.58,0.22-0.85
		C87.36,19.01,87.13,18.53,86.67,18.15z"/>
	<path class="st2" d="M99.65,17.47c-1.3,0-2.47,0.27-3.51,0.81c-1.03,0.54-1.86,1.32-2.47,2.33v-1c0-0.61-0.2-1.11-0.61-1.49
		c-0.41-0.38-0.93-0.57-1.57-0.57c-0.71,0-1.28,0.2-1.7,0.59c-0.42,0.39-0.63,0.91-0.63,1.55v14.28c0,0.69,0.2,1.23,0.61,1.62
		c0.41,0.39,0.97,0.59,1.68,0.59c0.71,0,1.28-0.2,1.7-0.59c0.42-0.39,0.63-0.93,0.63-1.62v-8.23c0-1.4,0.4-2.52,1.2-3.36
		c0.8-0.84,1.86-1.26,3.19-1.26c1.13,0,1.96,0.32,2.49,0.96c0.53,0.64,0.79,1.66,0.79,3.06v8.82c0,0.69,0.21,1.23,0.63,1.62
		c0.42,0.39,0.98,0.59,1.7,0.59c0.71,0,1.27-0.2,1.68-0.59c0.41-0.39,0.61-0.93,0.61-1.62v-9.08c0-2.49-0.53-4.34-1.59-5.57
		C103.42,18.08,101.81,17.47,99.65,17.47z"/>
	<path class="st2" d="M123.38,30.94c-0.27,0-0.54,0.06-0.81,0.17c-0.27,0.11-0.59,0.28-0.96,0.5c-0.59,0.32-1.13,0.57-1.61,0.76
		c-0.48,0.18-1.03,0.28-1.64,0.28c-1.53,0-2.7-0.5-3.52-1.49c-0.82-1-1.24-2.42-1.24-4.26c0-1.87,0.41-3.3,1.24-4.3
		c0.82-1,2-1.49,3.52-1.49c0.64,0,1.21,0.09,1.7,0.28c0.49,0.18,1.01,0.44,1.55,0.76c0.3,0.17,0.59,0.32,0.89,0.44
		c0.3,0.12,0.58,0.18,0.85,0.18c0.42,0,0.76-0.17,1.02-0.5c0.26-0.33,0.39-0.77,0.39-1.31c0-0.79-0.39-1.44-1.18-1.96
		c-0.74-0.47-1.59-0.84-2.57-1.11c-0.97-0.27-1.94-0.41-2.9-0.41c-1.82,0-3.43,0.39-4.84,1.18c-1.4,0.79-2.49,1.9-3.27,3.34
		c-0.77,1.44-1.16,3.09-1.16,4.96c0,1.87,0.37,3.51,1.11,4.91c0.74,1.4,1.79,2.49,3.16,3.25c1.37,0.76,2.95,1.14,4.74,1.14
		c1.06,0,2.09-0.14,3.1-0.42c1.01-0.28,1.89-0.67,2.66-1.16c0.42-0.25,0.72-0.52,0.9-0.83c0.18-0.31,0.28-0.67,0.28-1.09
		c0-0.52-0.14-0.95-0.41-1.29C124.1,31.11,123.77,30.94,123.38,30.94z"/>
	<path class="st2" d="M144.93,32.45c-0.17,0-0.49,0.17-0.96,0.52c-0.66,0.52-1.36,0.94-2.09,1.26c-0.73,0.32-1.61,0.48-2.64,0.48
		c-2.04,0-3.64-0.68-4.78-2.03c-1.14-1.35-1.72-3.24-1.72-5.65c0-2.46,0.58-4.39,1.73-5.79c1.16-1.4,2.76-2.1,4.8-2.1
		c1.01,0,1.85,0.16,2.53,0.48c0.68,0.32,1.35,0.74,2.01,1.25c0.2,0.15,0.38,0.28,0.55,0.39c0.17,0.11,0.32,0.17,0.44,0.17
		c0.17,0,0.32-0.07,0.44-0.2c0.12-0.14,0.18-0.29,0.18-0.46c0-0.27-0.09-0.52-0.28-0.76c-0.18-0.23-0.51-0.54-0.98-0.9
		c-0.66-0.49-1.43-0.85-2.29-1.09c-0.86-0.23-1.75-0.35-2.66-0.35c-1.6,0-3.02,0.39-4.26,1.16c-1.24,0.78-2.2,1.87-2.88,3.29
		c-0.68,1.42-1.01,3.05-1.01,4.89c0,1.82,0.34,3.43,1.01,4.84c0.68,1.4,1.63,2.49,2.86,3.25c1.23,0.76,2.63,1.14,4.21,1.14
		c0.91,0,1.83-0.15,2.77-0.44c0.93-0.3,1.72-0.68,2.36-1.14c0.49-0.39,0.82-0.69,1-0.89c0.17-0.2,0.26-0.42,0.26-0.66
		c0-0.17-0.06-0.32-0.18-0.44C145.25,32.52,145.11,32.45,144.93,32.45z"/>
	<path class="st2" d="M158.4,18.8c-1.21-0.76-2.6-1.14-4.17-1.14c-1.58,0-2.97,0.38-4.17,1.14c-1.21,0.76-2.14,1.85-2.81,3.25
		c-0.66,1.4-1,3.03-1,4.87c0,1.87,0.33,3.51,1,4.91c0.66,1.4,1.6,2.49,2.81,3.25c1.21,0.76,2.6,1.14,4.17,1.14
		c1.57,0,2.96-0.38,4.17-1.14c1.21-0.76,2.14-1.85,2.81-3.25c0.66-1.4,1-3.04,1-4.91c0-1.85-0.33-3.47-1-4.87
		C160.55,20.64,159.61,19.56,158.4,18.8z M158.9,32.69c-1.1,1.34-2.66,2.01-4.71,2.01c-1.99,0-3.54-0.67-4.63-2.01
		c-1.1-1.34-1.64-3.27-1.64-5.78c0-2.44,0.56-4.34,1.68-5.7c1.12-1.37,2.66-2.05,4.63-2.05c1.97,0,3.51,0.68,4.63,2.05
		c1.12,1.37,1.68,3.27,1.68,5.7C160.55,29.43,160,31.35,158.9,32.69z"/>
	<path class="st2" d="M182.78,17.65c-1.38,0-2.6,0.32-3.65,0.96c-1.06,0.64-1.83,1.51-2.33,2.62c-0.81-2.39-2.66-3.58-5.54-3.58
		c-1.33,0-2.48,0.31-3.45,0.92c-0.97,0.62-1.7,1.5-2.2,2.66v-2.66c0-0.27-0.06-0.48-0.18-0.63c-0.12-0.15-0.31-0.22-0.55-0.22
		c-0.52,0-0.78,0.28-0.78,0.85V35.3c0,0.25,0.07,0.45,0.2,0.61c0.13,0.16,0.33,0.24,0.57,0.24c0.25,0,0.44-0.08,0.57-0.24
		c0.13-0.16,0.2-0.36,0.2-0.61v-9.74c0-1.97,0.5-3.53,1.51-4.69c1.01-1.16,2.39-1.73,4.13-1.73c1.5,0,2.6,0.44,3.29,1.31
		c0.69,0.87,1.03,2.27,1.03,4.19V35.3c0,0.25,0.07,0.45,0.2,0.61c0.13,0.16,0.33,0.24,0.57,0.24c0.25,0,0.44-0.08,0.57-0.24
		c0.14-0.16,0.2-0.36,0.2-0.61v-9.74c0-1.97,0.51-3.53,1.53-4.69c1.02-1.16,2.39-1.73,4.12-1.73c1.5,0,2.6,0.44,3.29,1.31
		c0.69,0.87,1.03,2.27,1.03,4.19V35.3c0,0.25,0.07,0.45,0.2,0.61c0.13,0.16,0.33,0.24,0.57,0.24c0.25,0,0.44-0.08,0.57-0.24
		c0.14-0.16,0.2-0.36,0.2-0.61V24.44C188.69,19.92,186.72,17.65,182.78,17.65z"/>
</g>
</svg>
