<?xml version="1.0" encoding="UTF-8"?>
<svg width="600" height="215" version="1.1" viewBox="0 0 600 215" xml:space="preserve" xmlns="http://www.w3.org/2000/svg"><g transform="translate(-27.952 -78.75)"><g fill="#850122"><path d="m51.274 88.25 34.247 34.6c0.80111 0.80003 1.6022 1 2.8039 1h144.4c1.0012 0 1.6024-1.2 0.60064-2.2l-33.846-34.2c-0.80122-0.8-1.6024-1.2-3.2043-1.2h-144.2c-1.402 0-1.6022 1.2-0.80111 2z"/><path d="m46.267 284.65c-0.20025 0.80014 0.2003 1.5997 1.2017 1.5997h142.4c1.4019 0 2.0025-0.59956 2.4031-1.7998l43.059-138.8c0.40061-1.3997-0.20003-1.7998-1.4019-1.7998h-142.8c-1.2013 0-1.6021 0.40007-2.0026 1.3997z"/><path d="m35.452 244.65c0 1.5997 2.0028 1.5997 2.4033 0l32.645-106.2c0.40056-1.2 0.40056-2-0.60081-3l-32.445-32.2c-0.80111-0.80002-2.0028-0.40001-2.0028 0.6z"/></g><path d="m532.97 207.44c0-19.04 14.344-41.759 38.749-41.759h17.983l-6.4224 20.771c-7.4933 24.883-19.482 40.245-34.039 40.245-10.49 0-16.27-7.3567-16.27-19.257zm-91.413-10.386c-8.9912 29.21 4.7099 49.333 35.752 49.333 4.4959 0 10.49-0.43281 12.203-0.86563 0.85624-0.21641 1.2844-0.64922 1.7125-1.7313l5.3521-18.175c0.21407-1.082 0-1.9477-1.4984-1.7313-4.7099 0.43282-8.9918 0.86563-12.845 0.86563-15.628 0-22.051-8.4381-17.341-23.584l10.918-35.485h31.684c0.85625 0 1.4984-0.43275 1.9266-1.5146l5.5662-18.391c0.21406-1.0819-0.21406-1.731-1.4984-1.731h-31.042l4.0672-13.415c0.21465-0.86551 5.9e-4 -1.5146-0.64218-2.1637l-16.484-15.146c-0.85683-0.86548-1.9271-0.64911-2.3553 0.64911zm-109.18 0.64922c-9.2058 29.643 5.5662 49.116 28.687 49.116 13.273 0 23.763-6.4916 31.256-17.093l-0.21406 13.631c0 1.2979 0.64218 1.7307 1.7125 1.7307h14.772c1.0703 0 1.4984-0.43282 1.9266-1.5143l29.757-97.583c0.42813-1.2982-0.21406-1.9473-1.2844-1.9473h-21.194c-1.0703 0-1.7125 0.43276-1.9266 1.5146l-12.631 41.11c-7.9214 25.532-20.338 40.029-33.397 40.029-13.059 0-18.625-10.386-13.701-26.398l16.699-54.309c0.42813-1.2982-0.21406-1.9473-1.285-1.9473h-21.194c-1.0703 0-1.4984 0.43276-1.9266 1.5146zm-72.146-0.64922c-8.9915 29.21 4.7098 49.333 35.752 49.333 4.4958 0 10.49-0.43281 12.203-0.86563 0.85631-0.21641 1.2844-0.64922 1.7126-1.7313l5.3521-18.175c0.214-1.082 0-1.9477-1.4986-1.7313-4.7098 0.43282-8.9915 0.86563-12.845 0.86563-15.628 0-22.05-8.4381-17.341-23.584l10.918-35.485h31.684c0.85624 0 1.7125-0.43275 1.9266-1.5146l5.5662-18.391c0.21407-1.0819-0.21406-1.731-1.4984-1.731h-31.256l4.0676-13.415c0.21412-0.86551 0-1.5146-0.64225-2.1637l-16.484-15.146c-0.85637-0.86548-1.9267-0.64911-2.3549 0.64911zm281.3 49.765c12.417 0 22.692-5.626 30.4-17.093v13.631c0 1.0814 0.64219 1.7307 1.7125 1.7307h14.771c1.0709 0 1.499-0.43282 1.9271-1.5143l29.972-97.799c0.21406-1.0819-0.21406-1.9473-1.285-1.9473h-46.67c-45.6 0-63.369 40.028-63.369 65.993 0 22.719 13.916 37 32.541 37z" fill="#410002"/></g></svg>
