<svg height="242.464559" viewBox="80 100 630 370" width="412.43141" xmlns="http://www.w3.org/2000/svg" xmlns:xlink="http://www.w3.org/1999/xlink"><radialGradient id="a" cx="396.1699" cy="216.9229" gradientUnits="userSpaceOnUse" r="102.5"><stop offset="0" stop-color="#fff"/><stop offset=".0418" stop-color="#f7f9d8"/><stop offset=".0906" stop-color="#eff2b2"/><stop offset=".1432" stop-color="#e8ed91"/><stop offset=".1994" stop-color="#e2e976"/><stop offset=".2607" stop-color="#dde562"/><stop offset=".3295" stop-color="#dae353"/><stop offset=".412" stop-color="#d9e14b"/><stop offset=".5449" stop-color="#d8e148"/><stop offset=".6791" stop-color="#d6e048"/><stop offset=".7467" stop-color="#cfdd47"/><stop offset=".7994" stop-color="#c2d946"/><stop offset=".8444" stop-color="#b1d245"/><stop offset=".8845" stop-color="#99ca44"/><stop offset=".9206" stop-color="#7bc143"/><stop offset=".927" stop-color="#75c044"/><stop offset="1" stop-color="#073800"/></radialGradient><path d="m148.858 394.863c0 6.857-.98 12.363-2.941 16.516s-4.268 7.518-6.924 10.092c-3.773 3.771-9.055 5.656-15.842 5.656h-.799-27.619v-66.875h21.883c3.291 0 6.107.217 8.451.65s4.451 1.043 6.326 1.828 3.471 1.668 4.787 2.646 2.494 2.029 3.533 3.15c1.795 1.865 3.369 4.068 4.723 6.607 1.354 2.541 2.43 5.484 3.227 8.828s1.195 6.98 1.195 10.902zm-16.125-.869c0-5.438-.818-9.676-2.453-12.717-1.635-3.039-3.6-5.074-5.893-6.105-2.293-1.029-4.631-1.545-7.012-1.545h-6.768v39.625h6.768c4.156 0 7.754-1.254 10.795-3.764s4.563-7.674 4.563-15.494z"/><path d="m190.282 380.664-5.049 17.475c-2.076-2.508-4.178-3.762-6.303-3.762-1.924 0-3.588.828-4.992 2.48-1.406 1.654-2.754 4.713-4.043 9.174v21.096h-13.625v-49.125h13.625v11.918c.859-2.939 2.379-5.807 4.555-8.602 2.176-2.793 4.732-4.191 7.67-4.191 1.543 0 2.891.291 4.043.873 1.15.582 2.524 1.469 4.119 2.664z"/><path d="m233.752 424.668c-1.996 1-3.84 1.805-5.531 2.416s-3.725.918-6.098.918c-2.248 0-3.814-.508-4.697-1.521-.885-1.016-1.516-2.248-1.895-3.697-1.473 1.516-3.107 2.764-4.908 3.746-1.801.98-4.158 1.473-7.074 1.473-2.816 0-5.092-.619-6.828-1.855-1.738-1.236-2.955-2.795-3.652-4.674s-1.045-3.816-1.045-5.809c0-3.02.602-5.516 1.807-7.492 1.203-1.977 2.82-3.59 4.85-4.844s4.719-2.555 8.066-3.904c1.902-.77 3.342-1.355 4.318-1.758s1.705-.715 2.188-.941c.48-.225.988-.514 1.521-.867 0-2.375-.381-4.236-1.143-5.584s-2.41-2.021-4.945-2.021c-2.994 0-5.771.836-8.334 2.508s-4.908 3.826-7.037 6.461v-13.342c1.695-1.555 3.531-2.824 5.506-3.813 1.973-.988 4.035-1.725 6.188-2.211 2.152-.484 4.328-.729 6.531-.729 5.594 0 9.803 1.377 12.625 4.127s4.234 6.539 4.234 11.363v18.965c0 1.803.133 3.146.398 4.031s.752 1.326 1.463 1.326c.859 0 2.023-.465 3.492-1.398zm-18.978-9.41v-11.631c-3.254 1.672-5.629 3.176-7.127 4.51-1.5 1.336-2.248 3.145-2.248 5.426 0 1.641.373 2.895 1.123 3.762.75.869 1.619 1.303 2.611 1.303.939 0 1.873-.328 2.801-.986s1.875-1.453 2.84-2.384z"/><path d="m277.934 388.529h-6.744c2.369 2.639 3.555 5.873 3.555 9.701 0 2.027-.336 3.973-1.004 5.838-.67 1.867-1.654 3.523-2.955 4.971-1.301 1.449-2.902 2.631-4.809 3.549s-4.084 1.473-6.533 1.664c-3.184.16-4.775 1.234-4.775 3.223 0 .77.203 1.332.609 1.684.406.354 1.049.619 1.928.795.877.176 2.359.377 4.445.6 2.348.258 4.529.709 6.549 1.352 2.02.645 3.898 1.996 5.641 4.055 1.742 2.057 2.613 5.002 2.613 8.83 0 3.055-.652 5.758-1.955 8.107-1.303 2.348-3.408 4.182-6.318 5.502-2.91 1.318-6.756 1.979-11.537 1.979-6.883 0-11.936-1.178-15.162-3.527-3.227-2.354-4.838-5.496-4.838-9.428 0-1.063.207-2.287.625-3.672.418-1.389 1.303-2.725 2.656-4.014s3.32-2.16 5.902-2.609c-.912-.416-1.697-1.225-2.354-2.426-.658-1.201-.986-2.459-.986-3.771 0-1.697.461-3.379 1.385-5.045.922-1.664 2.422-2.738 4.496-3.219-2.883-.967-5.375-2.787-7.475-5.463s-3.148-6.141-3.148-10.395c0-3.223.486-6.041 1.461-8.459.973-2.418 2.32-4.383 4.041-5.898s3.719-2.635 5.996-3.361c2.277-.725 4.77-1.088 7.477-1.088h21.215v10.525zm-12.342 47.75c0-2.148-.906-3.535-2.719-4.16s-3.684-.938-5.609-.938c-3.168 0-5.457.424-6.863 1.275-1.406.848-2.109 2.203-2.109 4.063 0 3.654 2.914 5.482 8.746 5.482 2.609 0 4.688-.475 6.234-1.418 1.547-.946 2.32-2.382 2.32-4.304zm-2.722-39.429c0-2.482-.668-4.473-2-5.973s-2.824-2.25-4.473-2.25c-2.107 0-3.764.904-4.969 2.709-1.207 1.805-1.809 3.707-1.809 5.707 0 1.387.26 2.676.779 3.869s1.256 2.152 2.209 2.877c.951.727 2.088 1.088 3.408 1.088 1.98 0 3.617-.789 4.912-2.369 1.294-1.58 1.943-3.467 1.943-5.658z"/><path d="m325.553 402.516c0 4.893-.836 9.254-2.504 13.082s-4.164 6.854-7.488 9.074-7.375 3.33-12.152 3.33-8.828-1.109-12.152-3.33c-3.324-2.219-5.814-5.244-7.471-9.074-1.656-3.828-2.482-8.189-2.482-13.082 0-3.699.461-7.063 1.383-10.088.922-3.023 2.326-5.703 4.209-8.035s4.203-4.127 6.959-5.383c2.754-1.254 5.939-1.883 9.555-1.883 3.641 0 6.857.637 9.65 1.906 2.793 1.271 5.105 3.049 6.938 5.334s3.217 4.957 4.152 8.014 1.403 6.435 1.403 10.135zm-14.375 0c0-3.873-.664-6.906-1.99-9.1-1.326-2.191-3.252-3.289-5.779-3.289-2.502 0-4.416 1.098-5.742 3.289-1.326 2.193-1.988 5.227-1.988 9.1 0 3.844.668 6.885 2.008 9.125 1.34 2.242 3.246 3.361 5.723 3.361 2.527 0 4.453-1.111 5.779-3.338 1.325-2.225 1.989-5.273 1.989-9.148z"/><path d="m373.964 427.127h-13.625v-25.512-1.015c0-2.705-.35-5.064-1.049-7.078-.699-2.012-2.232-3.02-4.598-3.02-1.119 0-2.105.266-2.957.797s-1.615 1.217-2.289 2.055-1.24 1.643-1.697 2.416-.928 1.594-1.41 2.463v28.895h-13.625v-49.125h13.625v7.016c2.152-2.918 4.313-4.963 6.479-6.135 2.166-1.17 4.578-1.756 7.238-1.756 9.271 0 13.908 7.047 13.908 21.139z"/><path d="m455.884 400.127h-21.83v27h-15.875v-66.875h37.705v13.375h-21.83v13h21.83z"/><path d="m478.685 427.127h-13.625v-66.875h13.625z"/><path d="m529.505 378.002-26.271 71.5h-13.818l10.629-28.773-15.299-42.727h14.691l7.859 24.375 8.922-24.375z"/><path d="m583.837 408.158c0 5.762-1.553 10.363-4.656 13.805-3.105 3.443-7.445 5.164-13.02 5.164h-30.449v-66.875h25.465c3.293 0 6.162.402 8.607 1.207s4.414 1.904 5.91 3.303c1.494 1.398 2.609 3.047 3.344 4.945s1.104 3.971 1.104 6.221c0 2.445-.381 4.703-1.143 6.777s-1.709 3.779-2.838 5.113c-1.131 1.336-2.268 2.275-3.41 2.822 3.605 1.803 6.355 4.08 8.248 6.83 1.891 2.751 2.838 6.313 2.838 10.688zm-18.582-28.656c0-3.211-.836-5.348-2.506-6.408-1.672-1.061-4.277-1.592-7.82-1.592h-3.342v16h3.418c3.617 0 6.23-.529 7.838-1.59s2.412-3.197 2.412-6.41zm2.582 27.836c0-5.723-3.266-8.586-9.795-8.586h-6.455v17.125h6.455c6.529 0 9.795-2.846 9.795-8.539z" fill="#ed1c24"/><path d="m630.716 407.631c0 4.195-.842 7.824-2.525 10.889s-4.031 5.41-7.043 7.039-6.467 2.443-10.363 2.443c-1.09 0-2.424-.09-4.006-.266-1.582-.18-3.684-.67-6.303-1.479-2.621-.809-5.348-2.004-8.182-3.59v-16.447c2.656 2.09 5.27 3.826 7.838 5.209s5.32 2.072 8.256 2.072c2.707 0 4.461-.568 5.258-1.707s1.195-2.205 1.195-3.201c0-1.797-.688-3.313-2.061-4.547-1.375-1.234-3.371-2.51-5.992-3.826-2.877-1.541-5.4-3.219-7.568-5.033-2.17-1.813-3.941-4.084-5.316-6.814s-2.063-5.957-2.063-9.682c0-3.596.695-6.848 2.088-9.754 1.391-2.906 3.518-5.225 6.377-6.959s6.354-2.602 10.479-2.602c2.936 0 5.65.363 8.143 1.086 2.492.725 4.549 1.537 6.17 2.438 1.619.9 2.732 1.607 3.34 2.121v15.676c-2.156-1.961-4.561-3.713-7.211-5.256s-5.484-2.314-8.504-2.314c-1.979 0-3.412.482-4.299 1.443-.889.963-1.332 2.15-1.332 3.561 0 1.316.445 2.455 1.336 3.418s2.48 2.133 4.771 3.512c4.053 2.406 7.295 4.572 9.727 6.498s4.338 4.146 5.719 6.664c1.379 2.519 2.071 5.654 2.071 9.408z" fill="#ed1c24"/><path d="m695.674 394.863c0 6.857-.98 12.363-2.941 16.516s-4.268 7.518-6.924 10.092c-3.773 3.771-9.055 5.656-15.842 5.656h-.799-27.619v-66.875h21.883c3.291 0 6.107.217 8.451.65s4.451 1.043 6.326 1.828 3.471 1.668 4.787 2.646 2.494 2.029 3.533 3.15c1.795 1.865 3.369 4.068 4.723 6.607 1.354 2.541 2.43 5.484 3.227 8.828s1.195 6.98 1.195 10.902zm-16.125-.869c0-5.438-.818-9.676-2.453-12.717-1.635-3.039-3.6-5.074-5.893-6.105-2.293-1.029-4.631-1.545-7.012-1.545h-6.768v39.625h6.768c4.156 0 7.754-1.254 10.795-3.764s4.563-7.674 4.563-15.494z" fill="#ed1c24"/><circle cx="396.17" cy="216.923" fill="url(#a)" r="102.5" stroke="#000" stroke-width="9"/><path d="m387.045 247.64h18.25c0 68.9-6.1 207.49-9.13 207.49-3.02 0-9.12-138.59-9.12-207.49z" fill="#ed1c24"/><g stroke="#000"><path d="m387.045 247.64c0 68.9 6.1 207.49 9.12 207.49" fill="none" stroke-width="6"/><path d="m405.295 247.64c0 68.9-6.1 207.49-9.13 207.49" fill="none" stroke-width="6"/><path d="m387.045 247.64h18.25" fill="none" stroke-width="6"/><path d="m387.2 271.201h17.953" fill="none" stroke-width="6"/><path d="m387.615 291.768h17.09" fill="none" stroke-width="6"/><path d="m388.135 312.334h16.071" fill="none" stroke-width="6"/><path d="m388.766 332.883h14.808" fill="none" stroke-width="6"/><path d="m389.535 353.43h13.307" fill="none" stroke-width="6"/><path d="m390.331 373.951h11.679" fill="none" stroke-width="6"/><path d="m391.274 394.473h9.791" fill="none" stroke-width="6"/></g><ellipse cx="396.166" cy="216.923" fill="#ed1c24" rx="17.08" ry="40.27"/><ellipse cx="396.17" cy="216.923" fill="none" rx="17.075" ry="40.27" stroke="#000" stroke-width="6"/><path d="m413.229 173.491c0 4.07-2.04 7.75-5.319 10.35h-.01l-6.971-24.05c7.111 1.72 12.3 7.2 12.3 13.7z" fill="#fde92b"/><path d="m400.93 159.791 6.971 24.05c-2.631 0-7.061-12.35-9.66-24.51.919.09 1.819.24 2.689.46z" fill="#fde92b"/><path d="m407.9 183.841c-3.061 2.43-7.19 3.92-11.741 3.92-4.55 0-8.68-1.49-11.74-3.92 2.63 0 7.06-12.35 9.66-24.51.68-.07 1.37-.11 2.08-.11s1.4.04 2.081.11c2.6 12.16 7.03 24.51 9.66 24.51z" fill="#9a090d"/><path d="m396.16 143.331 4.77 16.46c-.87-.22-1.77-.37-2.689-.46-1.251-5.84-2.081-11.63-2.081-16z" fill="#9a090d"/><path d="m398.24 159.331c-.681-.07-1.37-.11-2.081-.11-.71 0-1.4.04-2.08.11 1.25-5.84 2.08-11.63 2.08-16 .001 4.37.831 10.16 2.081 16z"/><path d="m391.39 159.791 4.77-16.46c0 4.37-.83 10.16-2.08 16-.92.09-1.82.25-2.69.46z"/><path d="m394.08 159.331c-2.6 12.16-7.03 24.51-9.66 24.51l6.97-24.05c.87-.21 1.77-.37 2.69-.46z" fill="#fde92b"/><path d="m391.39 159.791-6.97 24.05c-3.28-2.6-5.32-6.28-5.32-10.35 0-6.49 5.19-11.98 12.29-13.7z" fill="#fde92b"/><path d="m394.08 159.331c.68-.07 1.37-.11 2.08-.11s1.4.04 2.081.11c.92.09 1.819.24 2.689.46 7.11 1.72 12.3 7.2 12.3 13.7 0 4.07-2.04 7.75-5.319 10.35h-.01c-3.061 2.43-7.19 3.92-11.741 3.92-4.55 0-8.68-1.49-11.74-3.92-3.28-2.6-5.32-6.28-5.32-10.35 0-6.49 5.19-11.98 12.29-13.7.87-.21 1.77-.37 2.69-.46z" fill="none" stroke="#000" stroke-width="5.6"/><path d="m384.42 183.841c2.63 0 7.06-12.35 9.66-24.51 1.25-5.84 2.08-11.63 2.08-16" fill="none" stroke="#000" stroke-width="5.6"/><path d="m396.16 143.331c0 4.37.83 10.16 2.081 16 2.6 12.16 7.029 24.51 9.66 24.51" fill="none" stroke="#000" stroke-width="5.6"/><path d="m396.16 210.652s-101.311 12.43-135.318-51.591c-30.549-57.507 135.334 44.339 135.334 44.339z" fill="#fff" stroke="#000" stroke-width="6"/><path d="m396.176 229.752s-80.307 59.485-138.895 18.468c-52.632-36.84 138.895-25.42 138.895-25.42z" fill="#fff" stroke="#000" stroke-width="6"/><path d="m396.176 210.6s101.311 12.43 135.317-51.591c30.549-57.507-135.333 44.339-135.333 44.339z" fill="#fff" stroke="#000" stroke-width="6"/><path d="m396.16 229.7s80.307 59.485 138.895 18.468c52.631-36.84-138.895-25.42-138.895-25.42z" fill="#fff" stroke="#000" stroke-width="6"/></svg>