<?xml version="1.0" encoding="UTF-8" standalone="no"?>
<svg
   width="605"
   height="179"
   color-interpolation="linearRGB"
   version="1.1"
   id="svg39"
   xmlns="http://www.w3.org/2000/svg"
   xmlns:svg="http://www.w3.org/2000/svg">
  <defs
     id="defs43" />
  <g
     id="g37">
    <path
       style="fill:#000000;fill-opacity:1"
       d="M44.02 33.02v106.92h13.95v-106.92h-13.95v0z"
       id="path2" />
    <path
       style="fill:#000000;fill-opacity:1"
       d="M107.01 33.02c0 35.53 0 71.38 0 106.92h13.95v-106.92h-13.95v0z"
       id="path4" />
    <path
       style="fill:#000000;fill-opacity:1"
       d="M209.52 28.18l-50.42 111.76h14.09l36.32 -81.58l35.27 81.58h14.08l-49.36 -111.76h0z"
       id="path6" />
    <path
       style="fill:#000000;fill-opacity:1"
       d="M297.01 33.02v106.92h13.96v-106.92h-13.96v0z"
       id="path8" />
    <path
       style="fill:#000000;fill-opacity:1"
       d="M361.01 33.02v106.92h13.93v-44.5l4.48 -5.36l39.48 49.88h17.52l-47.73 -58.93l47 -48h-16.98l-43.79 46.3v-46.3h-13.92l0 -0z"
       id="path10" />
    <path
       style="fill:#000000;fill-opacity:1"
       d="M537.01 33.02v64.28c0 10.23 -2.13 18.19 -6.28 23.88c-4.13 5.68 -10.54 7.88 -19.21 7.88c-9.08 0 -15.39 -3.48 -19.21 -9.71c-3.83 -6.23 -5.32 -12.52 -5.32 -20.91v-65.41h-13.92v68.64c0 6.48 1.57 12.99 4.27 19.15c2.69 6.16 6.98 11.09 12.72 15.12c5.71 4.02 12.96 5.94 21.46 6.03c5.61 0 10.77 -0.83 15.47 -2.78c4.7 -1.97 8.75 -4.8 12.19 -8.47c3.41 -3.67 6.03 -8.03 7.88 -13.1c1.82 -5.04 2.92 -10.58 2.92 -16.61v-67.97h-12.97v-0z"
       id="path12" />
    <radialGradient
       id="gradient0"
       gradientUnits="userSpaceOnUse"
       cx="0"
       cy="0"
       r="200"
       gradientTransform="matrix(0.2836,-0.2527,-0.3788,-0.4255,512.8768,120.2052)">
      <stop
         offset="0"
         stop-color="#ffa600"
         id="stop14" />
      <stop
         offset="1"
         stop-color="#ffee9c"
         id="stop16" />
    </radialGradient>
    <path
       style="fill:url(#gradient0)"
       d="M519.97 88.69c-3 15.72 0.8 27.54 8.95 36.36c0.14 -2.41 1.1 -4.13 1.89 -5.55c0.85 15.16 12.33 15.6 17.07 17.36c0.19 -1.78 -1.48 -2.73 -0.14 -6.97c1.53 3.3 2.96 5.17 4.78 7.94c2.76 0.69 5.75 2.51 8.73 2.88c3.67 0.46 8.57 0.9 12.63 1.24c-0.04 -1.86 0.5 -2.61 1.19 -3.79c0.47 1.44 1.12 2.77 1.94 3.99c4.2 -0.36 7.86 0.96 9.85 2.18c-2.2 -8.98 -8.63 -18.15 -14.44 -24.05c-3.41 -1.01 -5.89 0.68 -10.51 2.63c0.92 -2.63 2.84 -4.77 6.6 -6.02c-4.61 -3.81 -9.66 -7.14 -14.69 -10.28c-1.95 -1.21 -7.78 -3.5 -10.36 -5.37c-2.54 -0.04 -4.89 0.06 -7.03 0.3c1.46 -1.01 2.78 -2.2 4.39 -3.08c-6.63 -7.38 -11.72 -10.45 -19.63 -12.63c-7.15 -10.95 -10.42 -26.35 -8.66 -27.35l-4.13 2.35c0 0 3.68 17.08 11.55 27.83l0.01 0.02z"
       id="path19" />
    <radialGradient
       id="gradient1"
       gradientUnits="userSpaceOnUse"
       cx="0"
       cy="0"
       r="200"
       gradientTransform="matrix(0.6661,-0.0701,0.0251,0.2389,207.932,85.249)">
      <stop
         offset="0"
         stop-color="#ff7200"
         id="stop21" />
      <stop
         offset="1"
         stop-color="#ffaa00"
         id="stop23" />
    </radialGradient>
    <path
       style="fill:url(#gradient1)"
       d="M251.6 113c-8.4 -17.4 -20.6 -26.08 -34.81 -28.76c1.59 2.43 1.9 4.79 2.16 6.73c-11.73 -14.06 -23.16 -6.23 -29.02 -4.55c1.1 1.87 3.4 1.59 5.15 6.65c-3.87 -2.08 -6.6 -2.87 -10.35 -4.23c-3.18 1.29 -7.38 1.69 -10.54 3.47c-3.89 2.19 -8.95 5.27 -13.12 7.88c1.38 1.77 1.38 2.89 1.55 4.52c-1.5 -1.04 -3.08 -1.86 -4.75 -2.45c-3.8 3.37 -8.32 4.72 -11.11 4.97c8.59 7.1 21.41 11.35 31.27 12.89c4.02 -1.46 5.19 -4.89 8.27 -10.11c0.97 3.22 0.66 6.68 -2.05 10.59c7.22 0.37 14.5 -0.02 21.61 -0.59c2.77 -0.22 10.05 -2.2 13.91 -2.24c2.5 -1.78 4.67 -3.57 6.58 -5.35c-0.68 2.04 -1.11 4.14 -2.02 6.15c11.72 2.38 18.88 1.69 28.09 -1.87c14.82 5.46 29.05 18.01 28.05 20.25l2.32 -5.25c0 0 -15.85 -13.9 -31.2 -18.65v-0.04z"
       id="path26" />
    <radialGradient
       id="gradient2"
       gradientUnits="userSpaceOnUse"
       cx="0"
       cy="0"
       r="200"
       gradientTransform="matrix(0.8307,-0.3373,0.1335,0.2809,69.4186,116.0485)">
      <stop
         offset="0"
         stop-color="#33a02c"
         id="stop28" />
      <stop
         offset="1"
         stop-color="#a9ff00"
         id="stop30" />
    </radialGradient>
    <path
       style="fill:url(#gradient2)"
       d="M39.7 101.52c13.95 13.37 28.42 17.25 42.67 14.8c-2.34 -1.72 -3.45 -3.83 -4.38 -5.56c15.92 9.08 23.88 -2.22 28.79 -5.86c-1.69 -1.37 -3.75 -0.3 -7.15 -4.43c4.35 0.59 7.18 0.37 11.19 0.36c2.51 -2.33 6.31 -4.16 8.66 -6.94c2.88 -3.41 6.54 -8.08 9.54 -11.97c-1.93 -1.18 -2.31 -2.22 -3.04 -3.69c1.76 0.44 3.54 0.66 5.31 0.63c2.37 -4.5 6.13 -7.33 8.66 -8.52c-10.54 -3.66 -24.04 -3.16 -33.81 -1.16c-3.26 2.79 -3.16 6.41 -4.22 12.38c-2.05 -2.67 -2.97 -6.02 -1.76 -10.65c-6.88 2.16 -13.58 5.08 -20.04 8.11c-2.5 1.17 -8.65 5.56 -12.25 6.96c-1.7 2.54 -3.12 4.98 -4.29 7.32c-0.07 -2.15 -0.41 -4.27 -0.24 -6.48c-11.83 1.84 -18.29 5.01 -25.67 11.56c-15.79 0.05 -33.5 -6.72 -33.36 -9.16l-0.33 5.72c0 0 19.72 7.48 35.75 6.58h-0.02z"
       id="path33" />
  </g>
</svg>
