<?xml version="1.0" encoding="UTF-8" standalone="no"?>
<!-- Created with Inkscape (http://www.inkscape.org/) -->

<svg
   xmlns:dc="http://purl.org/dc/elements/1.1/"
   xmlns:cc="http://creativecommons.org/ns#"
   xmlns:rdf="http://www.w3.org/1999/02/22-rdf-syntax-ns#"
   xmlns:svg="http://www.w3.org/2000/svg"
   xmlns="http://www.w3.org/2000/svg"
   xmlns:sodipodi="http://sodipodi.sourceforge.net/DTD/sodipodi-0.dtd"
   xmlns:inkscape="http://www.inkscape.org/namespaces/inkscape"
   width="357"
   height="279"
   id="svg3295"
   version="1.1"
   inkscape:version="0.48.4 r9939"
   sodipodi:docname="National_Olympic_Committee_of_Lithuania_logo.svg">
  <defs
     id="defs3297">
    <clipPath
       id="clipPath5208"
       clipPathUnits="userSpaceOnUse">
      <path
         id="path5210"
         d="m 259.02,672 93.96,0 0,90 -93.96,0 0,-90 z"
         inkscape:connector-curvature="0" />
    </clipPath>
    <clipPath
       id="clipPath5168"
       clipPathUnits="userSpaceOnUse">
      <path
         id="path5170"
         d="m 303.707,751.075 c -0.385,-0.477 -0.979,-0.703 -1.773,-0.457 l 0,0 c -0.83,0.256 -1.84,0.797 -2.425,1.19 l 0,0 c 0.492,-2.044 1.17,-4.564 1.716,-6.735 l 0,0 c 0.134,-0.535 0.356,-1.196 -0.179,-1.328 l 0,0 c -0.64,-0.161 -1.18,0.409 -1.479,0.687 l 0,0 c -1.062,0.992 -2.134,2.125 -3.193,2.887 l 0,0 c -0.066,-0.399 -0.298,-0.868 -0.532,-1.239 l 0,0 c -0.19,-0.299 -0.545,-0.668 -1.006,-0.731 l 0,0 c -0.611,-0.086 -1.63,0.116 -2.484,0.227 l 0,0 c -0.847,0.113 -1.661,0.272 -2.307,0.322 l 0,0 c 0.368,-0.86 0.833,-2.091 1.243,-3.115 l 0,0 c 0.156,-0.395 0.391,-0.77 0.355,-1.054 l 0,0 c -0.116,-0.876 -1.544,-1.096 -2.425,-1.239 l 0,0 c 0.121,-0.073 0.244,-0.146 0.366,-0.218 l 0,0 c 4.347,1.13 9.975,2.091 16.548,2.092 l 0,0 c 6.575,-10e-4 12.203,-0.962 16.549,-2.092 l 0,0 c 0.123,0.072 0.245,0.145 0.368,0.218 l 0,0 c -0.883,0.143 -2.312,0.363 -2.427,1.239 l 0,0 c -0.037,0.284 0.199,0.659 0.355,1.054 l 0,0 c 0.409,1.024 0.875,2.255 1.243,3.115 l 0,0 c -0.645,-0.05 -1.46,-0.209 -2.307,-0.322 l 0,0 c -0.853,-0.111 -1.874,-0.313 -2.485,-0.227 l 0,0 c -0.461,0.063 -0.815,0.432 -1.003,0.731 l 0,0 c -0.236,0.371 -0.467,0.84 -0.535,1.239 l 0,0 c -1.058,-0.762 -2.13,-1.895 -3.192,-2.887 l 0,0 c -0.299,-0.278 -0.839,-0.848 -1.48,-0.687 l 0,0 c -0.534,0.132 -0.312,0.793 -0.177,1.328 l 0,0 c 0.545,2.171 1.222,4.691 1.714,6.735 l 0,0 c -0.584,-0.393 -1.594,-0.934 -2.424,-1.19 l 0,0 c -0.795,-0.246 -1.389,-0.02 -1.773,0.457 l 0,0 c -0.22,0.274 -1.912,3.664 -2.426,4.491 l 0,0 c -0.515,-0.827 -2.204,-4.217 -2.425,-4.491"
         inkscape:connector-curvature="0" />
    </clipPath>
    <clipPath
       id="clipPath5156"
       clipPathUnits="userSpaceOnUse">
      <path
         id="path5158"
         d="m 283.242,759.362 0,-21.128 c 4.31,1.679 12.394,4.129 22.89,4.13 l 0,0 c 10.406,-10e-4 18.44,-2.407 22.776,-4.086 l 0,0 0,21.084 -45.666,0 z"
         inkscape:connector-curvature="0" />
    </clipPath>
    <clipPath
       id="clipPath5144"
       clipPathUnits="userSpaceOnUse">
      <path
         id="path5146"
         d="m 259.02,672 93.96,0 0,90 -93.96,0 0,-90 z"
         inkscape:connector-curvature="0" />
    </clipPath>
    <clipPath
       id="clipPath4074"
       clipPathUnits="userSpaceOnUse">
      <path
         id="path4076"
         d="M 0,0 792,0 792,612 0,612 0,0 z"
         inkscape:connector-curvature="0" />
    </clipPath>
    <clipPath
       id="clipPath4070"
       clipPathUnits="userSpaceOnUse">
      <path
         id="path4072"
         d="M 0,0 792,0 792,612 0,612 0,0 z"
         inkscape:connector-curvature="0" />
    </clipPath>
    <clipPath
       id="clipPath4066"
       clipPathUnits="userSpaceOnUse">
      <path
         id="path4068"
         d="m 332.598,243.597 c -2.835,-5.629 -1.151,-9.057 -1.151,-9.057 l 0,0 c 6.56,-9.318 17.462,-1.405 17.462,-1.405 l 0,0 83.893,0 c 0,0 10.903,-7.913 17.462,1.405 l 0,0 c 0,0 1.684,3.428 -1.15,9.057 l 0,0 -58.275,101.993 -58.241,-101.993 z"
         inkscape:connector-curvature="0" />
    </clipPath>
    <clipPath
       id="clipPath4062"
       clipPathUnits="userSpaceOnUse">
      <path
         id="path4064"
         d="M 0,0 792,0 792,612 0,612 0,0 z"
         inkscape:connector-curvature="0" />
    </clipPath>
    <clipPath
       id="clipPath4058"
       clipPathUnits="userSpaceOnUse">
      <path
         id="path4060"
         d="M 0,0 792,0 792,612 0,612 0,0 z"
         inkscape:connector-curvature="0" />
    </clipPath>
    <clipPath
       id="clipPath4054"
       clipPathUnits="userSpaceOnUse">
      <path
         id="path4056"
         d="m 453.785,320.137 -124.878,0 c -0.76,0 -1.615,-0.151 -2.566,-0.454 l 0,0 c -0.949,-0.306 -1.73,-0.683 -2.335,-1.142 l 0,0 -6.155,-5.362 c -0.607,-0.381 -1.122,-1.008 -1.536,-1.883 l 0,0 c -0.42,-0.873 -0.629,-1.691 -0.629,-2.448 l 0,0 0,-7.189 c 0,-0.765 0.209,-1.562 0.629,-2.396 l 0,0 c 0.414,-0.837 0.929,-1.484 1.536,-1.94 l 0,0 6.155,-5.359 c 0.605,-0.382 1.386,-0.743 2.335,-1.083 l 0,0 c 0.951,-0.347 1.806,-0.518 2.566,-0.518 l 0,0 7.975,0 9.996,0 113.197,12.587 c 0,0 12.042,4.874 5.136,14.271 l 0,0 c 0,0 -2.74,2.916 -11.39,2.916 l 0,0 c -0.012,0 -0.023,0 -0.036,0"
         inkscape:connector-curvature="0" />
    </clipPath>
    <clipPath
       id="clipPath4050"
       clipPathUnits="userSpaceOnUse">
      <path
         id="path4052"
         d="M 0,0 792,0 792,612 0,612 0,0 z"
         inkscape:connector-curvature="0" />
    </clipPath>
    <clipPath
       id="clipPath4046"
       clipPathUnits="userSpaceOnUse">
      <path
         id="path4048"
         d="m 444.482,289.331 -11.643,0 -111.55,-12.586 c 0,0 -12.046,-4.875 -5.136,-14.272 l 0,0 c 0,0 2.747,-2.929 11.424,-2.919 l 0,0 124.879,0 c 0.758,0 1.611,0.152 2.561,0.458 l 0,0 c 0.953,0.306 1.733,0.683 2.34,1.141 l 0,0 6.151,5.361 c 0.611,0.384 1.122,1.007 1.539,1.881 l 0,0 c 0.421,0.878 0.629,1.694 0.629,2.455 l 0,0 0,7.185 c 0,0.765 -0.208,1.561 -0.629,2.399 l 0,0 c -0.417,0.837 -0.928,1.481 -1.539,1.938 l 0,0 -6.151,5.362 c -0.607,0.381 -1.387,0.739 -2.34,1.082 l 0,0 c -0.95,0.342 -1.803,0.515 -2.561,0.515 l 0,0 -7.974,0 z"
         inkscape:connector-curvature="0" />
    </clipPath>
    <clipPath
       id="clipPath4042"
       clipPathUnits="userSpaceOnUse">
      <path
         id="path4044"
         d="M 0,0 792,0 792,612 0,612 0,0 z"
         inkscape:connector-curvature="0" />
    </clipPath>
    <clipPath
       id="clipPath4038"
       clipPathUnits="userSpaceOnUse">
      <path
         id="path4040"
         d="M 0,0 792,0 792,612 0,612 0,0 z"
         inkscape:connector-curvature="0" />
    </clipPath>
    <clipPath
       id="clipPath4034"
       clipPathUnits="userSpaceOnUse">
      <path
         id="path4036"
         d="m 253.717,286.27 c 0,-75.678 61.345,-137.026 137.024,-137.026 l 0,0 c 75.675,0 137.023,61.348 137.023,137.026 l 0,0 c 0,75.675 -61.348,137.021 -137.023,137.021 l 0,0 c -75.679,0 -137.024,-61.346 -137.024,-137.021"
         inkscape:connector-curvature="0" />
    </clipPath>
    <clipPath
       clipPathUnits="userSpaceOnUse"
       id="clipPath2999">
      <path
         inkscape:connector-curvature="0"
         d="m 461.9,268.95 150.1,0 0,523.05 -150.1,0 0,-523.05 z"
         id="path3001" />
    </clipPath>
    <clipPath
       clipPathUnits="userSpaceOnUse"
       id="clipPath3013">
      <path
         inkscape:connector-curvature="0"
         d="m 539.04,45.84 39.96,0 0,47.924 -39.96,0 0,-47.924 z"
         id="path3015" />
    </clipPath>
    <clipPath
       clipPathUnits="userSpaceOnUse"
       id="clipPath3027">
      <path
         inkscape:connector-curvature="0"
         d="m 539.041,45.84 39.959,0 0,47.924 -39.959,0 0,-47.924 z"
         id="path3029" />
    </clipPath>
    <clipPath
       id="clipPath8695">
      <path
         id="path8697"
         d="m -33.024,-84.5 0,42.915 18.284,0 0,-42.915 -18.284,0 z"
         inkscape:connector-curvature="0" />
    </clipPath>
  </defs>
  <sodipodi:namedview
     id="base"
     pagecolor="#ffffff"
     bordercolor="#666666"
     borderopacity="1.0"
     inkscape:pageopacity="0.0"
     inkscape:pageshadow="2"
     inkscape:zoom="0.7"
     inkscape:cx="601.25428"
     inkscape:cy="-14.620572"
     inkscape:document-units="px"
     inkscape:current-layer="g3613"
     showgrid="false"
     inkscape:window-width="1513"
     inkscape:window-height="1069"
     inkscape:window-x="28"
     inkscape:window-y="46"
     inkscape:window-maximized="0" />
  <metadata
     id="metadata3300">
    <rdf:RDF>
      <cc:Work
         rdf:about="">
        <dc:format>image/svg+xml</dc:format>
        <dc:type
           rdf:resource="http://purl.org/dc/dcmitype/StillImage" />
        <dc:title></dc:title>
      </cc:Work>
    </rdf:RDF>
  </metadata>
  <g
     inkscape:label="Layer 1"
     inkscape:groupmode="layer"
     id="layer1"
     transform="translate(0,-773.36218)">
    <g
       id="g3613"
       transform="matrix(0.97277831,0,0,0.97277831,5.682844,741.90593)">
      <g
         id="g6"
         style="stroke-width:0.40052065;stroke-miterlimit:10"
         transform="matrix(0.85013793,0,0,0.83216122,-5.8959909,-384.90121)">
        <g
           id="g8"
           style="stroke-width:0.40052065"
           transform="matrix(0.1,0,0,-0.1,0,840)">
          <path
             id="path10"
             style="fill:#777777;stroke:none"
             d="m 834,3091.06 c 0,0 -12.27,28.54 -46.87,9.44 -28.77,-15.96 -13.809,-45.43 -13.809,-45.43 l 540.689,-1143.34 131.16,0 -611.179,1179.33"
             inkscape:connector-curvature="0" />
          <path
             id="path12"
             style="fill:#777777;stroke:none"
             d="m 2368.8,129.319 -409.04,789.41 -176.15,0 410.89,-868.8093 c 0,0 41.41,-81.7698 130.26,-36.5695 88.82,45.1997 44.06,115.9698 44.06,115.9698"
             inkscape:connector-curvature="0" />
          <path
             id="path14"
             style="fill:#f26711;stroke:none"
             d="m 3876.46,3169.4 c -512.64,246.04 -976.45,128.54 -1495.2,-26.7 -522.23,-156.2 -986.75,-240.74 -1508.58,-27.83 56.85,-101.58 85.31,-152.36 142.19,-253.86 52.22,-93.37 104.51,-186.73 156.75,-280.06 56.87,-101.56 85.3,-152.3 142.18,-253.84 415.48,-117.43 759.56,34.86 1128.77,219.44 443.36,221.52 843.83,420.81 1350.39,305.34 -428.09,214.37 -816.17,161.24 -1263.79,39.8 438.24,223.1 850.84,396.62 1347.29,277.71"
             inkscape:connector-curvature="0" />
          <path
             id="path16"
             style="fill:#f26711;stroke:none"
             d="m 840.76,1344.47 c 0,-85.64 0,-168.57 2.629,-212.09 -9.199,-15.74 -46.08,-30.3 -77.68,-30.3 -1.329,0 -44.799,67.2 -106.689,143.63 l -304.25,376.73 c -75.049,94.85 -119.84,148.83 -143.55,168.6 -6.57,-13.15 -6.57,-35.53 -6.57,-84.28 l 0,-255.59 c 0,-106.7 5.25,-205.46 19.75,-241.06 11.859,-27.64 42.139,-35.55 76.379,-42.1 l 36.88,-5.3 c 10.519,-10.56 7.9,-38.24 0,-46.07 -71.12,2.57 -123.8,3.95 -176.48,3.95 -48.729,0 -97.4492,-1.38 -147.4892,-3.95 -7.9095,7.83 -10.5399,35.51 0,46.07 l 22.3798,3.96 c 35.5598,7.91 60.57,15.8 72.4194,43.44 13.17,35.6 18.45,134.36 18.45,241.06 l 0,334.61 c 0,72.42 0,93.48 -9.219,111.93 -9.23,22.4 -28.98,35.59 -75.0797,44.79 l -36.86,5.29 c -9.2192,10.54 -7.9093,42.15 5.2496,46.08 61.9094,-2.57 127.7491,-3.93 181.7701,-3.93 44.769,0 82.969,1.32 110.629,3.94 13.19,-59.27 98.79,-159.35 217.31,-300.33 l 110.63,-130.42 c 59.28,-68.5 96.149,-114.56 126.46,-144.9 5.259,13.2 5.259,35.62 5.259,59.28 l 0,181.81 c 0,106.68 -5.259,205.48 -19.77,241.1 -11.859,27.62 -40.82,35.49 -76.379,42.08 l -35.57,5.29 c -10.52,10.54 -7.89,38.19 0,46.08 71.139,-2.57 122.5,-3.93 176.5,-3.93 48.709,0 96.139,1.32 147.51,3.94 7.909,-7.9 10.519,-35.55 0,-46.11 l -23.71,-3.93 c -34.229,-7.93 -59.27,-15.8 -71.139,-43.49 C 846.07,1864.8 840.781,1766 840.781,1659.28 l 0,-314.83"
             inkscape:connector-curvature="0" />
          <path
             id="path18"
             style="fill:#f26711;stroke:none"
             d="m 1153.67,1490.7 c 18.47,0 39.51,2.67 54.03,11.84 6.58,4.03 9.18,17.21 9.18,30.28 0,43.49 -25,72.49 -69.78,72.49 -55.33,0 -102.73,-52.69 -102.73,-94.82 0,-18.48 18.42,-19.79 60.58,-19.79 l 48.72,0 z m -86.9,-57.95 c -30.29,0 -32.94,-2.61 -32.94,-23.69 0,-98.82 63.23,-194.97 185.7,-194.97 36.89,0 86.94,7.87 122.49,68.49 14.49,2.62 34.25,-7.91 34.25,-30.26 -54.01,-111.99 -151.46,-150.24 -230.49,-150.24 -177.801,0 -273.93,125.19 -273.93,268.77 0,165.98 119.849,295.09 284.47,295.09 136.96,0 210.72,-88.26 210.72,-189.73 0,-25.02 -6.58,-43.46 -47.39,-43.46 l -252.88,0"
             inkscape:connector-curvature="0" />
          <path
             id="path20"
             style="fill:#f26711;stroke:none"
             d="m 1626.73,1576.31 c -17.11,0 -18.43,-1.28 -18.43,-30.3 l 0,-197.53 c 0,-73.81 0,-155.49 92.19,-155.49 18.44,0 39.5,9.21 55.33,19.74 13.14,-3.92 21.05,-18.4 18.4,-34.22 -36.87,-39.5 -107.98,-76.43 -189.63,-76.43 -109.33,0 -147.51,63.25 -147.51,150.24 l 0,293.69 c 0,27.7 -1.32,30.3 -25.03,30.3 l -40.81,0 c -14.5,5.37 -18.45,31.64 -7.92,40.89 40.82,14.44 77.7,38.19 109.32,59.24 23.7,17.11 56.64,44.75 97.46,102.8 9.2,5.23 32.93,3.88 39.52,-6.62 l 0,-98.81 c 0,-25.01 1.32,-26.33 25.02,-26.33 l 117.23,0 c 6.58,-5.25 10.52,-13.2 10.52,-25.04 0,-14.49 -3.94,-38.16 -17.11,-46.13 l -118.56,0"
             inkscape:connector-curvature="0" />
          <path
             id="path22"
             style="fill:#777777;stroke:none"
             d="m 2102.36,1343.19 c 0,-102.76 13.18,-167.29 115.93,-167.29 97.46,0 148.81,75.06 148.81,181.78 0,114.61 -65.86,194.94 -192.27,194.94 -72.46,0 -72.46,-1.3 -72.46,-54.03 l 0,-155.38 -0.01,-0.02 z m 0,304.29 c 0,-34.28 1.34,-36.86 69.82,-36.86 113.26,0 155.41,72.4 155.41,151.45 0,114.6 -71.13,171.25 -162.01,171.25 -61.88,0 -63.22,-10.58 -63.22,-68.52 l 0,-217.32 z m -181.76,127.79 c 0,133.01 -2.63,147.47 -57.94,154.1 l -35.57,5.3 c -11.85,6.59 -14.49,46.09 5.28,47.41 100.1,6.57 196.24,11.87 327.97,11.87 126.41,0 210.74,-14.52 268.65,-48.78 56.64,-34.24 90.86,-89.59 90.86,-167.26 0,-110.68 -93.49,-154.14 -134.31,-164.71 -13.19,-2.58 -26.37,-7.89 -26.37,-14.47 0,-3.94 6.62,-7.86 18.48,-10.54 104.04,-22.41 192.26,-90.84 193.59,-218.6 1.33,-121.21 -71.11,-192.36 -154.06,-221.37 -83.01,-28.97 -181.76,-32.92 -262.11,-32.92 -47.4,0 -97.45,5.32 -135.66,5.32 -64.56,0 -129.09,-1.37 -204.14,-3.98 -10.52,7.89 -10.52,42.12 0,46.07 l 38.2,7.92 c 59.25,11.84 67.16,21.07 67.16,139.63 l 0,465.01"
             inkscape:connector-curvature="0" />
          <path
             id="path24"
             style="fill:#777777;stroke:none"
             d="m 2858.47,1099.5 c -121.14,0 -196.23,34.25 -223.87,50.03 -25.02,28.98 -42.13,123.82 -42.13,213.41 9.2,17.1 39.51,18.45 50.04,3.96 26.33,-85.62 114.55,-206.8 226.52,-206.8 97.44,0 142.25,67.17 142.25,133.01 0,106.69 -100.08,169.92 -179.12,209.43 -94.83,47.48 -197.56,126.46 -198.85,256.91 0,148.83 114.59,251.62 305.55,251.62 43.45,0 97.44,-5.3 150.15,-21.13 17.11,-5.26 28.95,-7.86 44.77,-10.51 10.49,-28.98 23.71,-100.12 23.71,-188.39 -6.6,-15.77 -39.53,-17.11 -51.37,-3.99 -22.4,67.23 -79.06,163.4 -173.88,163.4 -86.9,0 -134.3,-56.67 -134.3,-122.49 0,-60.62 53.94,-115.91 119.8,-150.17 l 86.96,-46.15 c 81.64,-43.46 185.7,-119.84 185.7,-264.74 0,-162.04 -133.07,-267.4 -331.93,-267.4"
             inkscape:connector-curvature="0" />
          <path
             id="path26"
             style="fill:#777777;stroke:none"
             d="m 3479.68,1359.03 c 0,-72.49 2.65,-119.89 26.33,-147.57 23.75,-26.36 61.91,-38.2 109.33,-38.2 227.83,0 305.55,202.81 305.55,382 0,237.12 -125.12,378.06 -363.52,378.06 -35.5,0 -60.58,-6.59 -68.47,-17.17 -7.91,-10.51 -9.22,-35.53 -9.22,-76.34 l 0,-480.8 0,0.02 z m -188.32,417.55 c 0,125.13 -2.64,150.15 -63.23,156.74 l -25.01,2.61 c -13.15,6.59 -13.15,44.83 2.65,46.15 110.63,6.57 213.34,11.87 352.97,11.87 107.99,0 215.96,-10.62 306.86,-43.5 172.55,-61.9 267.34,-217.34 267.34,-381.97 0,-176.55 -84.28,-318.84 -235.72,-393.9 -89.55,-44.82 -197.58,-61.88 -333.23,-61.88 -61.87,0 -127.79,7.92 -175.17,7.92 -63.24,0 -130.41,-1.37 -205.45,-3.98 -10.53,7.89 -10.53,39.49 0,46.07 l 40.82,6.59 c 59.26,10.52 67.17,19.74 67.17,140.96 l 0,466.32"
             inkscape:connector-curvature="0" />
          <path
             id="path28"
             style="fill:#777777;stroke:none"
             d="m 4083.45,1892.85 c 0,32.61 11.57,60.48 34.72,83.57 23.14,23.09 51.04,34.65 83.65,34.65 32.6,0 60.47,-11.56 83.56,-34.65 23.07,-23.09 34.62,-50.96 34.62,-83.57 0,-32.64 -11.55,-60.51 -34.62,-83.67 -23.09,-23.14 -50.96,-34.72 -83.56,-34.72 -32.61,0 -60.51,11.58 -83.65,34.72 -23.15,23.16 -34.72,51.03 -34.72,83.67 z m 217.17,0 c 0,27.32 -9.62,50.62 -28.9,69.91 -19.28,19.27 -42.56,28.92 -69.9,28.92 -27.32,0 -50.66,-9.65 -69.99,-28.92 -19.34,-19.29 -29,-42.59 -29,-69.91 0,-27.33 9.66,-50.66 29,-70 19.33,-19.3 42.67,-28.99 69.99,-28.99 27.34,0 50.62,9.69 69.9,28.99 19.28,19.34 28.9,42.67 28.9,70 z m -62.07,-71.19 -37.09,62.7 -21.06,0 0,-62.7 -20.68,0 0,145.43 37.32,0 c 35.02,0 52.52,-13.43 52.52,-40.25 0,-18.66 -9.42,-31.86 -28.26,-39.55 l 39.88,-65.63 -22.63,0 z m -58.15,127.82 0,-48.62 c 1.74,-0.24 6.28,-0.33 13.6,-0.33 13.5,0 22.59,1.72 27.24,5.18 4.66,3.47 6.99,10.07 6.99,19.83 0,16.08 -10.48,24.12 -31.42,24.12 l -8.2,0 -8.21,-0.18"
             inkscape:connector-curvature="0" />
        </g>
      </g>
    </g>
  </g>
  <style
     id="style4"
     type="text/css" />
</svg>
