<svg height="64" width="64" xmlns="http://www.w3.org/2000/svg" xmlns:xlink="http://www.w3.org/1999/xlink"><linearGradient id="a" gradientUnits="userSpaceOnUse" x1="55" x2="55" xlink:href="#j" y1="54" y2="9"/><linearGradient id="b"><stop offset="0" stop-color="#bf4231"/><stop offset="1" stop-color="#e05e4c"/></linearGradient><linearGradient id="c" gradientUnits="userSpaceOnUse" x1="32" x2="32" y1="58" y2="6"><stop offset="0" stop-color="#173f4f"/><stop offset="1" stop-color="#2f5361"/></linearGradient><linearGradient id="d" gradientUnits="userSpaceOnUse" x1="55" x2="55" xlink:href="#b" y1="54" y2="9"/><linearGradient id="e" gradientUnits="userSpaceOnUse" x1="20" x2="45" xlink:href="#k" y1="22" y2="47"/><linearGradient id="f" gradientUnits="userSpaceOnUse" x1="37" x2="37" y1="46" y2="38"><stop offset="0" stop-color="#be4434"/><stop offset=".25" stop-color="#c44837"/><stop offset="1" stop-color="#cb4c3b"/></linearGradient><linearGradient id="g" gradientUnits="userSpaceOnUse" x1="26" x2="50" xlink:href="#k" y1="16" y2="40"/><linearGradient id="h" gradientUnits="userSpaceOnUse" x1="40" x2="47" xlink:href="#k" y1="38" y2="45"/><linearGradient id="i" gradientUnits="userSpaceOnUse" x1="43" x2="46" xlink:href="#k" y1="44" y2="47"/><linearGradient id="j"><stop offset="0" stop-color="#eff0f1"/><stop offset="1" stop-color="#fcfcfc"/></linearGradient><linearGradient id="k"><stop offset="0" stop-color="#292c2f"/><stop offset="1" stop-opacity="0"/></linearGradient><linearGradient id="l" gradientUnits="userSpaceOnUse" x1="32" x2="32" xlink:href="#j" y1="54" y2="9"/><linearGradient id="m" gradientUnits="userSpaceOnUse" x1="32" x2="32" xlink:href="#b" y1="54" y2="9"/><path d="m32 6c-6.33333 3.35447-12.66667 4.72491-19 6v25.001953c0 7 10.26331 16.561337 19 20.998047 8.73669-4.43671 19-13.998047 19-20.998047v-25.001953c-6.33333-1.27509-12.66667-2.64553-19-6z" fill="url(#c)" stroke-linecap="square" stroke-width="2"/><path d="m13 36.001953v1c0 7 10.26331 16.561337 19 20.998047 8.73669-4.43671 19-13.998047 19-20.998047v-1c0 7-10.26331 16.561337-19 20.998047-8.73669-4.43671-19-13.998047-19-20.998047z" fill="#292c2f" opacity=".2" stroke-linecap="square" stroke-width="2"/><path d="m48 14-26.304688 32.304688 11.208985 11.208984c8.525508-4.614773 18.095703-13.751033 18.095703-20.511719v-20.001953z" fill="url(#i)" opacity=".2"/><path d="m40.824219 12.349609-17.617188 35.238282c2.735569 2.548653 5.806349 4.895376 8.792969 6.412109 7.392765-3.754157 16-12.076982 16-18v-22c-2.403402-.483885-4.789398-1.006952-7.175781-1.650391z" fill="url(#d)"/><path d="m32 9c-5.358808 2.838395-10.64102 3.921074-16 5v22c0 3.530034 3.17163 7.828219 7.207031 11.587891l17.617188-35.238282c-2.934573-.791246-5.868718-1.784199-8.824219-3.349609z" fill="url(#a)"/><path d="m24 14-8 16 20.935547 20.935547c1.522034-1.10756 3.001377-2.336903 4.361328-3.638672l-1.296875-1.296875-7-14z" fill="url(#e)" opacity=".2"/><path d="m28 14 12 32 8-16h-4z" fill="url(#g)" opacity=".2"/><g stroke-width="1.857143"><path d="m24 14 16 32 8-16h-4l-1 2h-6l-9-18zm14 20h4l-2 4z" fill="url(#l)"/><path d="m24 14-8 16h4l1-2h6l8.5 17.000001h4zm0 8 2 4h-4z" fill="url(#m)"/><path d="m32 38 4 8h4l-4-8z" fill="url(#f)"/></g><path d="m48 30-8 16 3.617188 3.617188c4.013144-3.887728 7.018045-8.222958 7.351562-11.9375.019301-.229864.03125-.456776.03125-.677735v-4.001953z" fill="url(#h)" opacity=".2"/></svg>