<?xml version="1.0" encoding="iso-8859-1"?>
<!-- Uploaded to: SVG Repo, www.svgrepo.com, Generator: SVG Repo Mixer Tools -->
<svg height="800px" width="800px" version="1.1" id="Layer_1" xmlns="http://www.w3.org/2000/svg" xmlns:xlink="http://www.w3.org/1999/xlink" 
	 viewBox="0 0 512 512" xml:space="preserve">
<circle style="fill:#6B7F9E;" cx="256" cy="256" r="256"/>
<path style="fill:#FED298;" d="M312.004,319.365c-3.222,33.013-42.584,95.956-42.277,109.111
	c0.307,13.155,13.691,73.279,13.691,73.279h-82.139l-4.831-74.08c-0.518-7.975-24.539-92.403,16.793-127.054l21.057,2.235
	l11.269,14.498c24.587-19.66,37.645-38.633,16.883-74.851l-12.89,0.578c-12.059-13.757-5.294-17.853,9.842-20.943
	c13.739-2.807,23.882,0.012,31.309,6.373c6.758,7.746,23.816,64.876,21.28,90.849L312.004,319.365z"/>
<polygon style="fill:#83CF8F;" points="431.704,133.174 285.857,302.813 206.537,234.617 352.384,64.973 "/>
<path style="fill:#75BD80;" d="M344.421,205.652c-12.016,13.974-33.086,15.57-47.066,3.548
	c-13.974-12.022-15.564-33.092-3.548-47.066c12.022-13.98,33.092-15.57,47.066-3.548
	C354.847,170.602,356.438,191.678,344.421,205.652z M216.265,233.883l68.852,59.196l136.836-159.17l-68.852-59.19l-136.842,159.17
	L216.265,233.883z"/>
<path style="fill:#83CF8F;" d="M396.866,121.435l-27.659-23.78c-7.294,8.487-20.082,9.45-28.562,2.156L239.213,217.789
	c8.481,7.294,9.45,20.081,2.156,28.562l27.659,23.78c7.288-8.481,20.075-9.444,28.562-2.15l101.431-117.977
	c-8.487-7.294-9.444-20.081-2.15-28.568H396.866z"/>
<path style="fill:#75BD80;" d="M340.916,158.532c14.01,12.046,15.6,33.158,3.56,47.156c-12.04,14.01-33.152,15.594-47.156,3.56
	c-14.004-12.034-15.594-33.152-3.554-47.156s33.152-15.594,47.156-3.56H340.916z"/>
<path style="fill:#FFFFFF;" d="M326.797,182.203c-0.807-0.693-1.687-1.006-2.614-0.94c-0.934,0.066-2.259,0.608-3.993,1.626
	l6.559,5.638c1.759-2.729,1.777-4.843,0.042-6.33L326.797,182.203z M308.378,182.426c0.855,0.735,1.759,1.072,2.71,1.006
	c0.952-0.06,2.198-0.518,3.734-1.373l-6.529-5.608c-0.777,1.271-1.15,2.415-1.12,3.439c0.036,1.024,0.434,1.873,1.211,2.536H308.378
	z M329.038,179.143c1.53,1.319,2.301,2.982,2.313,4.981c0.006,2-0.741,4.144-2.253,6.421l3.915,3.367l-1.873,2.174l-3.765-3.228
	c-1.084,1.259-2.229,2.397-3.445,3.409c-1.211,1.006-2.313,1.747-3.313,2.198l-2.632-2.265c1.223-0.572,2.488-1.361,3.801-2.349
	c1.313-1,2.397-1.994,3.265-2.994l-7.433-6.385c-2.71,1.68-4.951,2.566-6.716,2.662s-3.415-0.512-4.945-1.825
	c-1.476-1.271-2.192-2.885-2.15-4.837c0.036-1.952,0.759-3.957,2.174-6.005l-3.072-2.644l1.867-2.18l3.036,2.614
	c1.837-2.018,3.969-3.656,6.397-4.915l1.464,2.777c-2.108,1.108-3.969,2.476-5.572,4.096l7.318,6.294
	c2.084-1.283,3.771-2.132,5.053-2.548c1.289-0.416,2.464-0.536,3.512-0.355c1.048,0.181,2.072,0.693,3.054,1.542V179.143z"/>
<polygon style="fill:#83CF8F;" points="371.279,76.778 276.057,304.27 169.681,259.746 264.908,32.248 "/>
<path style="fill:#75BD80;" d="M304.421,182.468c-7.848,18.744-29.399,27.58-48.15,19.732c-18.738-7.848-27.58-29.405-19.732-48.15
	c7.848-18.738,29.399-27.58,48.15-19.726C303.433,142.167,312.263,163.718,304.421,182.468z M179.643,255.663l92.336,38.645
	l89.343-213.452l-92.33-38.651l-89.349,213.452V255.663z"/>
<path style="fill:#83CF8F;" d="M330.761,76.327l-37.091-15.528c-4.764,11.372-17.847,16.739-29.219,11.98l-66.226,158.213
	c11.378,4.758,16.739,17.841,11.974,29.213l37.097,15.522c4.764-11.372,17.841-16.733,29.219-11.974l66.226-158.219
	c-11.378-4.758-16.739-17.841-11.974-29.213L330.761,76.327z"/>
<path style="fill:#3FA344;" d="M284.713,134.258c18.774,7.866,27.629,29.46,19.768,48.24c-7.86,18.78-29.46,27.629-48.234,19.768
	c-18.78-7.86-27.635-29.46-19.774-48.24S265.932,126.392,284.713,134.258z"/>
<path style="fill:#7DBF76;" d="M277.961,163.88c-1.084-0.452-2.108-0.488-3.054-0.096c-0.958,0.392-2.162,1.409-3.638,3.066
	l8.806,3.686c0.922-3.463,0.211-5.686-2.108-6.656H277.961z M258.729,170.38c1.15,0.482,2.211,0.524,3.186,0.139
	c0.982-0.392,2.126-1.289,3.451-2.71l-8.752-3.662c-0.392,1.59-0.392,2.921-0.006,3.987c0.379,1.066,1.09,1.813,2.126,2.247H258.729
	z M279.28,159.911c2.048,0.861,3.421,2.337,4.114,4.439c0.687,2.096,0.632,4.602-0.175,7.505l5.246,2.198l-1.223,2.921l-5.047-2.108
	c-0.711,1.687-1.524,3.271-2.451,4.746c-0.934,1.476-1.837,2.614-2.723,3.433l-3.53-1.482c1.078-1.012,2.138-2.271,3.18-3.752
	c1.036-1.494,1.837-2.909,2.403-4.252l-9.962-4.168c-2.271,2.68-4.319,4.373-6.132,5.072c-1.819,0.705-3.758,0.626-5.806-0.235
	c-1.976-0.825-3.277-2.271-3.903-4.331c-0.626-2.066-0.548-4.409,0.235-7.041l-4.114-1.723l1.223-2.921l4.072,1.705
	c1.235-2.741,2.921-5.186,5.035-7.336l2.476,2.421c-1.831,1.873-3.319,3.939-4.457,6.192l9.818,4.108
	c1.747-2.054,3.222-3.518,4.433-4.397c1.211-0.873,2.391-1.397,3.554-1.572C276.702,159.164,277.949,159.357,279.28,159.911z"/>
<polygon style="fill:#83CF8F;" points="311.998,43.982 312.564,290.604 197.243,290.869 196.683,44.247 "/>
<path style="fill:#75BD80;" d="M291.411,167.344c0.048,20.322-16.383,36.826-36.7,36.874c-20.322,0.048-36.826-16.383-36.88-36.706
	c-0.042-20.316,16.389-36.826,36.706-36.868C274.859,130.59,291.368,147.027,291.411,167.344z M204.845,283.243l100.088-0.235
	l-0.53-231.395l-100.094,0.229l0.536,231.395V283.243z"/>
<path style="fill:#83CF8F;" d="M274.479,59.299l-40.211,0.096c0.024,12.33-9.95,22.346-22.28,22.376l0.398,171.512
	c12.33-0.03,22.352,9.95,22.382,22.274l40.211-0.096c-0.03-12.33,9.944-22.346,22.268-22.376l-0.392-171.512
	c-12.33,0.024-22.352-9.95-22.382-22.274H274.479z"/>
<path style="fill:#75BD80;" d="M254.536,130.566c20.353-0.048,36.898,16.425,36.947,36.778
	c0.048,20.359-16.419,36.904-36.772,36.941c-20.359,0.048-36.898-16.419-36.953-36.772
	C217.716,147.154,234.184,130.614,254.536,130.566z"/>
<path style="fill:#FFFFFF;" d="M259.813,160.483c-1.169,0.006-2.126,0.373-2.855,1.102c-0.723,0.729-1.446,2.138-2.156,4.234
	l9.541-0.018c-0.5-3.548-2.012-5.319-4.529-5.313V160.483z M244.61,173.939c1.247,0,2.241-0.379,2.994-1.108
	c0.753-0.741,1.458-2.018,2.12-3.831l-9.493,0.018c0.265,1.62,0.777,2.843,1.536,3.674c0.759,0.837,1.705,1.253,2.837,1.247H244.61z
	 M259.487,156.315c2.229,0,4.06,0.825,5.517,2.494c1.446,1.662,2.367,3.999,2.747,6.987l5.692-0.012l0.006,3.168l-5.469,0.006
	c0,1.837-0.133,3.614-0.422,5.325c-0.283,1.723-0.675,3.126-1.175,4.228h-3.831c0.596-1.355,1.09-2.921,1.476-4.698
	c0.379-1.771,0.566-3.385,0.56-4.849l-10.794,0.024c-1.054,3.355-2.283,5.71-3.686,7.059c-1.403,1.361-3.216,2.03-5.445,2.036
	c-2.144,0.006-3.903-0.819-5.276-2.476c-1.379-1.656-2.217-3.849-2.518-6.583l-4.469,0.006l-0.006-3.162l4.421-0.006
	c0.072-3.012,0.669-5.915,1.795-8.716l3.216,1.271c-0.964,2.439-1.524,4.921-1.699,7.439l10.643-0.024
	c0.813-2.566,1.608-4.493,2.379-5.77c0.771-1.283,1.656-2.217,2.662-2.831c1.006-0.602,2.223-0.91,3.668-0.916H259.487z"/>
<polygon style="fill:#83CF8F;" points="216.765,48.385 315.486,274.383 209.808,320.545 111.093,94.541 "/>
<path style="fill:#75BD80;" d="M247.001,169.735c8.137,18.624-0.367,40.308-18.985,48.445c-18.618,8.131-40.308-0.367-48.439-18.991
	c-8.131-18.624,0.373-40.308,18.991-48.439c18.618-8.137,40.308,0.367,48.439,18.985H247.001z M213.741,310.516l91.722-40.061
	L212.843,58.401l-91.722,40.067l92.625,212.048H213.741z"/>
<path style="fill:#83CF8F;" d="M188.449,77.369l-36.85,16.094c4.939,11.3-0.223,24.466-11.522,29.399l68.653,157.177
	c11.306-4.939,24.466,0.223,29.399,11.522l36.85-16.1c-4.939-11.294,0.223-24.454,11.522-29.393L217.843,88.891
	c-11.3,4.945-24.46-0.223-29.399-11.522H188.449z"/>
<path style="fill:#75BD80;" d="M198.532,150.684c18.654-8.149,40.38,0.373,48.529,19.027c8.149,18.654-0.361,40.392-19.021,48.535
	c-18.66,8.149-40.386-0.367-48.535-19.027C171.355,180.565,179.878,158.839,198.532,150.684z"/>
<path style="fill:#FFFFFF;" d="M215.283,176.029c-1.072,0.476-1.807,1.187-2.18,2.144c-0.379,0.958-0.476,2.53-0.295,4.746
	l8.746-3.819C219.68,176.041,217.59,175.017,215.283,176.029z M206.7,194.424c1.138-0.5,1.903-1.235,2.295-2.204
	c0.398-0.982,0.536-2.433,0.428-4.367l-8.704,3.801c0.891,1.385,1.849,2.301,2.879,2.759
	C204.628,194.876,205.658,194.882,206.7,194.424z M213.319,172.331c2.042-0.891,4.06-0.861,6.053,0.09
	c1.994,0.946,3.759,2.723,5.306,5.313l5.21-2.277l1.271,2.903l-5.011,2.186c0.729,1.674,1.313,3.361,1.735,5.047
	c0.428,1.687,0.626,3.138,0.596,4.343l-3.506,1.524c0.006-1.482-0.163-3.108-0.518-4.897c-0.361-1.783-0.831-3.337-1.415-4.668
	l-9.89,4.319c0.367,3.493,0.181,6.15-0.566,7.951c-0.753,1.795-2.144,3.144-4.18,4.03c-1.964,0.861-3.909,0.801-5.831-0.169
	s-3.56-2.644-4.927-5.035l-4.09,1.789l-1.265-2.897l4.042-1.771c-1.126-2.789-1.735-5.692-1.825-8.704l3.457-0.12
	c0.09,2.62,0.554,5.12,1.397,7.499l9.758-4.258c-0.277-2.68-0.319-4.758-0.12-6.24c0.199-1.482,0.644-2.698,1.325-3.65
	C211,173.68,212,172.909,213.319,172.331z"/>
<path style="fill:#FED298;" d="M266.233,259.012l-17.239,38.266l16.437,28.249c18.72,32.176-73.484,20.84-65.84-9.294
	c0.777-3.072,6.595-22.461,9.577-25.52l21.322-21.895l9.764-22.858C250.145,216.072,278.226,232.395,266.233,259.012z"/>
<path style="fill:#FFF7DF;" d="M247.393,236.491c2.409-5.132,14.54-4.349,14.311,1.373l-4.843,14.865c0,0-12.167-4.993-15.727-2.783
	L247.393,236.491z"/>
<path style="fill:#FFE356;" d="M168.428,473.999h141.733v32.242C292.7,510,274.588,512,256.006,512
	c-30.761,0-60.251-5.433-87.572-15.377v-22.623H168.428z"/>
<polygon style="fill:#FFFFFF;" points="175.307,473.999 303.27,473.999 303.27,457.303 175.307,457.303 "/>
</svg>