<?xml version="1.0" encoding="UTF-8"?>
<svg
	xmlns="http://www.w3.org/2000/svg"
	version="1.1"
	width="619.38391"
	height="256.9158"
	viewBox="0 0 619.38394 256.9158">
	<rect
		id="background"
		fill="white"
		width="619.38391"
		height="256.9158" />
	<g id="letters" fill="black">
		<path
			d="m 236.98,98.036203 h 28.9233 v -14.8527 h -74.0015 v 14.8527 h 28.9236 V 174.3826 H 236.98 Z" />
		<path
			d="m 289.1123,152.3653 h 43.1243 l 9.2509,22.0178 h 16.93721 L 318.2964,82.532703 H 303.4448 L 263.3164,174.3831 h 16.416 z m 37.2617,-14.2021 h -31.39769 l 15.6336,-36.4794 z" />
		<path
			d="M 387.4872,83.184103 H 373.026 V 174.3831 h 64.872 v -14.4612 c -16.8035,0 -33.6073,0 -50.4108,0 z" />
		<path
			d="m 522.19191,83.184103 h -67.4873 V 174.3831 h 68.1389 v -14.4612 h -52.2445 V 135.5578 H 516.3292 V 121.0969 H 470.59901 V 97.645603 h 51.5929 z" />
		<path
			d="m 600.23221,112.9547 c 0,4.7106 -1.69371,8.4682 -5.1029,11.247 -3.3871,2.8015 -7.9691,4.1904 -13.7237,4.1904 h -23.5165 V 97.645603 h 23.3864 c 6.0148,0 10.6832,1.2812 13.9845,3.864497 3.3222,2.563 4.9722,6.3842 4.9722,11.4446 z m 19.1517,61.4284 -24.6234,-34.526 c 3.2131,-0.8682 6.1449,-2.1052 8.7945,-3.7125 2.6484,-1.6069 4.92909,-3.5614 6.83939,-5.8626 1.9114,-2.3023 3.40921,-4.951 4.49491,-7.9469 1.0854,-2.9968 1.62789,-6.4063 1.62789,-10.228 0,-4.4297 -0.7812,-8.4464 -2.34479,-12.0515 -1.56331,-3.604197 -3.7995,-6.644697 -6.709,-9.120197 -2.9101,-2.4752 -6.4709,-4.386 -10.6832,-5.7325 -4.2132,-1.3467 -8.9252,-2.0188 -14.1361,-2.0188 h -40.6494 V 174.3831 h 15.8944 V 142.594 h 20.1294 l 22.4739,31.7891 z" />
	</g>
	<g id="circles" fill="#bb0000">
		<path
			d="m 128.4579,0 c 3.3602,0 6.6895,0.1307 9.985,0.3835 -9.6185,4.5913 -18.6375,10.2328 -26.9107,16.7777 -54.1366,8.1649 -95.6378,54.8827 -95.6378,111.2967 0,62.1669 50.3966,112.5635 112.5635,112.5635 39.78,0 74.7388,-20.6365 94.7596,-51.7861 h 18.4334 c -21.6785,40.2899 -64.2353,67.6805 -113.193,67.6805 C 57.5126,256.9158 0,199.4031 0,128.4579 0,57.5127 57.5126,0 128.4579,0 Z m 95.167,68.3317 c -4.142,-6.5398 -8.938,-12.6258 -14.2986,-18.161 4.2384,-3.3013 8.7498,-6.2683 13.4975,-8.8566 7.492,8.1079 13.9513,17.1836 19.1721,27.0176 z" />
		<path
			d="m 199.3365,0 c 3.3233,0 6.6175,0.1264 9.8779,0.3742 -9.6364,4.5978 -18.6707,10.25 -26.9575,16.8086 -54.0612,8.2295 -95.4839,54.9144 -95.4839,111.2751 0,42.0106 23.0179,78.6402 57.126,97.9804 -5.0315,0.7869 -10.1882,1.1985 -15.4411,1.1985 -3.9135,0 -7.7715,-0.2342 -11.5665,-0.6755 C 88.7672,203.3971 70.8783,168.0194 70.8783,128.4579 70.8783,57.5127 128.391,0 199.3365,0 Z m 17.0796,239.7331 c 32.5859,-4.9607 60.5744,-23.8964 77.6735,-50.4978 h 18.4397 c -21.6785,40.2899 -64.2351,67.6805 -113.1928,67.6805 -3.3236,0 -6.6175,-0.1264 -9.8779,-0.3741 9.6358,-4.5984 18.6712,-10.2496 26.9575,-16.8086 z M 294.5058,68.3317 c -9.9117,-15.6524 -23.5766,-28.6934 -39.7319,-37.8542 5.0315,-0.7869 10.188,-1.1985 15.4412,-1.1985 3.9132,0 7.7715,0.2342 11.5665,0.6755 12.6794,10.6237 23.2787,23.6495 31.0955,38.3772 z" />
		<path
			d="m 270.2151,0 c 49.2199,0 91.967,27.6874 113.5364,68.3317 H 365.3849 C 345.4338,36.82 310.2701,15.8944 270.2151,15.8944 c -62.1672,0 -112.5635,50.3966 -112.5635,112.5635 0,30.4282 12.0782,58.0323 31.697,78.2895 -4.2381,3.3012 -8.7503,6.2669 -13.4986,8.8552 -21.1592,-22.898 -34.0931,-53.5079 -34.0931,-87.1447 C 141.7569,57.5127 199.2696,0 270.2151,0 Z m 113.1922,189.2367 c -21.6788,40.2894 -64.2353,67.6791 -113.1922,67.6791 -3.3236,0 -6.6178,-0.1264 -9.8779,-0.3741 9.6364,-4.5978 18.6704,-10.2501 26.9572,-16.8086 32.5854,-4.9607 60.5741,-23.8955 77.673,-50.4964 z" />
	</g>
</svg>
