<?xml version="1.0" encoding="utf-8"?>
<svg version="1.1" xmlns="http://www.w3.org/2000/svg" xmlns:xlink="http://www.w3.org/1999/xlink" x="0px" y="0px"
	 viewBox="0 0 80 38.1" style="enable-background:new 0 0 80 38.1;" xml:space="preserve">
<style type="text/css">
	.st0{fill:#5F6368;}
	.st1{fill:#4285F4;}
	.st2{fill:#34A853;}
	.st3{fill:#FBBC04;}
	.st4{fill:#EA4335;}
</style>
<path class="st0" d="M37.8,19.7V29h-3V6h7.8c1.9,0,3.7,0.7,5.1,2c1.4,1.2,2.1,3,2.1,4.9c0,1.9-0.7,3.6-2.1,4.9c-1.4,1.3-3.1,2-5.1,2
	L37.8,19.7L37.8,19.7z M37.8,8.8v8h5c1.1,0,2.2-0.4,2.9-1.2c1.6-1.5,1.6-4,0.1-5.5c0,0-0.1-0.1-0.1-0.1c-0.8-0.8-1.8-1.3-2.9-1.2
	L37.8,8.8L37.8,8.8z"/>
<path class="st0" d="M56.7,12.8c2.2,0,3.9,0.6,5.2,1.8s1.9,2.8,1.9,4.8V29H61v-2.2h-0.1c-1.2,1.8-2.9,2.7-4.9,2.7
	c-1.7,0-3.2-0.5-4.4-1.5c-1.1-1-1.8-2.4-1.8-3.9c0-1.6,0.6-2.9,1.8-3.9c1.2-1,2.9-1.4,4.9-1.4c1.8,0,3.2,0.3,4.3,1v-0.7
	c0-1-0.4-2-1.2-2.6c-0.8-0.7-1.8-1.1-2.9-1.1c-1.7,0-3,0.7-3.9,2.1l-2.6-1.6C51.8,13.8,53.9,12.8,56.7,12.8z M52.9,24.2
	c0,0.8,0.4,1.5,1,1.9c0.7,0.5,1.5,0.8,2.3,0.8c1.2,0,2.4-0.5,3.3-1.4c1-0.9,1.5-2,1.5-3.2c-0.9-0.7-2.2-1.1-3.9-1.1
	c-1.2,0-2.2,0.3-3,0.9C53.3,22.6,52.9,23.3,52.9,24.2z"/>
<path class="st0" d="M80,13.3l-9.9,22.7h-3l3.7-7.9l-6.5-14.7h3.2l4.7,11.3h0.1l4.6-11.3H80z"/>
<path class="st1" d="M25.9,17.7c0-0.9-0.1-1.8-0.2-2.7H13.2v5.1h7.1c-0.3,1.6-1.2,3.1-2.6,4v3.3H22C24.5,25.1,25.9,21.7,25.9,17.7z"
	/>
<path class="st2" d="M13.2,30.6c3.6,0,6.6-1.2,8.8-3.2l-4.3-3.3c-1.2,0.8-2.7,1.3-4.5,1.3c-3.4,0-6.4-2.3-7.4-5.5H1.4v3.4
	C3.7,27.8,8.2,30.6,13.2,30.6z"/>
<path class="st3" d="M5.8,19.9c-0.6-1.6-0.6-3.4,0-5.1v-3.4H1.4c-1.9,3.7-1.9,8.1,0,11.9L5.8,19.9z"/>
<path class="st4" d="M13.2,9.4c1.9,0,3.7,0.7,5.1,2l0,0l3.8-3.8c-2.4-2.2-5.6-3.5-8.8-3.4c-5,0-9.6,2.8-11.8,7.3l4.4,3.4
	C6.8,11.7,9.8,9.4,13.2,9.4z"/>
</svg>
