<?xml version="1.0" encoding="UTF-8"?>
<svg width="220" height="49.091" version="1.1" viewBox="0 0 220 49.091" xmlns="http://www.w3.org/2000/svg" xmlns:cc="http://creativecommons.org/ns#" xmlns:dc="http://purl.org/dc/elements/1.1/" xmlns:rdf="http://www.w3.org/1999/02/22-rdf-syntax-ns#">
<title>systemd logo</title>
 <metadata>
  <rdf:RDF>
   <cc:Work rdf:about="">
    <dc:format>image/svg+xml</dc:format>
    <dc:type rdf:resource="http://purl.org/dc/dcmitype/StillImage"/>
    <dc:title/>
   </cc:Work>
  </rdf:RDF>
 </metadata>
 <g transform="translate(-60 -1082.52)">
  <g transform="matrix(2.00001 0 0 2.00001 -4358.02 -5676.01)" style="stroke-width:.499998">
   <path d="m2213.65 3385.02v13h5v-2h-3v-9h3v-2z" style="color-rendering:auto;color:#000000;dominant-baseline:auto;font-feature-settings:normal;font-variant-alternates:normal;font-variant-caps:normal;font-variant-ligatures:normal;font-variant-numeric:normal;font-variant-position:normal;image-rendering:auto;isolation:auto;mix-blend-mode:normal;shape-padding:0;shape-rendering:auto;solid-color:#000000;text-decoration-color:#000000;text-decoration-line:none;text-decoration-style:solid;text-indent:0;text-orientation:mixed;text-transform:none;white-space:normal"/>
   <path d="m2251.65 3385.02v2h3v9h-3v2h5v-13z" style="color-rendering:auto;color:#000000;dominant-baseline:auto;font-feature-settings:normal;font-variant-alternates:normal;font-variant-caps:normal;font-variant-ligatures:normal;font-variant-numeric:normal;font-variant-position:normal;image-rendering:auto;isolation:auto;mix-blend-mode:normal;shape-padding:0;shape-rendering:auto;solid-color:#000000;text-decoration-color:#000000;text-decoration-line:none;text-decoration-style:solid;text-indent:0;text-orientation:mixed;text-transform:none;white-space:normal"/>
   <g>
    <path d="m2270.4 3392.48q-2.25-0.4804-2.25-1.9394 0-0.5391 0.3047-0.9903 0.3106-0.4511 0.8906-0.7207 0.5801-0.2695 1.3536-0.2695 0.8144 0 1.4238 0.2637 0.6094 0.2578 0.9375 0.7265 0.3281 0.4629 0.3281 1.0606h-1.7695q0-0.3809-0.2285-0.5918-0.2286-0.2168-0.6973-0.2168-0.3867 0-0.6211 0.1816-0.2285 0.1817-0.2285 0.4688 0 0.2754 0.2578 0.4453 0.2637 0.1699 0.8906 0.2871 0.75 0.1406 1.2715 0.3691 0.5215 0.2227 0.8262 0.6211 0.3105 0.3985 0.3105 1.0137 0 0.5566-0.334 1.002-0.3281 0.4394-0.9433 0.6914-0.6094 0.2519-1.418 0.2519-0.8555 0-1.4824-0.3105-0.6211-0.3164-0.9492-0.8086-0.3223-0.4922-0.3223-1.0254h1.6699q0.018 0.457 0.3282 0.6797 0.3105 0.2168 0.7968 0.2168 0.4512 0 0.6914-0.1699 0.2461-0.1758 0.2461-0.4688 0-0.1816-0.1113-0.3047-0.1055-0.1289-0.3867-0.2402-0.2754-0.1113-0.7852-0.2227z" style="stroke-width:.499998"/>
    <path d="m2280.09 3388.68-2.543 7.2891q-0.1464 0.416-0.3632 0.7617-0.2168 0.3515-0.6328 0.5976-0.4161 0.252-1.0489 0.252-0.2285 0-0.375-0.024-0.1406-0.023-0.3926-0.088v-1.336q0.088 0.01 0.2637 0.01 0.4746 0 0.709-0.1465t0.3574-0.4805l0.1758-0.4629-2.2148-6.3691h1.8984l1.1309 3.8437 1.1425-3.8437z" style="stroke-width:.499998"/>
    <path d="m2283.03 3392.48q-2.25-0.4804-2.25-1.9394 0-0.5391 0.3047-0.9903 0.3105-0.4511 0.8906-0.7207 0.5801-0.2695 1.3535-0.2695 0.8145 0 1.4239 0.2637 0.6093 0.2578 0.9375 0.7265 0.3281 0.4629 0.3281 1.0606h-1.7695q0-0.3809-0.2286-0.5918-0.2285-0.2168-0.6972-0.2168-0.3867 0-0.6211 0.1816-0.2285 0.1817-0.2285 0.4688 0 0.2754 0.2578 0.4453 0.2636 0.1699 0.8906 0.2871 0.75 0.1406 1.2715 0.3691 0.5215 0.2227 0.8262 0.6211 0.3105 0.3985 0.3105 1.0137 0 0.5566-0.334 1.002-0.3281 0.4394-0.9433 0.6914-0.6094 0.2519-1.418 0.2519-0.8555 0-1.4824-0.3105-0.6211-0.3164-0.9493-0.8086-0.3222-0.4922-0.3222-1.0254h1.6699q0.018 0.457 0.3281 0.6797 0.3106 0.2168 0.7969 0.2168 0.4512 0 0.6914-0.1699 0.2461-0.1758 0.2461-0.4688 0-0.1816-0.1113-0.3047-0.1055-0.1289-0.3867-0.2402-0.2754-0.1113-0.7852-0.2227z" style="stroke-width:.499998"/>
    <path d="m2290.02 3393.68q0.2871 0 0.4922-0.041v1.3301q-0.457 0.164-1.043 0.164-1.8632 0-1.8632-1.8984v-3.2695h-0.8965v-1.2891h0.8965v-1.5703h1.7695v1.5703h1.0664v1.2891h-1.0664v3.0644q0 0.375 0.1465 0.5156 0.1465 0.1348 0.498 0.1348z" style="stroke-width:.499998"/>
    <path d="m2297.14 3392.42h-4.0078q0.1 0.5918 0.4922 0.9434 0.3925 0.3457 1.0078 0.3457 0.457 0 0.8437-0.1699 0.3926-0.1758 0.668-0.5215l0.8496 0.9785q-0.334 0.4805-0.9785 0.8086-0.6387 0.3281-1.5 0.3281-0.9727 0-1.6934-0.4101-0.7148-0.4102-1.1015-1.1133-0.3809-0.7031-0.3809-1.5528v-0.2226q0-0.9492 0.3574-1.6934 0.3574-0.7441 1.0313-1.1601 0.6738-0.4219 1.5937-0.4219 0.8965 0 1.5293 0.3809 0.6328 0.3808 0.961 1.0839 0.3281 0.6973 0.3281 1.6465zm-1.7344-1.3242q-0.012-0.5156-0.2871-0.8144-0.2695-0.2989-0.8086-0.2989-0.5039 0-0.791 0.334-0.2813 0.334-0.3692 0.9199h2.2559z" style="stroke-width:.499998"/>
    <path d="m2305.37 3388.56q0.9668 0 1.4942 0.5742 0.5273 0.5742 0.5273 1.8633v4.0195h-1.7695v-4.0254q0-0.3984-0.1055-0.6152-0.1055-0.2226-0.3047-0.3047-0.1933-0.082-0.4922-0.082-0.3574 0-0.6093 0.1758-0.252 0.1699-0.3985 0.4863 0.01 0.041 0.01 0.1348v4.2304h-1.7696v-4.0078q0-0.3984-0.1054-0.6211-0.1055-0.2226-0.3047-0.3105-0.1934-0.088-0.4981-0.088-0.3398 0-0.5918 0.1523-0.246 0.1465-0.3984 0.4219v4.4531h-1.7695v-6.3398h1.6582l0.059 0.709q0.3164-0.3985 0.7734-0.6094 0.4629-0.2168 1.043-0.2168 0.5859 0 1.0078 0.2402 0.4277 0.2344 0.6562 0.7207 0.3165-0.4629 0.7911-0.7089 0.4804-0.252 1.1015-0.252z" style="stroke-width:.499998"/>
    <path d="m2314.35 3386.02v9h-1.5937l-0.088-0.6797q-0.6211 0.7969-1.6055 0.7969-0.7676 0-1.3301-0.4101-0.5566-0.4161-0.8496-1.1426-0.2871-0.7266-0.2871-1.6582v-0.1231q0-0.9668 0.2871-1.6992 0.293-0.7324 0.8496-1.1367 0.5625-0.4043 1.3418-0.4043 0.9024 0 1.5059 0.6855v-3.2285zm-2.8359 7.6875q0.7441 0 1.0664-0.6328v-2.4492q-0.3047-0.6328-1.0547-0.6328-0.6035 0-0.8848 0.4922-0.2753 0.4922-0.2753 1.3183v0.1231q0 0.8144 0.2695 1.3008 0.2754 0.4804 0.8789 0.4804z" style="stroke-width:.499998"/>
   </g>
   <path d="m2237.65 3391.52 8-4.5v9z" style="fill:#33d17a"/>
   <circle cx="2229.15" cy="3391.52" r="4.49998" style="fill:#33d17a"/>
  </g>
 </g>
</svg>
