<?xml version="1.0" encoding="UTF-8"?>
<svg width="385.81" height="105.76" version="1.1" viewBox="0 0 385.805 105.755" xmlns="http://www.w3.org/2000/svg">
 <title>Upstart (daemon) logo</title>
 <g transform="translate(-1.16 -.88)">
  <g transform="translate(-507.93 -5.18)">
   <path d="m544.639 109.394c-9.77792-3.56643-16.1164-7.54812-22.3501-14.0399-14.4858-15.0855-17.1454-33.8227-7.50336-52.8635 6.88432-13.595 19.0937-20.6044 38.7297-22.2347 10.715-.88963 11.3879.56077 1.86078 4.01047-8.22474 2.9781-17.8956 9.39854-24.2044 16.0692-11.3939 12.0473-12.8265 24.7132-3.93751 34.8117 5.02321 5.70668 12.09 8.74281 20.8593 8.96191 5.87545.1468 7.30332-.20575 11.6073-2.86591 5.99667-3.7064 9.97174-10.7897 11.6117-20.6912 1.46792-8.86267.7331-9.7755-7.8692-9.7755-5.24358 0-6.39037-.28411-6.12756-1.51807.54638-2.56536 32.2453-43.4092 33.5189-43.1888 1.76675.30571 32.4818 41.6109 31.7831 42.7414-.32817.53098-2.39969.96542-4.60339.96542-6.75153 0-7.49602.90081-8.25376 9.98679-1.33246 15.9773-8.10208 30.9849-17.8453 39.5612-5.21779 4.59288-13.5095 8.93685-19.0372 9.97343-2.06857.38791-4.00763 1.10428-4.30901 1.59193-1.12705 1.8236-17.6631.78993-23.9299-1.49587zm-.52843-81.2226c4.41564-2.56566 8.02843-5.11526 8.02843-5.66579 0-1.43868-7.64416-.20832-14.3924 2.31653-11.3031 4.22904-18.5692 12.2998-17.0991 18.9929l.66921 3.0469 7.38273-7.01287c4.0605-3.85708 10.9955-9.11205 15.4112-11.6777z" fill="#27a507"/>
   <path d="m544.639 109.394c-9.77792-3.56643-16.1164-7.54812-22.3501-14.0399-14.4858-15.0855-17.1454-33.8227-7.50335-52.8635 6.88432-13.595 19.0937-20.6044 38.7297-22.2347 10.715-.88963 11.3879.56077 1.86077 4.01047-8.22473 2.9781-17.8956 9.39854-24.2044 16.0692-11.3939 12.0473-12.8265 24.7132-3.93752 34.8117 5.02322 5.70668 12.09 8.74281 20.8593 8.96191 5.87546.1468 7.30333-.20575 11.6073-2.86591 5.99667-3.7064 9.97174-10.7897 11.6117-20.6912 1.46792-8.86267.73311-9.7755-7.86919-9.7755-5.24358 0-6.39037-.28411-6.12756-1.51807.54638-2.56536 32.2453-43.4092 33.5189-43.1888 1.76675.30571 32.4818 41.6109 31.783 42.7414-.32817.53098-2.39969.96542-4.60339.96542-6.75153 0-7.49602.90081-8.25376 9.98679-1.33246 15.9773-8.10207 30.9849-17.8453 39.5612-5.21779 4.59288-13.5095 8.93685-19.0372 9.97343-2.06858.38791-4.00763 1.10428-4.30902 1.59193-1.12705 1.8236-17.6631.78993-23.9299-1.49587zm35.9599-27.9953c7.26933-2.63862 15.3067-7.24006 20.93-11.9826 4.05172-3.41708 5.54472-7.6544 5.58621-15.8543.0268-5.29979 1.5735-6.78519 7.06511-6.78519 2.26364 0 3.02325-.38954 2.65104-1.3595-.67761-1.76583-24.5332-34.4241-25.6493-35.1139-.76169-.47075-29.043 35.4448-29.043 36.8828 0 .32485 2.05459.59063 4.56575.59063 8.84926 0 9.89922 2.4245 6.9913 16.144-1.64188 7.74636-4.31216 13.3757-7.95973 16.7803-1.42852 1.33337-2.59732 2.85783-2.59732 3.38768 0 1.51939 10.1874-.0501 17.4599-2.68983zm-36.4883-53.2273c4.41563-2.56566 8.02842-5.11526 8.02842-5.66579 0-1.43868-7.64416-.20832-14.3924 2.31653-11.3031 4.22904-18.5692 12.2998-17.0991 18.9929l.66921 3.0469 7.38273-7.01287c4.0605-3.85708 10.9955-9.11205 15.4112-11.6777z" fill="#216906"/>
  </g>
  <path d="m11.6098 32.9007 4.08126-5.71755 5.85794-4.39543 8.32652-3.92362 8.52402-2.19272 4.62508-.59181 1.86046 1.39118-5.87884 4.14182-10.3285 6.52609-8.36971 7.20413-6.92107 6.33531-2.43168-3.33277.09159-2.88029z" fill="#666"/>
 </g>
 <g transform="matrix(.992952 0 0 1 -2.730953 -89.17191)" fill="#1a1a1a" stroke-width="1.92513">
  <path d="m158.276 161.5139q-2.9262 0.84706-7.54651 1.5401-4.62031 0.77006-9.70266 0.77006-5.15935 0-8.62458-1.3861-3.38823-1.38609-5.39036-3.85026-2.00214-2.54117-2.8492-6.0064-0.84705-3.46524-0.84705-7.62352v-22.56252h11.47377v21.17643q0 5.54437 1.4631 8.00854t5.46737 2.46417q1.23208 0 2.61818-0.077 1.38609-0.15401 2.46416-0.30802v-31.26411h11.47378z"/>
  <path d="m195.0076 142.9556q0-5.31336-2.38716-8.47058-2.38716-3.23422-7.08448-3.23422-1.5401 0-2.84919 0.15402-1.30909 0.077-2.15614 0.23101v20.7144q1.07807 0.69305 2.77218 1.15508 1.77112 0.46203 3.54224 0.46203 8.16255 0 8.16255-11.01174zm11.70479-0.30803q0 4.69732-1.15507 8.54758-1.15508 3.85026-3.38823 6.62245t-5.54438 4.31229q-3.31122 1.54011-7.62351 1.54011-2.38716 0-4.4663-0.46204-2.07914-0.46203-4.00427-1.30908v15.24703h-11.47378v-53.36461q1.5401-0.46203 3.54224-0.84706 2.00213-0.46203 4.15828-0.77005 2.23315-0.30802 4.4663-0.46203 2.31016-0.23102 4.3893-0.23102 5.00534 0 8.9326 1.54011 3.92727 1.4631 6.62245 4.23528 2.69518 2.69519 4.08128 6.62245 1.46309 3.92727 1.46309 8.77859z"/>
  <path d="m227.1958 154.6604q3.15722 0 4.4663-0.61604 1.30909-0.61605 1.30909-2.38717 0-1.38609-1.69411-2.38716-1.69412-1.07807-5.15935-2.38716-2.69518-1.00107-4.92833-2.07914-2.15615-1.07807-3.69625-2.54117-1.54011-1.54011-2.38716-3.61925-0.84706-2.07914-0.84706-5.00533 0-5.69839 4.23528-9.00961 4.23529-3.31123 11.62779-3.31123 3.69625 0 7.08448 0.69305 3.38823 0.61604 5.39036 1.38609l-2.00213 8.93261q-2.00214-0.69305-4.3893-1.23209-2.31016-0.53903-5.23635-0.53903-5.39037 0-5.39037 3.0032 0 0.69305 0.23102 1.23208 0.23101 0.53904 0.92406 1.07808 0.69305 0.46203 1.84813 1.07807 1.23208 0.53904 3.0802 1.23208 3.77326 1.3861 6.23743 2.77219 2.46416 1.30909 3.85026 2.9262 1.46309 1.5401 2.00213 3.46523 0.61604 1.92513 0.61604 4.4663 0 6.00641-4.5433 9.08662-4.46631 3.08021-12.70586 3.08021-5.39037 0-9.00961-0.92407-3.54224-0.92406-4.92833-1.5401l1.92513-9.31763q2.92619 1.15508 6.0064 1.84813 3.08021 0.61604 6.08341 0.61604z"/>
  <path d="m252.5305 112.3075 11.47378-1.84812v11.93581h13.78393v9.54864h-13.78393v14.24596q0 3.61925 1.23208 5.77539 1.30909 2.15615 5.15935 2.15615 1.84812 0 3.77325-0.30802 2.00214-0.38503 3.61925-1.00107l1.61711 8.93261q-2.07914 0.84705-4.62032 1.46309-2.54117 0.61605-6.23742 0.61605-4.69731 0-7.77752-1.23209-3.08021-1.30909-4.92834-3.54224-1.84812-2.31015-2.61817-5.54437-0.69305-3.23422-0.69305-7.16149z"/>
  <path d="m301.0438 154.8914q1.69411 0 3.23422-0.077 1.5401-0.077 2.46416-0.23102v-8.70159q-0.69304-0.15401-2.07914-0.30802-1.38609-0.15401-2.54117-0.15401-1.61711 0-3.08021 0.23102-1.38609 0.15401-2.46416 0.69304-1.07808 0.53904-1.69412 1.4631-0.61604 0.92407-0.61604 2.31016 0 2.69518 1.77112 3.77325 1.84813 1.00107 5.00534 1.00107zm-0.92406-33.57427q5.08234 0 8.47057 1.15508t5.39036 3.31123q2.07914 2.15614 2.9262 5.23635t0.84706 6.85346v23.87162q-2.46417 0.53903-6.85346 1.23208-4.3893 0.77005-10.62672 0.77005-3.92727 0-7.16149-0.69305-3.15721-0.69304-5.46737-2.23315-2.31015-1.61711-3.54224-4.15828-1.23208-2.54117-1.23208-6.23742 0-3.54224 1.3861-6.00641 1.46309-2.46416 3.85026-3.92726 2.38716-1.4631 5.46736-2.07914 3.08021-0.69305 6.39144-0.69305 2.23315 0 3.92726 0.23102 1.77112 0.15401 2.84919 0.46203v-1.07807q0-2.9262-1.77112-4.69732-1.77111-1.77112-6.16041-1.77112-2.9262 0-5.77539 0.46203-2.84919 0.38503-4.92833 1.15508l-1.4631-9.24063q1.00106-0.30802 2.46416-0.61604 1.54011-0.38502 3.31123-0.61604 1.77112-0.30802 3.69625-0.46203 2.00213-0.23102 4.00427-0.23102z"/>
  <path d="m352.5602 132.5599q-1.5401-0.38502-3.61924-0.77005-2.07915-0.46203-4.46631-0.46203-1.07807 0-2.61817 0.23102-1.4631 0.15401-2.23315 0.38502v30.95609h-11.47378v-38.34859q3.08021-1.07807 7.23849-2.00213 4.23529-1.00107 9.39463-1.00107 0.92407 0 2.23316 0.15401 1.30908 0.077 2.61817 0.30802 1.30909 0.15401 2.61818 0.46203 1.30909 0.23102 2.23315 0.61604z"/>
  <path d="m360.2608 112.3075 11.47377-1.84812v11.93581h13.78393v9.54864h-13.78393v14.24596q0 3.61925 1.23208 5.77539 1.30909 2.15615 5.15935 2.15615 1.84813 0 3.77326-0.30802 2.00213-0.38503 3.61924-1.00107l1.61711 8.93261q-2.07914 0.84705-4.62031 1.46309-2.54117 0.61605-6.23742 0.61605-4.69732 0-7.77753-1.23209-3.08021-1.30909-4.92833-3.54224-1.84813-2.31015-2.61818-5.54437-0.69304-3.23422-0.69304-7.16149z"/>
 </g>
</svg>