<svg fill="none" height="47" viewBox="0 0 240 53" width="213" xmlns="http://www.w3.org/2000/svg" class="startpage-logo css-scl0ta" aria-hidden="true" tabindex="-1"><linearGradient id="startpage-logo-gradient-R8kppq96" gradientUnits="userSpaceOnUse" x1="12.3364" x2="115.476" y1="41.9584" y2="53.3451"><stop offset="0" stop-color="#6677fb"></stop><stop offset="1" stop-color="#29ddcc"></stop></linearGradient><clipPath id="startpage-logo-clip-R8kppq96"><path d="m0 0h240v53h-240z"></path></clipPath><g clip-path="url(#startpage-logo-clip-R8kppq96)" clip-rule="evenodd" fill-rule="evenodd"><path d="m1.08052 47.4405c.58192-.8236 1.53793-1.359 2.82647-1.5649 36.32841-5.8889 73.15551-5.9301 109.48401-.1647.997.1647 1.621.453 1.953.7824.291.2883.416.6589.333 1.1943-.083.453-.291.7412-.624.9059-.415.206-1.08.2883-2.078.1648-35.9956-4.324-72.2409-2.9239-107.73791 4.2004-.33253.0412-.66505.0824-.95601.0824h-.29096c-.87288-.0412-1.49637-.3294-1.87046-.5765-.83131-.5354-1.371662-1.4002-1.57949-2.3885-.124697-.9884.041565-1.9355.54035-2.6356z" fill="url(#startpage-logo-gradient-R8kppq96)"></path><path d="m26.3942 19.4375c-1.0807-.8237-2.4524-1.5649-4.1566-2.2238-1.6626-.6589-3.6578-1.1943-5.9439-1.6884-1.9536-.453-3.4915-.8648-4.6138-1.3178-1.1222-.4118-1.91198-.906-2.41077-1.4414-.49878-.5353-.70661-1.1942-.70661-1.9767 0-1.4413.62348-2.55319 1.87048-3.37681 1.2469-.82362 2.9096-1.23543 4.9878-1.23543 1.8705 0 3.6578.28827 5.4451.90598 1.7874.61772 3.4916 1.56488 5.1542 2.80031l2.5771-5.72416c-.9561-.86481-2.1615-1.64725-3.5331-2.22378-1.4133-.61772-2.9512-1.070708-4.6138-1.441337-1.6626-.329449-3.3668-.494173-5.1126-.494173-2.9096 0-5.44508.494173-7.64806 1.48252-2.16141.98834-3.8656 2.34732-5.11257 4.03574-1.2054 1.7296-1.828889 3.62393-1.828889 5.76534 0 1.4825.249394 2.8003.706619 3.9534.49878 1.1531 1.24697 2.1414 2.28611 2.965 1.03914.8648 2.4108 1.6061 4.07343 2.2238 1.66262.6589 3.69936 1.1943 6.06856 1.6884 1.8705.4118 3.4084.8236 4.5307 1.2355 1.1222.4118 1.9536.8648 2.4523 1.4413.4988.5353.7898 1.1942.7898 1.9767 0 1.3178-.6235 2.3473-1.8705 3.0886-1.2469.7412-3.0343 1.1118-5.3619 1.1118-2.1614 0-4.1982-.2882-6.15174-.9059-1.95359-.6177-3.82404-1.5649-5.65293-2.8003l-2.61863 5.7241c1.12227.8648 2.45237 1.6473 3.9903 2.265s3.20055 1.1119 4.94631 1.4413c1.74579.3295 3.57469.4942 5.40349.4942 3.2006 0 5.9024-.453 8.1885-1.359 2.2445-.906 3.9903-2.1826 5.1957-3.8298 1.2054-1.6473 1.7873-3.624 1.7873-5.8889 0-1.4414-.2494-2.6768-.7898-3.7887-.4572-1.0707-1.2469-2.059-2.3276-2.8826zm14.5479-17.09008-.0416.01343v-.01343zm-.0416.01343v8.51105h6.6505v5.7653h-6.6505v10.0894c0 .9883.2078 1.812.5819 2.4297s.8729 1.0707 1.4964 1.3178c.6235.247 1.2885.3706 1.9951.3706.4157 0 .8313-.0412 1.2054-.0824.4157-.0823.8729-.1647 1.3717-.2471v5.8889c-.7066.2883-1.4548.4942-2.1614.5766-.7482.1235-1.4964.1647-2.3277.1647-3.2005 0-5.6529-.906-7.3571-2.718-1.7042-1.8119-2.5355-4.3651-2.5355-7.5773v-10.1717-5.7653-6.05364zm26.602 9.41665c1.1639.7413 2.0367 1.6473 2.6602 2.7592h.0416v-3.624h7.6481v25.8617h-7.6481v-3.8298c-.6235 1.1119-1.4964 2.059-2.6602 2.7591-1.6211.9884-3.4915 1.4825-5.5698 1.4825-2.2861 0-4.2813-.5765-6.027-1.6472-1.7458-1.1119-3.1175-2.6356-4.0735-4.6535-.956-2.0178-1.4548-4.3652-1.4548-7.0419 0-2.718.4573-5.0653 1.4548-7.1244.9976-2.059 2.3277-3.6239 4.0735-4.777 1.7457-1.1118 3.7409-1.6884 5.9854-1.6884 2.1199 0 3.9488.4942 5.5698 1.5237zm-3.3252 19.4787c1.912 0 3.3668-.6589 4.4059-1.9356 1.0392-1.2766 1.5795-3.1297 1.5795-5.5182 0-2.4709-.5403-4.324-1.5795-5.6418-1.0391-1.3178-2.5355-1.9767-4.4059-1.9767-1.8705 0-3.3669.6589-4.4476 2.0179-1.0807 1.3589-1.621 3.2121-1.621 5.6418 0 2.3885.5403 4.2416 1.5795 5.5182 1.0391 1.2766 2.5355 1.8944 4.4891 1.8944zm47.9247-28.90878-.041.01343v-.01343zm-.041.01343v8.51105h6.65v5.7653h-6.65v10.0894c0 .9883.208 1.812.582 2.4297s.873 1.0707 1.496 1.3178c.624.247 1.289.3706 1.995.3706.416 0 .832-.0412 1.206-.0824.415-.0823.873-.1647 1.371-.2471v5.8889c-.706.2883-1.454.4942-2.161.5766-.748.1235-1.496.1647-2.328.1647-3.2 0-5.653-.906-7.357-2.718-1.704-1.8119-2.535-4.3651-2.535-7.5773v-10.1717-5.7653-6.05364zm26.56 7.89295c2.245 0 4.24.5354 5.986 1.6884 1.746 1.1531 3.076 2.718 4.073 4.7359.998 2.059 1.497 4.4475 1.497 7.1243s-.499 5.0241-1.497 7.0419c-.997 2.0179-2.327 3.5828-4.073 4.6535-1.746 1.1119-3.741 1.6472-5.986 1.6472-2.119 0-3.99-.4941-5.569-1.4825-1.123-.7001-1.954-1.606-2.577-2.7179v15.237h-7.773v-29.8563c0-1.2352-.042-2.4704-.083-3.7056v-.0007c-.042-1.2354-.167-2.4708-.333-3.7063h7.316l.498 4.4064c.582-1.4413 1.538-2.6356 2.952-3.5416 1.579-1.0295 3.45-1.5237 5.569-1.5237zm-2.203 21.0024c1.912 0 3.367-.6178 4.406-1.8944 1.04-1.2766 1.538-3.1297 1.58-5.6006 0-2.3885-.54-4.2828-1.58-5.6418-1.039-1.3178-2.535-2.0179-4.406-2.0179-1.953 0-3.45.6589-4.489 1.9767s-1.538 3.2121-1.538 5.6418.499 4.324 1.538 5.6006c1.039 1.2767 2.536 1.9356 4.489 1.9356zm36.079-16.7195c-.623-1.1119-1.496-2.0179-2.66-2.7592-1.621-1.0295-3.45-1.5237-5.57-1.5237-2.244 0-4.239.5766-5.985 1.6884-1.746 1.1531-3.076 2.718-4.074 4.777-.997 2.0591-1.454 4.4064-1.454 7.1244 0 2.6767.498 5.0241 1.454 7.0419.956 2.0179 2.328 3.5416 4.074 4.6535 1.746 1.0707 3.741 1.6472 6.027 1.6472 2.078 0 3.949-.4941 5.57-1.4825 1.164-.7001 2.036-1.6472 2.66-2.7591v3.8298h7.648v-25.8617h-7.69zm-1.538 14.7839c-1.039 1.2767-2.494 1.9356-4.406 1.9356-1.953 0-3.449-.6178-4.489-1.8944-1.039-1.2766-1.579-3.1297-1.579-5.5182s.54-4.2829 1.621-5.6418c1.081-1.359 2.577-2.0179 4.447-2.0179 1.871 0 3.367.6589 4.406 1.9767 1.04 1.3178 1.58 3.1709 1.58 5.6418-.042 2.3885-.54 4.2416-1.58 5.5182zm30.219-17.5019c1.163.7413 2.078 1.6472 2.701 2.7591v-3.6651h7.732v24.6263c0 4.1593-1.206 7.289-3.575 9.4304s-5.902 3.2122-10.516 3.2122c-4.115 0-7.731-.7825-10.807-2.3885l1.164-5.7242c1.579.7824 3.117 1.359 4.696 1.7296 1.58.3706 3.159.5765 4.697.5765 2.245 0 3.908-.4941 4.988-1.5237 1.123-1.0295 1.663-2.5944 1.663-4.6946v-4.5299c-.374.5353-.79 1.0707-1.289 1.5649-.873.8648-1.912 1.5237-3.117 2.059-1.247.5354-2.536.7825-3.949.7825-2.286 0-4.281-.5354-6.027-1.6061s-3.117-2.5532-4.115-4.4887c-.997-1.9356-1.496-4.2005-1.496-6.7949s.499-4.8182 1.496-6.7537c.998-1.8943 2.369-3.418 4.115-4.4887 1.746-1.1119 3.783-1.6473 6.027-1.6473 2.12 0 3.99.5354 5.612 1.5649zm-3.367 18.3256c1.87 0 3.367-.6178 4.447-1.8532 1.081-1.2354 1.621-2.965 1.663-5.1476 0-2.1414-.499-3.871-1.58-5.1065-1.08-1.2766-2.577-1.8943-4.489-1.8943s-3.45.6177-4.53 1.8532c-1.123 1.2354-1.663 2.9238-1.663 5.1064s.54 3.9122 1.663 5.1476c1.122 1.2766 2.618 1.8944 4.489 1.8944zm-103.9973-18.0786c-1.0807.8237-1.8704 1.9355-2.4108 3.2945l-.5403-4.4887h-7.3156c.1663 1.2354.291 2.4708.3325 3.7063.0416 1.2354.0832 2.4708.0832 3.7063v18.4491h7.7727v-13.5074c0-1.2766.2494-2.3885.7482-3.3357.4988-.9471 1.2054-1.6472 2.1199-2.1826.9144-.4941 2.0782-.7824 3.4499-.7824.8313 0 1.6626.1235 2.4936.3706v-6.8772c-.415-.0824-.8725-.1235-1.4129-.1235-1.9951 0-3.7825.5765-5.3204 1.7707zm144.7313 4.2007c.956 1.9767 1.455 4.2829 1.455 6.9596l-.083 2.5533h-17.001c.25 1.5237.749 2.7179 1.497 3.5827 1.164 1.2766 2.909 1.9355 5.279 1.9355 1.371 0 2.743-.2059 4.073-.6589s2.577-1.0707 3.699-1.8943l2.037 5.1888c-1.247.9883-2.785 1.7296-4.614 2.3061-1.787.5354-3.616.8237-5.486.8237-2.91 0-5.404-.5766-7.524-1.6473-2.119-1.1119-3.741-2.6356-4.863-4.6534-1.122-1.9767-1.704-4.3652-1.704-7.1244 0-2.6767.582-5.024 1.663-7.0419 1.08-2.0591 2.577-3.624 4.489-4.777 1.912-1.1119 4.115-1.6884 6.65-1.6884 2.411 0 4.531.5353 6.318 1.606 1.788 1.0707 3.159 2.5532 4.115 4.5299zm-14.382 1.1943c-.581.8236-.997 1.8119-1.247 3.0886h10.392c-.166-1.4002-.54-2.5121-1.205-3.3357-.873-1.1119-2.12-1.6472-3.783-1.6472-1.787 0-3.159.6177-4.157 1.8943z" fill="#202C46"></path></g></svg>
