<svg fill="none" xmlns="http://www.w3.org/2000/svg" viewBox="0 0 235 125"> <path d="M217.188 86.0043V91.3462H232.873V29.1132H217.188V86.0043Z" fill="currentColor"/> <path d="M224.898 20.2991C230.477 20.2991 235 15.755 235 10.1496C235 4.54412 230.477 0 224.898 0C219.319 0 214.796 4.54412 214.796 10.1496C214.796 15.755 219.319 20.2991 224.898 20.2991Z" fill="currentColor"/> <path d="M182.63 100.16H160.033C153.919 100.16 152.856 93.4829 153.919 90.812C154.451 89.4765 155.78 87.6068 156.843 86.2714C161.097 88.6752 166.148 90.0107 171.464 90.0107C188.478 90.0107 202.036 76.1218 202.036 59.2949C202.036 50.2137 198.048 42.2009 191.934 36.3248L192.731 35.5235C194.326 33.9209 196.719 32.8526 199.111 33.1197L202.833 33.3868V18.6966H196.453C189.01 18.6966 182.895 23.2372 180.237 29.6474C177.579 28.8462 174.655 28.312 171.73 28.312C154.717 28.312 141.159 42.2009 141.159 59.0278C141.159 65.7051 143.286 72.1154 147.007 77.1902C146.476 77.7244 145.678 78.2586 145.147 78.5257C144.881 78.7927 144.615 79.0598 144.349 79.3269C138.235 85.203 135.311 92.6816 136.906 101.229C137.703 105.769 141.691 110.577 145.678 113.248C148.337 115.118 151.793 115.919 155.248 115.919L180.769 114.85C183.693 114.85 186.351 116.186 187.946 118.857L191.136 125L206.821 119.658L204.162 113.782C200.175 105.502 191.934 100.16 182.63 100.16ZM171.73 44.6047C179.705 44.6047 186.351 51.2821 186.351 59.2949C186.351 67.3077 179.705 73.9851 171.73 73.9851C163.755 73.9851 157.109 67.3077 157.109 59.2949C157.109 51.015 163.489 44.6047 171.73 44.6047Z" fill="currentColor"/> <path d="M93.5748 28.0449C77.6246 28.8461 64.3327 41.6667 63.2694 57.6923C61.9402 76.656 76.8271 92.4145 95.1698 92.4145C101.284 92.4145 106.867 88.9423 111.652 86.0043V91.6132H127.336V59.0278C126.539 41.1325 111.652 27.2436 93.5748 28.0449ZM95.1698 77.4573C85.5997 77.4573 78.1563 69.7115 78.1563 60.3632C78.1563 50.7479 85.8655 43.2692 95.1698 43.2692C104.74 43.2692 112.183 51.0149 112.183 60.3632C112.449 69.7115 104.74 77.4573 95.1698 77.4573Z" fill="currentColor"/> <path d="M63.535 29.1133H41.4705L22.3303 48.344L15.6844 55.0214V18.1624H0V91.6133H15.6844V64.1026L22.3303 70.7799V70.5128L43.0655 91.6133H65.13L31.3687 59.562L63.535 29.1133Z" fill="currentColor"/> </svg>