<svg viewBox="0 0 1890 1890" width="1890" height="1890" xmlns="http://www.w3.org/2000/svg" xmlns:xlink="http://www.w3.org/1999/xlink" overflow="hidden"><defs><clipPath id="clip0"><rect x="0" y="0" width="1890" height="1890"/></clipPath></defs><g clip-path="url(#clip0)"><rect x="0" y="0" width="1890" height="1890" fill="#FFFFFF"/><path d="M0 0 1331.35 1.01752" stroke="#BFBFBF" stroke-width="2.6669" stroke-miterlimit="8" stroke-opacity="0.2" fill="none" fill-rule="evenodd" transform="matrix(1 0 0 -1 280.5 902.518)"/><path d="M1415.76 433.824 475.618 1373.97" stroke="#BFBFBF" stroke-width="2.6669" stroke-miterlimit="8" stroke-opacity="0.2" fill="none" fill-rule="evenodd"/><path d="M946.5 237.5 946.5 1567.06" stroke="#BFBFBF" stroke-width="2.6669" stroke-miterlimit="8" stroke-opacity="0.2" fill="none" fill-rule="evenodd"/><path d="M475.618 433.996 1415.76 1374.14" stroke="#BFBFBF" stroke-width="2.6669" stroke-miterlimit="8" stroke-opacity="0.2" fill="none" fill-rule="evenodd"/><rect x="619" y="137" width="652" height="100" fill="#FFFFFF" fill-opacity="0.8"/><text font-family="Calibri,Calibri_MSFontService,sans-serif" font-weight="700" font-size="37" transform="translate(752.996 177)">Brotherhood (<tspan font-size="37" x="219.233" y="0">Fraternité</tspan>)</text><path d="M972.225 180.675 1125.23 180.675 1125.23 182.675 972.225 182.675Z" fill-rule="evenodd"/><text font-family="Calibri,Calibri_MSFontService,sans-serif" font-style="italic" font-weight="700" font-size="37" transform="translate(834.664 222)">NATIONALISM</text><rect x="619" y="1568" width="652" height="100" fill="#FFFFFF" fill-opacity="0.8"/><text font-family="Calibri,Calibri_MSFontService,sans-serif" font-weight="700" font-size="37" transform="translate(805.758 1608)">Freedom (Liberté<tspan font-size="37" x="266.817" y="0">)</tspan></text><path d="M964.222 1612.1 1072.22 1612.1 1072.22 1614.1 964.222 1614.1Z" fill-rule="evenodd"/><text font-family="Calibri,Calibri_MSFontService,sans-serif" font-style="italic" font-weight="700" font-size="37" transform="translate(852.742 1653)">LIBERALISM</text><rect x="1611" y="576" width="100" height="653" fill="#FFFFFF" fill-opacity="0.8"/><text font-family="Calibri,Calibri_MSFontService,sans-serif" font-weight="700" font-size="37" transform="matrix(6.12323e-17 1 -1 6.12323e-17 1671.34 702)">Tradition (<tspan font-size="37" x="159" y="9.73594e-15">Ancien</tspan><tspan font-size="37" x="274" y="1.67777e-14">Regime</tspan><tspan font-size="37" x="389" y="2.38194e-14">)</tspan></text><path d="M1667.34 860.563 1667.34 976.063 1667.34 1091.56 1665.34 1091.56 1665.34 976.063 1665.34 860.563Z" fill-rule="evenodd"/><text font-family="Calibri,Calibri_MSFontService,sans-serif" font-style="italic" font-weight="700" font-size="37" transform="matrix(6.12323e-17 1 -1 6.12323e-17 1626.34 785)">PERENNIALISM</text><rect x="179" y="576" width="101" height="653" fill="#FFFFFF" fill-opacity="0.8"/><text font-family="Calibri,Calibri_MSFontService,sans-serif" font-weight="700" font-size="37" transform="matrix(-1.83697e-16 -1 1 -1.83697e-16 219.236 1033)">Equality (<tspan font-size="37" x="146" y="2.68198e-14">Egalité</tspan><tspan font-size="37" x="249" y="4.57406e-14">)</tspan></text><path d="M223.233 887.116 223.233 784.116 225.233 784.116 225.233 887.116Z" fill-rule="evenodd"/><text font-family="Calibri,Calibri_MSFontService,sans-serif" font-style="italic" font-weight="700" font-size="37" transform="matrix(-1.83697e-16 -1 1 -1.83697e-16 264.236 987)">SOCIALISM</text><text font-family="Calibri,Calibri_MSFontService,sans-serif" font-weight="400" font-size="21" transform="matrix(0.707107 0.707107 -0.707107 0.707107 470.454 1300)">Anarchism<tspan font-size="14" x="91.024" y="-6.17119">6</tspan></text><text font-family="Calibri,Calibri_MSFontService,sans-serif" font-weight="400" font-size="21" transform="translate(861.737 1526)">Anarcho<tspan font-size="21" x="72.3597" y="0">-</tspan><tspan font-size="21" x="78.8603" y="0">Capitalism</tspan><tspan font-size="21" x="5.2926" y="-339">Classical L</tspan>i<tspan font-size="21" x="95.6205" y="-339">beralism</tspan><tspan font-size="21" x="22.7422" y="-175">Minarchism</tspan><tspan font-size="21" x="129.438" y="-175">&amp;</tspan><tspan font-size="21" x="-22.3617" y="-149">American Libertarianism</tspan></text><text font-family="Calibri,Calibri_MSFontService,sans-serif" font-weight="400" font-size="21" transform="matrix(0.707107 0.707107 -0.707107 0.707107 1013.75 983)">Liberal Conservatism &amp; Hoppe Libertarianism</text><text font-family="Calibri,Calibri_MSFontService,sans-serif" font-weight="400" font-size="21" transform="matrix(0.707107 -0.707107 0.707107 0.707107 595.251 1263)">Social Liberalism &amp; Progressive Liberalism</text><text font-family="Calibri,Calibri_MSFontService,sans-serif" font-weight="400" font-size="21" transform="matrix(-1.83697e-16 -1 1 -1.83697e-16 340.126 961)">Communism<tspan font-size="14" x="110" y="-6.00052">1</tspan></text><text font-family="Calibri,Calibri_MSFontService,sans-serif" font-weight="400" font-size="21" transform="matrix(0.707107 -0.707107 0.707107 0.707107 478.575 515)">Strasserism<tspan font-size="21" x="103.653" y="0.415787">&amp; </tspan><tspan font-size="21" x="-28.9018" y="26.2526">National</tspan><tspan font-size="21" x="49.0592" y="26.4318">Bolshevis</tspan><tspan font-size="21" x="129.731" y="26.4936">m</tspan></text><text font-family="Calibri,Calibri_MSFontService,sans-serif" font-weight="400" font-size="21" transform="matrix(6.12323e-17 1 -1 6.12323e-17 1233.58 846)">Traditionalist <tspan font-size="21" x="-2" y="26">conservatism</tspan><tspan font-size="21" x="-44" y="-156.639">Esoteric Traditionalism</tspan></text><text font-family="Calibri,Calibri_MSFontService,sans-serif" font-weight="400" font-size="21" transform="matrix(0.710831 -0.703363 0.703363 0.710831 998.539 856)">National Conservatism &amp; Authoritarian Conservatism<tspan font-size="14" x="457.607" y="-5.81876">3</tspan></text><text font-family="Calibri,Calibri_MSFontService,sans-serif" font-weight="400" font-size="21" transform="matrix(-1.83697e-16 -1 1 -1.83697e-16 510.657 994)">Democratic Socialism<tspan font-size="21" x="16" y="162.596">Social Democracy</tspan></text><text font-family="Calibri,Calibri_MSFontService,sans-serif" font-weight="400" font-size="21" transform="translate(866.716 297)">National Socialism</text><text font-family="Calibri,Calibri_MSFontService,sans-serif" font-weight="400" font-size="21" transform="matrix(0.703851 0.710348 -0.710348 0.703851 1319.1 424)">Clerical Fascism<tspan font-size="14" x="135.112" y="-5.64996">4</tspan></text><text font-family="Calibri,Calibri_MSFontService,sans-serif" font-weight="400" font-size="21" transform="matrix(0.707107 0.707107 -0.707107 0.707107 646.886 611)">Nationalist<tspan font-size="21" x="93.3698" y="-0.0317192">-</tspan><tspan font-size="21" x="100.156" y="0.253513">Socialist Syncretism</tspan><tspan font-size="14" x="269.201" y="-6.15692">2</tspan></text><text font-family="Calibri,Calibri_MSFontService,sans-serif" font-weight="400" font-size="21" transform="matrix(6.12323e-17 1 -1 6.12323e-17 1545.67 758)">Return to the Pre<tspan font-size="21" x="150" y="9.18485e-15">-</tspan><tspan font-size="21" x="156" y="9.55225e-15">Modern Order</tspan><tspan font-size="14" x="282" y="-6.00049">5</tspan><tspan font-size="16" x="25" y="20.9995">(Monarchism/Feudalism/Clericalism)</tspan></text><text font-family="Calibri,Calibri_MSFontService,sans-serif" font-weight="400" font-size="21" transform="translate(848.511 614)">Völkisch<tspan font-size="21" x="75.28" y="0">Nationalism &amp; </tspan><tspan font-size="21" x="33.5163" y="26">Identitarianism</tspan></text><text font-family="Calibri,Calibri_MSFontService,sans-serif" font-weight="400" font-size="21" transform="matrix(0.707107 -0.707107 0.707107 0.707107 1292.38 1424)">Neo<tspan font-size="21" x="36.303" y="-0.466541">-</tspan><tspan font-size="21" x="42.3817" y="-0.0447121">Reactionary Movement</tspan></text><path d="M281.5 903.5C281.5 536.783 578.783 239.5 945.5 239.5 1312.22 239.5 1609.5 536.783 1609.5 903.5 1609.5 1270.22 1312.22 1567.5 945.5 1567.5 578.783 1567.5 281.5 1270.22 281.5 903.5Z" stroke="#000000" stroke-width="3.00026" stroke-miterlimit="8" fill="none" fill-rule="evenodd"/><text font-family="Calibri,Calibri_MSFontService,sans-serif" font-weight="400" font-size="21" transform="translate(875.982 457)">Classical Fascism<tspan font-size="21" x="20.8346" y="452">“Centrism”</tspan><tspan font-weight="700" font-size="19" x="-839.005" y="1244">Notes:</tspan><tspan font-size="19" x="-839.005" y="1267">1: including ideologies such as Marxism</tspan><tspan font-size="19" x="-539.978" y="1267">-</tspan><tspan font-size="19" x="-534.311" y="1267">Leninism, Bolshevism, </tspan><tspan font-size="19" x="-363.223" y="1267">Trotsyism</tspan><tspan font-size="19" x="-290.85" y="1267">, Stalinism, Maoism, </tspan><tspan font-size="19" x="-134.396" y="1267">Polpotism</tspan><tspan font-size="19" x="-58.4291" y="1267">, and Juche</tspan><tspan font-size="19" x="-839.005" y="1289">2:</tspan><tspan font-size="19" x="-820.336" y="1289">including ideologies</tspan><tspan font-size="19" x="-665.656" y="1289">such</tspan><tspan font-size="19" x="-626.653" y="1289">as</tspan><tspan font-size="19" x="-606.151" y="1289">Third International Theory, Baathism, Nasserism, and Peronism</tspan><tspan font-size="19" x="-839.005" y="1312">3: including</tspan><tspan font-size="19" x="-747.163" y="1312">ideologies</tspan><tspan font-size="19" x="-665.656" y="1312">such as Conservative Revolution, </tspan><tspan font-size="19" x="-413.014" y="1312">Maurassism</tspan><tspan font-size="19" x="-321.886" y="1312">, Showa</tspan><tspan font-size="19" x="-262.827" y="1312">-</tspan><tspan font-size="19" x="-257.16" y="1312">Statism, </tspan><tspan font-size="19" x="-192.054" y="1312">Dollfussism</tspan><tspan font-size="19" x="-105.38" y="1312">, Francoism, and Salazarism</tspan><tspan font-size="19" x="-839.005" y="1334">4: including</tspan><tspan font-size="19" x="-747.163" y="1334">ideologies</tspan><tspan font-size="19" x="-665.656" y="1334">such</tspan><tspan font-size="19" x="-626.653" y="1334">as</tspan><tspan font-size="19" x="-606.151" y="1334">Legionarism</tspan><tspan font-size="19" x="-514.143" y="1334">, </tspan><tspan font-size="19" x="-505.309" y="1334">Falangism</tspan><tspan font-size="19" x="-429.802" y="1334">, </tspan><tspan font-size="19" x="-420.968" y="1334">Metaxism</tspan><tspan font-size="19" x="-346.128" y="1334">, </tspan><tspan font-size="19" x="-337.294" y="1334">Rexism</tspan><tspan font-size="19" x="-283.729" y="1334">, </tspan><tspan font-size="19" x="-274.895" y="1334">Ustasism</tspan><tspan font-size="19" x="-206.822" y="1334">, and Integralism</tspan><tspan font-size="19" x="-839.005" y="1356">5:</tspan><tspan font-size="19" x="-820.336" y="1356">for</tspan><tspan font-size="19" x="-794.561" y="1356">example,</tspan><tspan font-size="19" x="-721.508" y="1356">the</tspan><tspan font-size="19" x="-691.838" y="1356">European societies before the French Revolution, or the ideologies of Saudi</tspan><tspan font-size="19" x="-121.835" y="1356">-</tspan><tspan font-size="19" x="-116.168" y="1356">Arabia, Iran and Afghanistan today</tspan><tspan font-size="19" x="-839.005" y="1379">6:</tspan><tspan font-size="19" x="-820.336" y="1379">including ideologies such as Anarcho</tspan><tspan font-size="19" x="-542.752" y="1379">-</tspan><tspan font-size="19" x="-537.085" y="1379">Communism, Anarcho</tspan><tspan font-size="19" x="-369.177" y="1379">-</tspan><tspan font-size="19" x="-363.509" y="1379">Socialism, Anarcho</tspan><tspan font-size="19" x="-220.937" y="1379">-</tspan><tspan font-size="19" x="-215.27" y="1379">Syndicalism, and Anarcho</tspan><tspan font-size="19" x="-21.9059" y="1379">-</tspan><tspan font-size="19" x="-16.2387" y="1379">Individualism</tspan><tspan font-weight="700" font-size="32" x="-851.966" y="-404">Classification of Political Ideologies</tspan><tspan font-size="32" x="-851.966" y="-366">By A.</tspan><tspan font-size="32" x="-779.42" y="-366">Eylenburg</tspan><tspan font-size="32" x="-650.075" y="-366">, </tspan><tspan font-style="italic" font-size="32" x="-634.907" y="-366">eylenburg.github.i</tspan><tspan font-style="italic" font-size="32" x="-398.42" y="-366">o</tspan></text><path d="M475.919 434.432 392.5 347.5" stroke="#000000" stroke-width="2.6669" stroke-miterlimit="8" fill="none" fill-rule="evenodd"/><path d="M1498.92 1460.43 1415.5 1373.5" stroke="#000000" stroke-width="2.6669" stroke-miterlimit="8" fill="none" fill-rule="evenodd"/><path d="M1417.5 433.919 1504.43 350.5" stroke="#000000" stroke-width="2.6669" stroke-miterlimit="8" fill="none" fill-rule="evenodd"/><path d="M390.5 1455.92 477.432 1372.5" stroke="#000000" stroke-width="2.6669" stroke-miterlimit="8" fill="none" fill-rule="evenodd"/><text font-family="Calibri,Calibri_MSFontService,sans-serif" font-style="italic" font-weight="400" font-size="16" transform="matrix(0.707107 -0.707107 0.707107 0.707107 1368.35 1481)">← Materialist<tspan font-size="16" x="-7.60537" y="19.2647">← Individualist</tspan><tspan font-size="16" x="-150.132" y="37.9586">← Left</tspan><tspan font-size="16" x="-107.59" y="38.0739">-</tspan><tspan font-size="16" x="-103.052" y="38.3694">wing (post French Revolution)</tspan><tspan font-size="16" x="119.457" y="0.663429">Idealist →</tspan><tspan font-size="16" x="119.765" y="19.3558">Collectivist →</tspan><tspan font-size="16" x="119.366" y="38.7554">Right</tspan><tspan font-size="16" x="153.261" y="38.7096">-</tspan><tspan font-size="16" x="158.506" y="38.298">wing (post French Revolution) →</tspan></text><text font-family="Calibri,Calibri_MSFontService,sans-serif" font-style="italic" font-weight="400" font-size="16" transform="matrix(0.707107 0.707107 -0.707107 0.707107 1275.15 217)">← Left<tspan font-size="16" x="42.5417" y="-0.115318">-</tspan><tspan font-size="16" x="47.787" y="0.296238">wing (post French Revolution)</tspan><tspan font-size="16" x="269.762" y="0.352432">Right</tspan><tspan font-size="16" x="303.658" y="0.398178">-</tspan><tspan font-size="16" x="308.903" y="0.809738">wing (post French Revolution) →</tspan></text><text font-family="Calibri,Calibri_MSFontService,sans-serif" font-style="italic" font-weight="400" font-size="16" transform="matrix(0.707107 -0.707107 0.707107 0.707107 355.586 463)">← Materialist<tspan font-size="16" x="-71.4213" y="19.0884">← Left</tspan><tspan font-size="16" x="-28.1724" y="18.4966">-</tspan><tspan font-size="16" x="-23.6342" y="18.7922">wing (post WW2)</tspan><tspan font-size="16" x="120.165" y="-0.0436134">Idealist →</tspan><tspan font-size="16" x="119.765" y="19.3559">Right</tspan><tspan font-size="16" x="153.66" y="19.3102">-</tspan><tspan font-size="16" x="158.906" y="18.8986">wing (post WW2) →</tspan></text><text font-family="Calibri,Calibri_MSFontService,sans-serif" font-style="italic" font-weight="400" font-size="16" transform="matrix(0.707107 0.707107 -0.707107 0.707107 364.048 1335)">← Collectivist<tspan font-size="16" x="-72.6999" y="18.9598">← Left</tspan><tspan font-size="16" x="-30.1582" y="18.8445">-</tspan><tspan font-size="16" x="-24.9129" y="19.256">wing (post WW2)</tspan><tspan font-size="16" x="118.352" y="0.442005">Individualist →</tspan><tspan font-size="16" x="118.044" y="19.1344">Right</tspan><tspan font-size="16" x="151.94" y="19.1801">-</tspan><tspan font-size="16" x="157.185" y="19.5917">wing (post WW2) →</tspan></text></g></svg>