<svg viewBox="0 0 175.152 175.152" xmlns="http://www.w3.org/2000/svg"><path d="M83.93 0h8.24c19.48 1.197 38.596 8.758 53.206 21.769 17.909 15.522 28.82 38.623 29.776 62.277v8.123c-1.197 19.446-8.73 38.525-21.706 53.127-15.388 17.82-38.257 28.677-61.732 29.856h-8.016c-19.928-.974-39.499-8.775-54.351-22.144C11.814 137.611 1.144 114.921 0 91.651V83.69c1.081-23.333 11.77-46.103 29.347-61.536C44.253 8.731 63.922.903 83.93 0Z" style="fill:#404552"/><path d="M86.146 52.161c7.587-5.486 17.48-6.443 26.55-5.594 9.634 1.082 19.419 4.808 25.925 12.252 4.414 4.844 6.693 11.215 7.587 17.622.321 2.413.634 4.835.786 7.266.786 12.788-3.914 25.486-11.689 35.522-8.445 8.972-19.678 15.165-31.59 18.158-17.417 4.343-36.63 1.68-51.902-7.873-9.642-6.005-17.542-14.932-21.867-25.477-3.807-10.322-3.763-21.635-1.743-32.332 1.69 6.48 6.658 12.029 13.092 14.021 5.916 1.86 13.261 1.198 17.658-3.565 9.973-9.178 15.97-22.118 27.193-30z" style="fill:#fff"/><path d="M115.887 68.363c1.644-3.432 6.183-3.566 8.918-1.376-.563.17-1.689.518-2.252.697.045.67.116 2.02.16 2.69 1.216.125 2.414-.125 3.575-.483-.25 2.52-1.197 5.416-3.985 6.068-4.361 1.689-8.704-3.566-6.416-7.596z" style="fill:#404552"/><path d="M146.208 76.441c2.797.966 5.612 1.877 8.418 2.798-2.565 1.456-5.121 2.922-7.632 4.468-.152-2.431-.465-4.853-.786-7.266zM68.533 89.917c1.859-3.306 5.362-5.335 9.061-5.853 6.828-.75 13.503 5.55 12.583 12.466-1.198 4.37-3.977 8.883-8.615 10.107-11.832 2.708-23.547-1.617-34.843-4.71 8.32-1.17 17.301-4.431 21.814-12.01z" style="fill:#6bca81;fill-opacity:1"/><circle style="fill:#404552;fill-opacity:1;stroke:#404552;stroke-width:.71490747;stroke-opacity:1" cx="120.85" cy="70.899" r="5.264"/><ellipse style="fill:#fff;fill-opacity:1;stroke:#fff;stroke-width:.71490747;stroke-opacity:1" cx="123.72" cy="68.422" rx="1.542" ry="1.509"/></svg>
