<?xml version="1.0" encoding="UTF-8" standalone="no"?>
<svg xmlns:rdf="http://www.w3.org/1999/02/22-rdf-syntax-ns#" xmlns="http://www.w3.org/2000/svg" height="84.667mm" width="84.667mm" version="1.1" xmlns:cc="http://creativecommons.org/ns#" xmlns:dc="http://purl.org/dc/elements/1.1/" viewBox="0 0 299.99999 299.99999">
 <g transform="matrix(4.9587 0 0 4.9587 0 -.0000098611)" fill="#982e6ff">
  <g transform="translate(-1.7432 -1.4942)" fill="#982e6ff">
   <path d="m30.25 0c-16.71 0-30.25 13.54-30.25 30.25s13.54 30.25 30.25 30.25 30.25-13.54 30.25-30.25c0-2.0782-0.19468-4.1223-0.59375-6.0827-0.65012 2.4467-1.374 4.8639-2.3125 7.0514-0.32955 0.67395-0.70055 1.3626-1.25 1.8125-0.507 0.395-1.154 0.584-1.844 0.594-0.393-0.016-0.807-0.112-1.156-0.219l0.25-1.0625c0.67663 0.28723 1.553 0.2641 2.0938-0.15625 0.28933-0.224 0.54791-0.58042 0.78125-1.0938-1.2661-2.4218-2.2582-4.9132-2.9062-7.375h1.375c0.53916 1.9914 1.2825 4.1205 2.0938 5.875 0.76342-2.1026 1.204-4.025 1.6562-5.875h1.125c-2.988-13.569-15.096-23.719-29.563-23.719zm29.562 23.719c0.03198 0.14526 0.06387 0.30255 0.09375 0.44858 0.03784-0.14957 0.08807-0.29777 0.125-0.44858zm-14.031-3.031c0.43343-0.000049 0.84066 0.2665 0.84375 0.84375-0.0031 0.53045-0.38827 0.85015-0.84375 0.84375-0.4676 0.0064-0.81138-0.31127-0.8125-0.84375 0.01685-0.58205 0.35399-0.84691 0.8125-0.84375zm4.1875 0.75v2.2812h2.7812v1.0938h-2.7812v3.3438c-0.000002 0.364 0.03775 0.66358 0.09375 0.90625 0.126 0.61824 0.47123 0.89607 1.25 0.9375 0.75539-0.01417 0.96256-0.12379 1.4375-0.34375l0.282 1.093c-0.61628 0.28197-1.0992 0.36108-1.8125 0.375-0.89907-0.03641-1.3334-0.0079-2-0.75-0.52758-0.63246-0.53009-1.4639-0.53125-2.1875v-6.5zm-38.938 1.9062h5.1875v15.25c-0.000009 3.5467 0.56749 6.0631 1.6875 7.5938s3.0056 2.3125 5.6562 2.3125c1.9774-0.05071 4.7668-0.24072 5.7812-0.5625v-24.594h5.1875v28.281c-3.866 0.974-7.556 1.46-11.53 1.469-9.144 0.046-11.928-5.845-11.969-13.406zm30.375 0.46875c0.82546 0.33702 1.5329 1.1012 1.5312 3.0938v4.0938h-1.3125v-3.8125c-0.01953-1.2878-0.12951-2.0464-0.9375-2.3438-0.60413-0.20532-0.89355-0.27974-2.3125 0v6.1562h-1.3125v-7.0938c1.6836-0.33004 3.1538-0.53708 4.3438-0.09375zm3.75-0.09375h1.3125v7.2812h-1.3125z" fill-opacity=".94118" transform="translate(1.7432 1.4942)" fill="#982e6f"/>
  </g>
 </g>
</svg>
