<?xml version="1.0" encoding="UTF-8"?>
<!DOCTYPE svg PUBLIC "-//W3C//DTD SVG 1.1//EN" "http://www.w3.org/Graphics/SVG/1.1/DTD/svg11.dtd">
<!-- Creator: CorelDRAW X8 -->
<svg xmlns="http://www.w3.org/2000/svg" xml:space="preserve" width="2.32193in" height="2.644in" version="1.1" style="shape-rendering:geometricPrecision; text-rendering:geometricPrecision; image-rendering:optimizeQuality; fill-rule:evenodd; clip-rule:evenodd"
viewBox="0 0 2322 2644"
 xmlns:xlink="http://www.w3.org/1999/xlink">
 <defs>
  <style type="text/css">
   <![CDATA[
    .fil0 {fill:#1A1A1A;fill-rule:nonzero}
   ]]>
  </style>
 </defs>
 <g id="Layer_x0020_1">
  <metadata id="CorelCorpID_0Corel-Layer"/>
  <path class="fil0" d="M605 798l381 -217c-7,-21 -12,-43 -12,-67 0,-92 67,-168 155,-184l0 -330 64 0 0 330c88,16 155,92 155,184 0,24 -5,46 -13,67l382 217c14,-16 31,-30 50,-42 80,-46 180,-26 237,42l286 -165 32 56 -286 165c31,84 -2,180 -82,226 -18,10 -36,17 -55,21l0 442c19,4 37,11 55,21 80,46 113,142 82,226l286 165 -32 56 -286 -165c-57,68 -157,88 -237,42 -19,-12 -36,-26 -50,-42 -127,72 -254,145 -382,217 8,21 13,43 13,67 0,92 -67,168 -155,184l0 330 -64 0 0 -330c-88,-16 -155,-92 -155,-184 0,-24 5,-46 12,-67l-381 -217c-14,16 -31,30 -50,42 -80,46 -180,26 -237,-42l-286 165 -32 -56 286 -165c-31,-84 2,-180 82,-226 18,-10 36,-17 55,-21l0 -442c-19,-4 -37,-11 -55,-21 -80,-46 -113,-142 -82,-226l-286 -165 32 -56 286 165c57,-68 157,-88 237,-42 19,12 36,26 50,42zm1080 992c-18,-50 -15,-108 14,-157 30,-52 81,-84 136,-92l0 -438c-55,-8 -106,-40 -136,-92 -29,-49 -32,-107 -14,-157l-382 -218c-35,40 -85,65 -142,65 -57,0 -107,-25 -142,-65l-382 218c18,50 15,108 -14,157 -30,52 -81,84 -136,92l0 438c55,8 106,40 136,92 29,49 32,107 14,157l382 218c35,-40 85,-65 142,-65 57,0 107,25 142,65l382 -218z"/>
 </g>
</svg>
