<svg height="32" viewBox="0 0 32 32" width="32" xmlns="http://www.w3.org/2000/svg" xmlns:xlink="http://www.w3.org/1999/xlink"><linearGradient id="a" gradientUnits="userSpaceOnUse" x1="4" x2="28" y1="31" y2="1"><stop offset="0" stop-color="#007c3c"/><stop offset="1" stop-color="#78fc4e"/></linearGradient><g fill-rule="evenodd" stroke-linecap="square"><path d="m7 0c-2.216 0-4 1.784-4 4v24c0 2.216 1.784 4 4 4h18c2.216 0 4-1.784 4-4v-16l-12-12zm13 0 9 9v-9z" fill="url(#a)"/><path d="m3 27v1c0 2.216 1.784 4 4 4h18c2.216 0 4-1.784 4-4v-1c0 2.216-1.784 4-4 4h-18c-2.216 0-4-1.784-4-4z" fill-opacity=".19862"/><path d="m20 0h1.4l7.6 7.6v1.4z" fill-opacity=".20149"/><path d="m9 13c-.554 0-1 .446-1 1v7c0 .554.446 1 1 1h6v-1h-2v-1h2v-1h-2v-1h8v-4c0-.554-.446-1-1-1zm0 1h3v1h-3zm4 0h3v1h-3zm4 0h3v1h-3zm-8 2h3v1h-3zm4 0h3v1h-3zm4 0h3v1h-3zm-8 2h3v1h-3zm0 2h3v1h-3z" fill="#fafafa"/><path d="m16 18c-.554 0-1 .446-1 1v5c0 .554.446 1 1 1h7c.554 0 1-.446 1-1v-5c0-.554-.446-1-1-1zm2 1h1v5h-1zm-2 1h1v4h-1zm6 1h1v3h-1zm-2 1h1v2h-1z" fill="#b4f48b"/></g></svg>