<svg width="66" height="60" viewBox="0 0 66 60" fill="none" xmlns="http://www.w3.org/2000/svg">
<path fill-rule="evenodd" clip-rule="evenodd" d="M28.9406 59.2644L2.20792 46.9066C-0.0693069 45.8277 -0.0693069 44.1604 2.20792 43.1796L11.5148 38.8642L28.8416 46.9066C31.1188 47.9854 34.7822 47.9854 36.9604 46.9066L54.2871 38.8642L63.5941 43.1796C65.8713 44.2585 65.8713 45.9258 63.5941 46.9066L36.8614 59.2644C34.7822 60.2452 31.1188 60.2452 28.9406 59.2644Z" fill="#FF6F3D"/>
<path fill-rule="evenodd" clip-rule="evenodd" d="M28.9406 44.0606L2.20792 31.7027C-0.069307 30.6239 -0.069307 28.9566 2.20792 27.9758L11.3168 23.7584L28.9406 31.8989C31.2178 32.9778 34.8812 32.9778 37.0594 31.8989L54.6832 23.7584L63.7921 27.9758C66.0693 29.0546 66.0693 30.722 63.7921 31.7027L37.0594 44.0606C34.7822 45.1394 31.1188 45.1394 28.9406 44.0606Z" fill="url(#paint0_linear)"/>
<path fill-rule="evenodd" clip-rule="evenodd" d="M28.9406 44.0606L2.20792 31.7027C-0.069307 30.6239 -0.069307 28.9566 2.20792 27.9758L11.3168 23.7584L28.9406 31.8989C31.2178 32.9778 34.8812 32.9778 37.0594 31.8989L54.6832 23.7584L63.7921 27.9758C66.0693 29.0546 66.0693 30.722 63.7921 31.7027L37.0594 44.0606C34.7822 45.1394 31.1188 45.1394 28.9406 44.0606Z" fill="#95C038"/>
<path fill-rule="evenodd" clip-rule="evenodd" d="M28.9406 29.2518L2.20792 16.8939C-0.069307 15.8151 -0.069307 14.1477 2.20792 13.167L28.9406 0.809143C31.2178 -0.269714 34.8812 -0.269714 37.0594 0.809143L63.7921 13.167C66.0693 14.2458 66.0693 15.9132 63.7921 16.8939L37.0594 29.2518C34.7822 30.2325 31.1188 30.2325 28.9406 29.2518Z" fill="#5DC0E8"/>
<defs>
<linearGradient id="paint0_linear" x1="32.9769" y1="51.4421" x2="32.9769" y2="21.7699" gradientUnits="userSpaceOnUse">
<stop stop-color="#DEEDC9"/>
<stop offset="0.6606" stop-color="#8BBA25"/>
</linearGradient>
</defs>
</svg>
